<?xml version="1.0" encoding="iso-8859-1"?>
<!-- Generator: Adobe Illustrator 15.0.2, SVG Export Plug-In . SVG Version: 6.00 Build 0)  -->
<!DOCTYPE svg PUBLIC "-//W3C//DTD SVG 1.1//EN" "http://www.w3.org/Graphics/SVG/1.1/DTD/svg11.dtd">
<svg version="1.1" id="hotfixNB243914-layer" xmlns="http://www.w3.org/2000/svg" xmlns:xlink="http://www.w3.org/1999/xlink"
	 x="0px" y="0px" width="679px" height="190px" viewBox="0 0 679 190" style="enable-background:new 0 0 679 190;"
	 xml:space="preserve">
<g id="hotfixNB243914">
	<g id="helper">
		<g>
			<path style="fill:#F0F0F1;" d="M12,189.5c-6.341,0-11.5-5.159-11.5-11.5V12C0.5,5.659,5.659,0.5,12,0.5h655
				c6.341,0,11.5,5.159,11.5,11.5v166c0,6.341-5.159,11.5-11.5,11.5H12z"/>
			<path style="fill:#929497;" d="M667,1c6.065,0,11,4.935,11,11v166c0,6.065-4.935,11-11,11H12c-6.065,0-11-4.935-11-11V12
				C1,5.935,5.935,1,12,1H667 M667,0H12C5.4,0,0,5.4,0,12v166c0,6.6,5.4,12,12,12h655c6.6,0,12-5.4,12-12V12C679,5.4,673.6,0,667,0
				L667,0z"/>
		</g>
		<g>
			<path d="M30.289,13.083v3.383h3.91v-3.383h1.055v8.084h-1.055v-3.79h-3.91v3.79h-1.056v-8.084H30.289z"/>
			<path d="M43.978,17.041c0,2.771-1.691,4.258-3.754,4.258c-2.147,0-3.634-1.667-3.634-4.113c0-2.567,1.583-4.246,3.742-4.246
				C42.55,12.939,43.978,14.631,43.978,17.041z M37.693,17.161c0,1.739,0.936,3.286,2.591,3.286c1.655,0,2.59-1.523,2.59-3.358
				c0-1.619-0.839-3.298-2.579-3.298C38.557,13.791,37.693,15.398,37.693,17.161z"/>
			<path d="M46.572,13.971h-2.458v-0.888h5.985v0.888h-2.471v7.196h-1.056V13.971z"/>
			<path d="M53.533,13.083h4.354v0.876h-3.298v2.687h3.046v0.863h-3.046v3.658h-1.055V13.083z"/>
			<path d="M60.433,13.083v8.084h-1.056v-8.084H60.433z"/>
			<path d="M66.683,21.167l-1.043-1.787c-0.419-0.684-0.671-1.127-0.923-1.595h-0.024c-0.228,0.468-0.468,0.899-0.875,1.606
				l-0.972,1.775h-1.199l2.471-4.09l-2.375-3.994h1.211l1.067,1.896c0.3,0.527,0.528,0.936,0.744,1.367H64.8
				c0.228-0.479,0.432-0.852,0.731-1.367l1.091-1.896h1.211l-2.458,3.935l2.519,4.149H66.683z"/>
			<path d="M71.641,13.083h4.354v0.876h-3.298v2.687h3.046v0.863h-3.046v3.658h-1.055V13.083z"/>
			<path d="M84.405,17.041c0,2.771-1.691,4.258-3.754,4.258c-2.147,0-3.634-1.667-3.634-4.113c0-2.567,1.583-4.246,3.742-4.246
				C82.978,12.939,84.405,14.631,84.405,17.041z M78.121,17.161c0,1.739,0.936,3.286,2.59,3.286c1.655,0,2.591-1.523,2.591-3.358
				c0-1.619-0.839-3.298-2.579-3.298C78.984,13.791,78.121,15.398,78.121,17.161z"/>
			<path d="M85.765,13.191c0.528-0.096,1.295-0.168,2.003-0.168c1.116,0,1.847,0.216,2.339,0.66
				c0.396,0.359,0.636,0.911,0.636,1.547c0,1.056-0.672,1.763-1.511,2.051v0.036c0.612,0.216,0.983,0.791,1.175,1.631
				c0.264,1.127,0.456,1.907,0.624,2.219h-1.08c-0.132-0.24-0.312-0.924-0.528-1.931c-0.24-1.115-0.684-1.535-1.631-1.571h-0.983
				v3.502h-1.044V13.191z M86.809,16.873h1.067c1.115,0,1.823-0.611,1.823-1.535c0-1.043-0.755-1.499-1.859-1.499
				c-0.504,0-0.852,0.036-1.031,0.084V16.873z"/>
			<path d="M94.765,13.203c0.456-0.107,1.188-0.18,1.907-0.18c1.043,0,1.715,0.18,2.207,0.588c0.42,0.312,0.684,0.791,0.684,1.427
				c0,0.792-0.528,1.476-1.367,1.775v0.036c0.768,0.18,1.667,0.815,1.667,2.015c0,0.695-0.276,1.235-0.696,1.619
				c-0.551,0.516-1.463,0.756-2.782,0.756c-0.72,0-1.271-0.048-1.619-0.097V13.203z M95.808,16.514h0.948
				c1.091,0,1.739-0.588,1.739-1.367c0-0.936-0.708-1.319-1.763-1.319c-0.479,0-0.755,0.036-0.923,0.072V16.514z M95.808,20.375
				c0.216,0.036,0.504,0.049,0.875,0.049c1.08,0,2.075-0.396,2.075-1.571c0-1.092-0.948-1.56-2.087-1.56h-0.864V20.375z"/>
			<path d="M102.312,13.083v4.798c0,1.799,0.804,2.566,1.883,2.566c1.188,0,1.967-0.791,1.967-2.566v-4.798h1.055v4.726
				c0,2.482-1.307,3.49-3.058,3.49c-1.655,0-2.902-0.936-2.902-3.454v-4.762H102.312z"/>
			<path d="M115.197,20.808c-0.468,0.18-1.403,0.443-2.495,0.443c-1.224,0-2.231-0.312-3.022-1.067
				c-0.696-0.672-1.127-1.751-1.127-3.011c0-2.41,1.667-4.174,4.377-4.174c0.936,0,1.679,0.204,2.027,0.372l-0.264,0.852
				c-0.432-0.204-0.972-0.348-1.787-0.348c-1.967,0-3.25,1.224-3.25,3.25c0,2.051,1.223,3.263,3.118,3.263
				c0.684,0,1.151-0.097,1.391-0.216v-2.411h-1.631v-0.84h2.663V20.808z"/>
			<path d="M119.544,21.167l0.312-2.351h-0.996v-0.708h1.104l0.228-1.739h-1.043v-0.707h1.139l0.312-2.291h0.708l-0.312,2.291h1.26
				l0.3-2.291h0.708l-0.3,2.291h0.983v0.707h-1.091l-0.216,1.739h1.031v0.708h-1.14l-0.312,2.351h-0.72l0.312-2.351h-1.248
				l-0.3,2.351H119.544z M121.919,18.108l0.228-1.739h-1.247l-0.228,1.739H121.919z"/>
			<path d="M124.92,21.167V20.52l0.828-0.804c1.991-1.895,2.902-2.902,2.902-4.078c0-0.791-0.372-1.522-1.535-1.522
				c-0.708,0-1.295,0.359-1.655,0.659l-0.335-0.743c0.527-0.444,1.307-0.792,2.195-0.792c1.679,0,2.387,1.151,2.387,2.267
				c0,1.439-1.044,2.603-2.687,4.186l-0.612,0.576v0.023h3.49v0.876H124.92z"/>
			<path d="M134.338,21.167v-2.135h-3.622v-0.684l3.478-4.978h1.14v4.846h1.091v0.815h-1.091v2.135H134.338z M134.338,18.217v-2.603
				c0-0.408,0.012-0.815,0.036-1.224h-0.036c-0.24,0.456-0.432,0.792-0.647,1.151l-1.907,2.65v0.024H134.338z"/>
			<path d="M137.484,19.968c0.3,0.18,0.983,0.479,1.727,0.479c1.343,0,1.775-0.852,1.763-1.511c-0.012-1.092-0.996-1.56-2.015-1.56
				h-0.587v-0.791h0.587c0.768,0,1.739-0.396,1.739-1.319c0-0.624-0.396-1.176-1.367-1.176c-0.624,0-1.224,0.276-1.559,0.516
				l-0.288-0.768c0.42-0.3,1.211-0.6,2.051-0.6c1.535,0,2.231,0.911,2.231,1.859c0,0.815-0.492,1.499-1.439,1.847v0.024
				c0.96,0.18,1.728,0.899,1.739,1.99c0,1.247-0.983,2.339-2.842,2.339c-0.875,0-1.643-0.275-2.027-0.527L137.484,19.968z"/>
			<path d="M144,20.424c0.228,0.023,0.492,0,0.852-0.036c0.612-0.084,1.188-0.324,1.631-0.756c0.516-0.468,0.887-1.151,1.031-2.062
				h-0.036c-0.432,0.527-1.055,0.827-1.847,0.827c-1.392,0-2.291-1.056-2.291-2.387c0-1.476,1.067-2.771,2.663-2.771
				s2.579,1.283,2.579,3.298c0,1.703-0.576,2.902-1.343,3.646c-0.6,0.588-1.427,0.947-2.267,1.043
				c-0.384,0.061-0.72,0.072-0.972,0.061V20.424z M144.383,15.95c0,0.971,0.588,1.654,1.5,1.654c0.708,0,1.259-0.348,1.535-0.815
				c0.06-0.107,0.096-0.216,0.096-0.396c0-1.331-0.492-2.351-1.607-2.351C145.019,14.043,144.383,14.834,144.383,15.95z"/>
			<path d="M151.834,14.354h-0.024l-1.355,0.731l-0.204-0.803l1.703-0.912h0.899v7.796h-1.02V14.354z"/>
			<path d="M158.962,21.167v-2.135h-3.622v-0.684l3.478-4.978h1.139v4.846h1.092v0.815h-1.092v2.135H158.962z M158.962,18.217
				v-2.603c0-0.408,0.012-0.815,0.036-1.224h-0.036c-0.24,0.456-0.432,0.792-0.648,1.151l-1.907,2.65v0.024H158.962z"/>
		</g>
	</g>
	<g id="meegotouch-text-editor-horizontal-center">
		<rect x="282" y="149" style="fill:#F6F6E6;" width="64" height="64"/>
	</g>
	<g id="meegotouch-text-editor-horizontal-left">
		<rect x="240" y="149" style="fill:#F6F6E6;" width="64" height="64"/>
	</g>
	<g id="meegotouch-text-editor-horizontal-right">
		<rect x="198" y="149" style="fill:#F6F6E6;" width="64" height="64"/>
	</g>
	<g id="meegotouch-text-editor-mode-horizontal-right">
		<rect x="156" y="149" style="fill:#e2e2e3;" width="64" height="64"/>
	</g>
	<g id="meegotouch-text-editor-mode-pressed-horizontal-right">
		<rect x="114" y="149" style="fill:#9b9b9b;" width="64" height="64"/>
	</g>
	<g id="meegotouch-text-editor-mode-selected-horizontal-right">
		<rect x="72" y="149" style="fill:#bcbcbc;" width="64" height="64"/>
	</g>
	<g id="meegotouch-text-editor-pressed-horizontal-center">
		<rect x="30" y="151" style="fill:#9b9b9b;" width="64" height="64"/>
	</g>
	<g id="meegotouch-text-editor-pressed-horizontal-left">
		<rect x="491" y="112" style="fill:#9b9b9b;" width="64" height="64"/>
	</g>
	<g id="meegotouch-text-editor-pressed-horizontal-right">
		<rect x="449" y="112" style="fill:#9b9b9b;" width="64" height="64"/>
	</g>
	<g id="meegotouch-text-editor-pressed">
		<rect x="407" y="112" style="fill:#9b9b9b;" width="64" height="64"/>
	</g>
	<g id="meegotouch-text-editor-selected-horizontal-center">
		<rect x="365" y="112" style="fill:#bcbcbc;" width="64" height="64"/>
	</g>
	<g id="meegotouch-text-editor-selected">
		<rect x="365" y="112" style="fill:#bcbcbc;" width="64" height="64"/>
	</g>
	<g id="meegotouch-text-editor-selected-horizontal-left">
		<rect x="323" y="112" style="fill:#bcbcbc;" width="64" height="64"/>
	</g>
	<g id="meegotouch-text-editor-selected-horizontal-right">
		<rect x="281" y="112" style="fill:#bcbcbc;" width="64" height="64"/>
	</g>
	<g id="meegotouch-text-editor">
		<rect x="324" y="149" style="fill:#bcbcbc;" width="64" height="64"/>
	</g>
	<g id="keypad-section-background_0_0">
		<rect x="155" y="112" style="fill:#E6E6E6;" width="32" height="32"/>
	</g>
	<g id="dialer-call-button-background_0_0">
		<rect x="113" y="112" style="fill:#E6E6E6;" width="32" height="32"/>
	</g>
	<g id="album_x5F_thumbnail_bg_0_0">
		<rect x="72" y="112" style="fill:#E6E6E6;" width="32" height="32"/>
	</g>
	<g id="landscape-listItem-bg_0_0">
		<rect x="30" y="112" style="fill:#E6E6E6;" width="32" height="32"/>
	</g>
	<g id="landscape-crumbbar-bg_0_0">
		<rect x="491" y="70" style="fill:#E6E6E6;" width="32" height="32"/>
	</g>
	<g id="meegotouch-text-frame-inverted-background">
		<rect x="449" y="70" style="fill:#E6E6E6;" width="32" height="32"/>
	</g>
	<g id="meegotouch-groupheader-background">
		<rect x="407" y="70" style="fill:#E6E6E6;" width="32" height="32"/>
	</g>
	<g id="meegotouch-groupheader-inverted-background">
		<rect x="365" y="70" style="fill:#E6E6E6;" width="32" height="32"/>
	</g>
	<g id="meegotouch-viewmenu-border">
		<rect x="323" y="70" style="fill:#E6E6E6;" width="32" height="32"/>
	</g>
	<g id="meegotouch-inbox-subicon-inverted-background">
		<rect x="281" y="70" style="fill:#E6E6E6;" width="32" height="32"/>
	</g>
	<g id="meegotouch-inbox-subicon-background">
		<rect x="239" y="70" style="fill:#E6E6E6;" width="32" height="32"/>
	</g>
	<g id="meegotouch-countbubble-inverted-background-large">
		<rect x="197" y="70" style="fill:#E6E6E6;" width="32" height="32"/>
	</g>
	<g id="meegotouch-countbubble-background-large">
		<rect x="155" y="70" style="fill:#E6E6E6;" width="32" height="32"/>
	</g>
</g>
</svg>
