<?xml version="1.0" encoding="iso-8859-1"?>
<!-- Generator: Adobe Illustrator 15.0.2, SVG Export Plug-In . SVG Version: 6.00 Build 0)  -->
<!DOCTYPE svg PUBLIC "-//W3C//DTD SVG 1.1//EN" "http://www.w3.org/Graphics/SVG/1.1/DTD/svg11.dtd">
<svg version="1.1" id="meegotouch-virtual-keyboard-text-selectors-layer"
	 xmlns="http://www.w3.org/2000/svg" xmlns:xlink="http://www.w3.org/1999/xlink" x="0px" y="0px" width="162px" height="290px"
	 viewBox="0 0 162 290" style="enable-background:new 0 0 162 290;" xml:space="preserve">
<g id="meegotouch-virtual-keyboard-text-selectors">
	<g id="_x23_textselectorhelper">
		<g>
			<path style="fill:#404041;" d="M12,289.5c-6.341,0-11.5-5.159-11.5-11.5V12C0.5,5.659,5.659,0.5,12,0.5h138
				c6.341,0,11.5,5.159,11.5,11.5v266c0,6.341-5.159,11.5-11.5,11.5H12z"/>
			<g>
				<path style="fill:#A6A8AB;" d="M150,1c6.065,0,11,4.935,11,11v266c0,6.065-4.935,11-11,11H12c-6.065,0-11-4.935-11-11V12
					C1,5.935,5.935,1,12,1H150 M150,0H12C5.4,0,0,5.4,0,12v266c0,6.6,5.4,12,12,12h138c6.6,0,12-5.4,12-12V12C162,5.4,156.6,0,150,0
					L150,0z"/>
			</g>
		</g>
		<g>
			<path style="fill:#FFFFFF;" d="M47.957,22.655h-2.563v9.441h-0.953v-9.441h-2.563v-0.756h6.079V22.655z"/>
			<path style="fill:#FFFFFF;" d="M53.025,31.886c-0.658,0.21-1.359,0.322-2.059,0.322c-2.423,0-3.012-1.989-3.012-4.077
				c0-1.793,0.658-4.076,2.844-4.076c2.395,0,2.507,2.494,2.507,4.287h-4.413c0.014,1.653,0.462,3.138,2.129,3.138
				c0.7,0,1.358-0.126,2.003-0.308V31.886z M52.409,27.642c0-1.079-0.154-2.857-1.597-2.857c-1.527,0-1.807,1.653-1.891,2.857
				H52.409z"/>
			<path style="fill:#FFFFFF;" d="M60.011,32.096h-1.022l-1.919-3.39l-2.003,3.39h-0.925l2.494-4.09l-2.213-3.838h0.995l1.751,3.138
				l1.793-3.138h0.924l-2.269,3.824L60.011,32.096z"/>
			<path style="fill:#FFFFFF;" d="M64.574,31.984c-0.42,0.112-0.98,0.225-1.457,0.225c-1.233,0-1.583-0.729-1.583-1.737v-5.575
				h-0.882v-0.729h0.854l0.28-1.485h0.659v1.485h1.919v0.729h-1.919v5.407c0,0.672,0.084,1.177,0.84,1.177
				c0.42,0,0.84-0.084,1.289-0.21V31.984z"/>
			<path style="fill:#FFFFFF;" d="M73.002,25.022c-0.532-0.168-0.953-0.238-1.583-0.238c-0.869,0-1.429,0.42-1.429,1.275
				c0,0.812,0.49,1.079,1.373,1.541c0.938,0.49,1.877,1.023,1.877,2.312c0,1.625-0.994,2.297-2.549,2.297
				c-0.546,0-1.247-0.126-1.779-0.252v-0.771c0.658,0.182,1.373,0.294,1.877,0.294c0.896,0,1.541-0.378,1.541-1.373
				c0-0.91-0.645-1.274-1.485-1.709c-0.854-0.434-1.765-0.952-1.765-2.227c0-1.387,1.064-2.115,2.367-2.115
				c0.575,0,1.065,0.084,1.555,0.224V25.022z"/>
			<path style="fill:#FFFFFF;" d="M79.807,31.886c-0.659,0.21-1.359,0.322-2.06,0.322c-2.423,0-3.011-1.989-3.011-4.077
				c0-1.793,0.658-4.076,2.843-4.076c2.396,0,2.507,2.494,2.507,4.287h-4.412c0.014,1.653,0.462,3.138,2.129,3.138
				c0.701,0,1.359-0.126,2.003-0.308V31.886z M79.19,27.642c0-1.079-0.154-2.857-1.597-2.857c-1.527,0-1.807,1.653-1.891,2.857
				H79.19z"/>
			<path style="fill:#FFFFFF;" d="M83.024,32.096h-0.911V21.269h0.911V32.096z"/>
			<path style="fill:#FFFFFF;" d="M90.152,31.886c-0.658,0.21-1.359,0.322-2.06,0.322c-2.423,0-3.012-1.989-3.012-4.077
				c0-1.793,0.659-4.076,2.844-4.076c2.396,0,2.508,2.494,2.508,4.287H86.02c0.015,1.653,0.463,3.138,2.13,3.138
				c0.7,0,1.358-0.126,2.003-0.308V31.886z M89.536,27.642c0-1.079-0.154-2.857-1.597-2.857c-1.527,0-1.808,1.653-1.892,2.857
				H89.536z"/>
			<path style="fill:#FFFFFF;" d="M96.662,32.012c-0.448,0.126-0.967,0.196-1.514,0.196c-2.017,0-3.096-1.317-3.096-4.174
				c0-2.563,1.149-3.979,3.292-3.979c0.505,0,0.938,0.084,1.261,0.168v0.742c-0.336-0.098-0.742-0.182-1.232-0.182
				c-1.457,0-2.367,0.911-2.367,3.25c0,2.283,0.7,3.446,2.283,3.446c0.49,0,0.98-0.084,1.373-0.196V32.012z"/>
			<path style="fill:#FFFFFF;" d="M101.533,31.984c-0.421,0.112-0.98,0.225-1.457,0.225c-1.232,0-1.583-0.729-1.583-1.737v-5.575
				h-0.882v-0.729h0.854l0.28-1.485h0.659v1.485h1.919v0.729h-1.919v5.407c0,0.672,0.084,1.177,0.84,1.177
				c0.42,0,0.841-0.084,1.289-0.21V31.984z"/>
			<path style="fill:#FFFFFF;" d="M104.01,32.096h-0.91v-7.2h-0.911v-0.729h1.821V32.096z M103.548,23.047
				c-0.393,0-0.575-0.336-0.575-0.729c0-0.406,0.183-0.729,0.575-0.729c0.378,0,0.588,0.336,0.588,0.729
				S103.939,23.047,103.548,23.047z"/>
			<path style="fill:#FFFFFF;" d="M108.994,32.208c-2.409,0-2.928-2.213-2.928-4.203c0-1.919,0.729-3.95,2.928-3.95
				c2.241,0,2.928,2.017,2.928,3.95C111.922,30.121,111.306,32.208,108.994,32.208z M108.994,24.784
				c-1.709,0-1.975,1.877-1.975,3.222c0,1.331,0.238,3.474,2.003,3.474c1.849,0,1.947-2.101,1.947-3.53
				C110.97,26.717,110.619,24.784,108.994,24.784z"/>
			<path style="fill:#FFFFFF;" d="M114.762,25.289c0.462-0.729,1.246-1.233,2.129-1.233c1.653,0,2.381,0.896,2.381,2.634v5.407
				h-0.91v-5.155c0-1.247-0.336-2.157-1.499-2.157c-1.358,0-1.975,1.106-1.975,2.339v4.973h-0.911v-7.928h0.603L114.762,25.289z"/>
		</g>
	</g>
	<g id="meegotouch-text-selection-handle-right-pressed">
		<rect x="82" y="160" style="opacity:0;fill:#FFFFFF;" width="46" height="77"/>
		<path style="opacity:0.02;" d="M113,237c8.271,0,15-6.729,15-15v-28.777c0-6.189-3.902-13.916-8.885-17.591l-0.09-0.06
			l-20.407-11.901C96.164,161.85,93.893,161,91.475,161c-2.485,0-4.721,0.922-6.465,2.667c-2.054,2.056-3.008,4.738-3.004,8.44
			L82,222c0,8.271,6.729,15,15,15H113z"/>
		<path style="opacity:0.02;" d="M113,236c7.721,0,14-6.28,14-14v-28.777c0-5.906-3.725-13.28-8.479-16.786l-20.455-11.931
			C95.777,162.798,93.68,162,91.475,162c-2.215,0-4.205,0.82-5.758,2.374c-1.854,1.856-2.715,4.313-2.711,7.732L83,222
			c0,7.72,6.281,14,14,14H113z"/>
		<path style="opacity:0.02;" d="M113,235c7.168,0,13-5.832,13-13v-28.777c0-5.623-3.545-12.644-8.072-15.981l-20.453-11.929
			c-2.113-1.576-4.021-2.312-6-2.312c-1.943,0-3.689,0.72-5.051,2.081c-1.652,1.655-2.422,3.888-2.418,7.024L84,222
			c0,7.168,5.832,13,13,13H113z"/>
		<path style="opacity:0.02;" d="M113,234c6.617,0,12-5.383,12-12v-28.777c0-5.34-3.367-12.007-7.666-15.177l-20.453-11.929
			c-1.934-1.443-3.654-2.117-5.406-2.117c-1.672,0-3.174,0.618-4.344,1.788c-1.453,1.456-2.129,3.463-2.125,6.316L85,222
			c0,6.617,5.383,12,12,12H113z"/>
		<path style="opacity:0.03;" d="M113,233c6.066,0,11-4.935,11-11v-28.777c0-5.058-3.189-11.371-7.26-14.372l-20.451-11.927
			C94.531,165.612,93,165,91.475,165c-1.402,0-2.658,0.518-3.637,1.495c-1.254,1.256-1.836,3.038-1.832,5.608L86,222
			c0,6.065,4.936,11,11,11H113z"/>
		<path style="opacity:0.04;" d="M113,232c5.514,0,10-4.486,10-10v-28.777c0-4.774-3.01-10.734-6.854-13.567l-20.451-11.927
			c-1.578-1.178-2.922-1.729-4.221-1.729c-1.131,0-2.143,0.416-2.93,1.202c-1.053,1.056-1.543,2.612-1.539,4.899L87,222
			c0,5.514,4.486,10,10,10H113z"/>
		<path style="opacity:0.09;" d="M113,231c4.963,0,9-4.037,9-9v-28.777c0-4.491-2.832-10.098-6.447-12.763l-20.449-11.925
			c-1.402-1.047-2.557-1.535-3.629-1.535c-0.859,0-1.627,0.314-2.223,0.909c-0.854,0.855-1.25,2.188-1.246,4.191L88,222
			c0,4.963,4.037,9,9,9H113z"/>
		<path style="opacity:0.11;" d="M113,230c4.412,0,8-3.589,8-8v-28.777c0-4.138-2.709-9.502-6.041-11.958L94.51,169.34
			c-1.223-0.912-2.189-1.34-3.035-1.34c-0.588,0-1.111,0.213-1.514,0.615c-0.654,0.656-0.959,1.763-0.955,3.484L89,222
			c0,4.411,3.59,8,8,8H113z"/>
		<path style="opacity:0.12;" d="M90.006,172.098c-0.006-3.36,1.238-3.947,3.912-1.951l20.447,11.924
			c3.1,2.283,5.635,7.303,5.635,11.152V222c0,3.85-3.15,7-7,7H97c-3.85,0-7-3.15-7-7L90.006,172.098z"/>
		
			<linearGradient id="SVGID_1_" gradientUnits="userSpaceOnUse" x1="-464.3149" y1="162.6572" x2="-464.3149" y2="227.7053" gradientTransform="matrix(1 0 0 1 569.3145 0)">
			<stop  offset="0" style="stop-color:#FFFFFF"/>
			<stop  offset="0.5542" style="stop-color:#F9FAFA"/>
			<stop  offset="1" style="stop-color:#F0F1F2"/>
		</linearGradient>
		<path style="fill:url(#SVGID_1_);" d="M89,163.493V220c0,4.4,3.389,8,7.529,8h16.941c4.143,0,7.529-3.6,7.529-8v-30.507
			c0-4.4-3.029-8.485-7.529-11L89,163.493z"/>
		<path style="fill:#00DB00;" d="M96.529,227c-3.601,0-6.529-3.141-6.529-7v-54.721l22.948,14.066
			c4.429,2.475,7.052,6.262,7.052,10.147V220c0,3.859-2.929,7-6.529,7H96.529z"/>
	</g>
	<g id="meegotouch-text-selection-handle-right">
		<path style="opacity:0.02;" d="M63,237c8.271,0,15-6.729,15-15v-28.777c0-6.189-3.902-13.916-8.885-17.591l-0.09-0.06
			l-20.407-11.901C46.164,161.85,43.893,161,41.475,161c-2.485,0-4.721,0.922-6.465,2.667c-2.054,2.056-3.008,4.738-3.004,8.44
			L32,222c0,8.271,6.729,15,15,15H63z"/>
		<path style="opacity:0.02;" d="M63,236c7.721,0,14-6.28,14-14v-28.777c0-5.906-3.725-13.28-8.479-16.786l-20.455-11.931
			C45.777,162.798,43.68,162,41.475,162c-2.215,0-4.205,0.82-5.758,2.374c-1.854,1.856-2.715,4.313-2.711,7.732L33,222
			c0,7.72,6.281,14,14,14H63z"/>
		<path style="opacity:0.02;" d="M63,235c7.168,0,13-5.832,13-13v-28.777c0-5.623-3.545-12.644-8.072-15.981l-20.453-11.929
			c-2.113-1.576-4.021-2.312-6-2.312c-1.943,0-3.689,0.72-5.051,2.081c-1.652,1.655-2.422,3.888-2.418,7.024L34,222
			c0,7.168,5.832,13,13,13H63z"/>
		<path style="opacity:0.02;" d="M63,234c6.617,0,12-5.383,12-12v-28.777c0-5.34-3.367-12.007-7.666-15.177l-20.453-11.929
			c-1.934-1.443-3.654-2.117-5.406-2.117c-1.672,0-3.174,0.618-4.344,1.788c-1.453,1.456-2.129,3.463-2.125,6.316L35,222
			c0,6.617,5.383,12,12,12H63z"/>
		<path style="opacity:0.03;" d="M63,233c6.066,0,11-4.935,11-11v-28.777c0-5.058-3.189-11.371-7.26-14.372l-20.451-11.927
			C44.531,165.612,43,165,41.475,165c-1.402,0-2.658,0.518-3.637,1.495c-1.254,1.256-1.836,3.038-1.832,5.608L36,222
			c0,6.065,4.936,11,11,11H63z"/>
		<path style="opacity:0.04;" d="M63,232c5.514,0,10-4.486,10-10v-28.777c0-4.774-3.01-10.734-6.854-13.567l-20.451-11.927
			c-1.578-1.178-2.922-1.729-4.221-1.729c-1.131,0-2.143,0.416-2.93,1.202c-1.053,1.056-1.543,2.612-1.539,4.899L37,222
			c0,5.514,4.486,10,10,10H63z"/>
		<path style="opacity:0.09;" d="M63,231c4.963,0,9-4.037,9-9v-28.777c0-4.491-2.832-10.098-6.447-12.763l-20.449-11.925
			c-1.402-1.047-2.557-1.535-3.629-1.535c-0.859,0-1.627,0.314-2.223,0.909c-0.854,0.855-1.25,2.188-1.246,4.191L38,222
			c0,4.963,4.037,9,9,9H63z"/>
		<path style="opacity:0.11;" d="M63,230c4.412,0,8-3.589,8-8v-28.777c0-4.138-2.709-9.502-6.041-11.958L44.51,169.34
			c-1.223-0.912-2.189-1.34-3.035-1.34c-0.588,0-1.111,0.213-1.514,0.615c-0.654,0.656-0.959,1.763-0.955,3.484L39,222
			c0,4.411,3.59,8,8,8H63z"/>
		<path style="opacity:0.12;" d="M40.006,172.098c-0.006-3.36,1.238-3.947,3.912-1.951l20.447,11.924
			c3.1,2.283,5.635,7.303,5.635,11.152V222c0,3.85-3.15,7-7,7H47c-3.85,0-7-3.15-7-7L40.006,172.098z"/>
		
			<linearGradient id="SVGID_2_" gradientUnits="userSpaceOnUse" x1="-514.3145" y1="162.6572" x2="-514.3145" y2="227.7053" gradientTransform="matrix(1 0 0 1 569.3145 0)">
			<stop  offset="0" style="stop-color:#FFFFFF"/>
			<stop  offset="0.5542" style="stop-color:#F9FAFA"/>
			<stop  offset="1" style="stop-color:#F0F1F2"/>
		</linearGradient>
		<path style="fill:url(#SVGID_2_);" d="M39,163.493V220c0,4.4,3.389,8,7.529,8h16.941c4.143,0,7.529-3.6,7.529-8v-30.507
			c0-4.4-3.029-8.485-7.529-11L39,163.493z"/>
		<rect x="32" y="160" style="opacity:0;fill:#FFFFFF;" width="46" height="77"/>
	</g>
	<g id="meegotouch-text-selection-handle-left-pressed">
		<rect x="82" y="60" style="opacity:0;fill:#FFFFFF;" width="46" height="77"/>
		<path style="opacity:0.02;" d="M97,137c-8.271,0-15-6.729-15-15V93.223c0-6.189,3.902-13.916,8.885-17.591l0.09-0.06
			l20.407-11.901c2.454-1.821,4.726-2.671,7.144-2.671c2.485,0,4.721,0.922,6.465,2.667c2.054,2.056,3.008,4.738,3.004,8.44L128,122
			c0,8.271-6.729,15-15,15H97z"/>
		<path style="opacity:0.02;" d="M97,136c-7.721,0-14-6.28-14-14V93.223c0-5.906,3.725-13.28,8.479-16.786l20.455-11.931
			c2.289-1.708,4.387-2.506,6.592-2.506c2.215,0,4.205,0.82,5.758,2.374c1.854,1.856,2.715,4.313,2.711,7.732L127,122
			c0,7.72-6.281,14-14,14H97z"/>
		<path style="opacity:0.02;" d="M97,135c-7.168,0-13-5.832-13-13V93.223c0-5.623,3.545-12.644,8.072-15.981l20.453-11.929
			c2.113-1.576,4.021-2.312,6-2.312c1.943,0,3.689,0.72,5.051,2.081c1.652,1.655,2.422,3.888,2.418,7.024L126,122
			c0,7.168-5.832,13-13,13H97z"/>
		<path style="opacity:0.02;" d="M97,134c-6.617,0-12-5.383-12-12V93.223c0-5.34,3.367-12.007,7.666-15.177l20.453-11.929
			c1.934-1.443,3.654-2.117,5.406-2.117c1.672,0,3.174,0.618,4.344,1.788c1.453,1.456,2.129,3.463,2.125,6.316L125,122
			c0,6.617-5.383,12-12,12H97z"/>
		<path style="opacity:0.03;" d="M97,133c-6.066,0-11-4.935-11-11V93.223c0-5.058,3.189-11.371,7.26-14.372l20.451-11.927
			C115.469,65.612,117,65,118.525,65c1.402,0,2.658,0.518,3.637,1.495c1.254,1.256,1.836,3.038,1.832,5.608L124,122
			c0,6.065-4.936,11-11,11H97z"/>
		<path style="opacity:0.04;" d="M97,132c-5.514,0-10-4.486-10-10V93.223c0-4.774,3.01-10.734,6.854-13.567l20.451-11.927
			c1.578-1.178,2.922-1.729,4.221-1.729c1.131,0,2.143,0.416,2.93,1.202c1.053,1.056,1.543,2.612,1.539,4.899L123,122
			c0,5.514-4.486,10-10,10H97z"/>
		<path style="opacity:0.09;" d="M97,131c-4.963,0-9-4.037-9-9V93.223c0-4.491,2.832-10.098,6.447-12.763l20.449-11.925
			c1.402-1.047,2.557-1.535,3.629-1.535c0.859,0,1.627,0.314,2.223,0.909c0.854,0.855,1.25,2.188,1.246,4.191L122,122
			c0,4.963-4.037,9-9,9H97z"/>
		<path style="opacity:0.11;" d="M97,130c-4.412,0-8-3.589-8-8V93.223c0-4.138,2.709-9.502,6.041-11.958L115.49,69.34
			c1.223-0.912,2.189-1.34,3.035-1.34c0.588,0,1.111,0.213,1.514,0.615c0.654,0.656,0.959,1.763,0.955,3.484L121,122
			c0,4.411-3.59,8-8,8H97z"/>
		<path style="opacity:0.12;" d="M119.994,72.098c0.006-3.36-1.238-3.947-3.912-1.951L95.635,82.07
			C92.535,84.354,90,89.373,90,93.223V122c0,3.85,3.15,7,7,7h16c3.85,0,7-3.15,7-7L119.994,72.098z"/>
		
			<linearGradient id="SVGID_3_" gradientUnits="userSpaceOnUse" x1="37.9995" y1="62.6577" x2="37.9995" y2="127.7058" gradientTransform="matrix(-1 0 0 1 143 0)">
			<stop  offset="0" style="stop-color:#FFFFFF"/>
			<stop  offset="0.5542" style="stop-color:#F9FAFA"/>
			<stop  offset="1" style="stop-color:#F0F1F2"/>
		</linearGradient>
		<path style="fill:url(#SVGID_3_);" d="M121,63.493V120c0,4.4-3.389,8-7.529,8H96.529c-4.143,0-7.529-3.6-7.529-8V89.493
			c0-4.4,3.029-8.485,7.529-11L121,63.493z"/>
		<path style="fill:#00DB00;" d="M96.529,127c-3.601,0-6.529-3.141-6.529-7V89.493c0-3.886,2.623-7.673,7.017-10.127L120,65.279V120
			c0,3.859-2.929,7-6.529,7H96.529z"/>
	</g>
	<g id="meegotouch-text-selection-handle-left">
		<path style="opacity:0.02;" d="M47,137c-8.271,0-15-6.729-15-15V93.223c0-6.189,3.902-13.916,8.885-17.591l0.09-0.06
			l20.407-11.901C63.836,61.85,66.107,61,68.525,61c2.485,0,4.721,0.922,6.465,2.667c2.054,2.056,3.008,4.738,3.004,8.44L78,122
			c0,8.271-6.729,15-15,15H47z"/>
		<path style="opacity:0.02;" d="M47,136c-7.721,0-14-6.28-14-14V93.223c0-5.906,3.725-13.28,8.479-16.786l20.455-11.931
			C64.223,62.798,66.32,62,68.525,62c2.215,0,4.205,0.82,5.758,2.374c1.854,1.856,2.715,4.313,2.711,7.732L77,122
			c0,7.72-6.281,14-14,14H47z"/>
		<path style="opacity:0.02;" d="M47,135c-7.168,0-13-5.832-13-13V93.223c0-5.623,3.545-12.644,8.072-15.981l20.453-11.929
			c2.113-1.576,4.021-2.312,6-2.312c1.943,0,3.689,0.72,5.051,2.081c1.652,1.655,2.422,3.888,2.418,7.024L76,122
			c0,7.168-5.832,13-13,13H47z"/>
		<path style="opacity:0.02;" d="M47,134c-6.617,0-12-5.383-12-12V93.223c0-5.34,3.367-12.007,7.666-15.177l20.453-11.929
			C65.053,64.674,66.773,64,68.525,64c1.672,0,3.174,0.618,4.344,1.788c1.453,1.456,2.129,3.463,2.125,6.316L75,122
			c0,6.617-5.383,12-12,12H47z"/>
		<path style="opacity:0.03;" d="M47,133c-6.066,0-11-4.935-11-11V93.223c0-5.058,3.189-11.371,7.26-14.372l20.451-11.927
			C65.469,65.612,67,65,68.525,65c1.402,0,2.658,0.518,3.637,1.495c1.254,1.256,1.836,3.038,1.832,5.608L74,122
			c0,6.065-4.936,11-11,11H47z"/>
		<path style="opacity:0.04;" d="M47,132c-5.514,0-10-4.486-10-10V93.223c0-4.774,3.01-10.734,6.854-13.567l20.451-11.927
			C65.883,66.551,67.227,66,68.525,66c1.131,0,2.143,0.416,2.93,1.202c1.053,1.056,1.543,2.612,1.539,4.899L73,122
			c0,5.514-4.486,10-10,10H47z"/>
		<path style="opacity:0.09;" d="M47,131c-4.963,0-9-4.037-9-9V93.223c0-4.491,2.832-10.098,6.447-12.763l20.449-11.925
			C66.299,67.488,67.453,67,68.525,67c0.859,0,1.627,0.314,2.223,0.909c0.854,0.855,1.25,2.188,1.246,4.191L72,122
			c0,4.963-4.037,9-9,9H47z"/>
		<path style="opacity:0.11;" d="M47,130c-4.412,0-8-3.589-8-8V93.223c0-4.138,2.709-9.502,6.041-11.958L65.49,69.34
			C66.713,68.428,67.68,68,68.525,68c0.588,0,1.111,0.213,1.514,0.615c0.654,0.656,0.959,1.763,0.955,3.484L71,122
			c0,4.411-3.59,8-8,8H47z"/>
		<path style="opacity:0.12;" d="M69.994,72.098c0.006-3.36-1.238-3.947-3.912-1.951L45.635,82.07
			C42.535,84.354,40,89.373,40,93.223V122c0,3.85,3.15,7,7,7h16c3.85,0,7-3.15,7-7L69.994,72.098z"/>
		
			<linearGradient id="SVGID_4_" gradientUnits="userSpaceOnUse" x1="88" y1="62.6577" x2="88" y2="127.7058" gradientTransform="matrix(-1 0 0 1 143 0)">
			<stop  offset="0" style="stop-color:#FFFFFF"/>
			<stop  offset="0.5542" style="stop-color:#F9FAFA"/>
			<stop  offset="1" style="stop-color:#F0F1F2"/>
		</linearGradient>
		<path style="fill:url(#SVGID_4_);" d="M71,63.493V120c0,4.4-3.389,8-7.529,8H46.529c-4.143,0-7.529-3.6-7.529-8V89.493
			c0-4.4,3.029-8.485,7.529-11L71,63.493z"/>
		<rect x="32" y="60" style="opacity:0;fill:#FFFFFF;" width="46" height="77"/>
	</g>
</g>
</svg>
