<?xml version="1.0" encoding="iso-8859-1"?>
<!-- Generator: Adobe Illustrator 15.0.2, SVG Export Plug-In . SVG Version: 6.00 Build 0)  -->
<!DOCTYPE svg PUBLIC "-//W3C//DTD SVG 1.1//EN" "http://www.w3.org/Graphics/SVG/1.1/DTD/svg11.dtd">
<svg version="1.1" id="meegotouch-text-frame-layer"
	 xmlns="http://www.w3.org/2000/svg" xmlns:xlink="http://www.w3.org/1999/xlink" x="0px" y="0px" width="410px" height="190px"
	 viewBox="0 0 410 190" style="enable-background:new 0 0 410 190;" xml:space="preserve">
<g id="meegotouch-text-frame">
	<g id="_x23_TextFrameHelper">
		<g>
			<path d="M222,189.5c-6.341,0-11.5-5.159-11.5-11.5V12c0-6.341,5.159-11.5,11.5-11.5h176c6.341,0,11.5,5.159,11.5,11.5v166
				c0,6.341-5.159,11.5-11.5,11.5H222z"/>
			<g>
				<path style="fill:#A6A8AB;" d="M398,1c6.065,0,11,4.935,11,11v166c0,6.065-4.935,11-11,11H222c-6.065,0-11-4.935-11-11V12
					c0-6.065,4.935-11,11-11H398 M398,0H222c-6.6,0-12,5.4-12,12v166c0,6.6,5.4,12,12,12h176c6.6,0,12-5.4,12-12V12
					C410,5.4,404.6,0,398,0L398,0z"/>
			</g>
		</g>
		<g>
			<path style="fill:#F0F0F1;" d="M12,189.5c-6.341,0-11.5-5.159-11.5-11.5V12C0.5,5.659,5.659,0.5,12,0.5h176
				c6.341,0,11.5,5.159,11.5,11.5v166c0,6.341-5.159,11.5-11.5,11.5H12z"/>
			<path style="fill:#929497;" d="M188,1c6.065,0,11,4.935,11,11v166c0,6.065-4.935,11-11,11H12c-6.065,0-11-4.935-11-11V12
				C1,5.935,5.935,1,12,1H188 M188,0H12C5.4,0,0,5.4,0,12v166c0,6.6,5.4,12,12,12h176c6.6,0,12-5.4,12-12V12C200,5.4,194.6,0,188,0
				L188,0z"/>
		</g>
		<g>
			<path style="fill:#FFFFFF;" d="M252.676,13.036h-2.929v10.788h-1.089V13.036h-2.93v-0.864h6.946L252.676,13.036L252.676,13.036z"
				/>
			<path style="fill:#FFFFFF;" d="M258.468,23.584c-0.752,0.24-1.553,0.368-2.353,0.368c-2.771,0-3.441-2.272-3.441-4.658
				c0-2.049,0.752-4.657,3.249-4.657c2.737,0,2.865,2.85,2.865,4.897h-5.042c0.016,1.889,0.527,3.586,2.433,3.586
				c0.802,0,1.554-0.146,2.289-0.353V23.584z M257.764,18.734c0-1.232-0.176-3.267-1.824-3.267c-1.744,0-2.064,1.89-2.16,3.267
				H257.764z"/>
			<path style="fill:#FFFFFF;" d="M266.452,23.824h-1.169l-2.192-3.874l-2.289,3.874h-1.057l2.85-4.674l-2.528-4.387h1.137l2,3.586
				l2.049-3.586h1.057l-2.593,4.37L266.452,23.824z"/>
			<path style="fill:#FFFFFF;" d="M271.667,23.696c-0.479,0.128-1.12,0.256-1.665,0.256c-1.408,0-1.809-0.832-1.809-1.984v-6.37
				h-1.008v-0.832h0.976l0.319-1.697h0.754v1.697h2.191v0.832h-2.191v6.178c0,0.77,0.096,1.346,0.959,1.346
				c0.48,0,0.961-0.098,1.474-0.24V23.696z"/>
			<path style="fill:#FFFFFF;" d="M281.105,12.332c-0.416-0.112-0.752-0.177-1.168-0.177c-1.217,0-1.425,0.655-1.425,2.608h1.745
				v0.832h-1.745v8.229h-1.04v-8.229h-1.217v-0.832h1.217c0-1.969,0.256-3.44,2.32-3.44c0.528,0,0.913,0.048,1.312,0.159V12.332
				L281.105,12.332z"/>
			<path style="fill:#FFFFFF;" d="M282.945,16.141c0.561-1.008,1.359-1.472,2.353-1.472c0.16,0,0.386,0.017,0.528,0.031v0.977
				c-0.191-0.016-0.399-0.032-0.656-0.032c-1.312,0-2.097,1.024-2.097,2.609v5.57h-1.04v-9.061h0.688L282.945,16.141z"/>
			<path style="fill:#FFFFFF;" d="M291.57,22.544c-0.576,0.912-1.408,1.408-2.514,1.408c-1.601,0-2.496-0.992-2.496-2.593
				c0-2.674,2.656-2.851,4.851-2.851v-0.977c0-1.36-0.497-2.064-1.745-2.064c-0.77,0-1.536,0.112-2.354,0.384v-0.848
				c0.816-0.24,1.664-0.368,2.434-0.368c1.793,0,2.705,0.929,2.705,2.849v6.34h-0.672L291.57,22.544z M290.498,19.294
				c-1.424,0-2.881,0.385-2.881,2.065c0,1.104,0.561,1.761,1.648,1.761c1.168,0,2.146-0.944,2.146-2.435v-1.393L290.498,19.294
				L290.498,19.294z"/>
			<path style="fill:#FFFFFF;" d="M296.129,16.045c0.514-0.849,1.393-1.408,2.369-1.408c1.265,0,2.018,0.496,2.4,1.536
				c0.513-0.991,1.426-1.536,2.4-1.536c1.857,0,2.643,1.072,2.643,2.896v6.291H304.9v-5.746c0-0.944-0.08-1.473-0.305-1.873
				c-0.24-0.448-0.672-0.736-1.328-0.736c-1.537,0-2.16,1.329-2.16,2.674v5.683h-1.041v-5.763c0-0.896-0.08-1.377-0.271-1.776
				c-0.256-0.513-0.673-0.816-1.359-0.816c-1.537,0-2.162,1.329-2.162,2.673v5.684h-1.041v-9.061h0.688L296.129,16.045z"/>
			<path style="fill:#FFFFFF;" d="M314.051,23.584c-0.752,0.24-1.553,0.368-2.353,0.368c-2.771,0-3.441-2.272-3.441-4.658
				c0-2.049,0.752-4.657,3.249-4.657c2.737,0,2.865,2.85,2.865,4.897h-5.042c0.016,1.889,0.528,3.586,2.433,3.586
				c0.801,0,1.553-0.146,2.289-0.353V23.584z M313.347,18.734c0-1.232-0.176-3.267-1.825-3.267c-1.744,0-2.063,1.89-2.16,3.267
				H313.347z"/>
			<path style="fill:#FFFFFF;" d="M321.825,23.824h-1.041v-8.229h-1.04v-0.832h2.081V23.824z M321.297,13.484
				c-0.447,0-0.656-0.385-0.656-0.834c0-0.463,0.209-0.832,0.656-0.832c0.432,0,0.672,0.385,0.672,0.832
				C321.969,13.1,321.745,13.484,321.297,13.484z"/>
			<path style="fill:#FFFFFF;" d="M325.537,16.045c0.527-0.832,1.424-1.408,2.433-1.408c1.89,0,2.722,1.024,2.722,3.01v6.179h-1.041
				v-5.892c0-1.425-0.383-2.465-1.713-2.465c-1.553,0-2.256,1.266-2.256,2.674v5.683h-1.041v-9.06h0.688L325.537,16.045z"/>
			<path style="fill:#FFFFFF;" d="M339.091,14.766l-2.784,9.06h-1.281l-2.656-9.06h1.088l2.273,8.051l2.336-8.051H339.091z"/>
			<path style="fill:#FFFFFF;" d="M346.1,23.584c-0.754,0.24-1.554,0.368-2.354,0.368c-2.769,0-3.441-2.272-3.441-4.658
				c0-2.049,0.753-4.657,3.249-4.657c2.737,0,2.865,2.85,2.865,4.897h-5.042c0.017,1.889,0.528,3.586,2.435,3.586
				c0.799,0,1.553-0.146,2.289-0.353V23.584z M345.395,18.734c0-1.232-0.177-3.267-1.824-3.267c-1.745,0-2.065,1.89-2.161,3.267
				H345.395z"/>
			<path style="fill:#FFFFFF;" d="M349.648,16.141c0.56-1.008,1.359-1.472,2.353-1.472c0.16,0,0.385,0.017,0.528,0.031v0.977
				c-0.192-0.016-0.4-0.032-0.656-0.032c-1.312,0-2.098,1.024-2.098,2.609v5.57h-1.039v-9.061h0.688L349.648,16.141z"/>
			<path style="fill:#FFFFFF;" d="M357.905,23.696c-0.48,0.128-1.12,0.256-1.665,0.256c-1.408,0-1.809-0.832-1.809-1.984v-6.37
				h-1.009v-0.832h0.976l0.32-1.697h0.754v1.697h2.191v0.832h-2.191v6.178c0,0.77,0.096,1.346,0.959,1.346
				c0.48,0,0.961-0.098,1.474-0.24V23.696z"/>
			<path style="fill:#FFFFFF;" d="M364.754,23.584c-0.752,0.24-1.553,0.368-2.354,0.368c-2.77,0-3.441-2.272-3.441-4.658
				c0-2.049,0.753-4.657,3.25-4.657c2.736,0,2.865,2.85,2.865,4.897h-5.042c0.016,1.889,0.528,3.586,2.433,3.586
				c0.801,0,1.553-0.146,2.289-0.353V23.584z M364.05,18.734c0-1.232-0.177-3.267-1.825-3.267c-1.744,0-2.063,1.89-2.16,3.267
				H364.05z"/>
			<path style="fill:#FFFFFF;" d="M373.266,23.809h-0.672l-0.225-1.201c-0.608,0.961-1.312,1.346-2.385,1.346
				c-2.354,0-3.059-2.081-3.059-4.706c0-2.896,1.089-4.609,3.186-4.609c0.912,0,1.537,0.304,2.113,1.089v-4.273h1.041V23.809
				L373.266,23.809z M370.177,15.469c-1.713,0-2.161,1.713-2.161,3.762c0,2.146,0.48,3.891,2.113,3.891
				c2.08,0,2.16-2.225,2.16-3.874C372.289,17.357,372.049,15.469,370.177,15.469z"/>
		</g>
		<g>
			<path d="M72.372,13.036h-2.929v10.788h-1.088V13.036h-2.929v-0.864h6.947L72.372,13.036L72.372,13.036z"/>
			<path d="M78.163,23.584c-0.752,0.24-1.552,0.368-2.353,0.368c-2.77,0-3.441-2.272-3.441-4.658c0-2.049,0.752-4.657,3.249-4.657
				c2.737,0,2.865,2.85,2.865,4.897h-5.042c0.016,1.889,0.528,3.586,2.433,3.586c0.8,0,1.552-0.146,2.289-0.353V23.584z
				 M77.459,18.734c0-1.232-0.176-3.267-1.825-3.267c-1.745,0-2.065,1.89-2.161,3.267H77.459z"/>
			<path d="M86.147,23.824h-1.168l-2.193-3.874l-2.289,3.874H79.44l2.849-4.674l-2.529-4.387h1.137l2,3.586l2.049-3.586h1.057
				l-2.593,4.37L86.147,23.824z"/>
			<path d="M91.362,23.696c-0.48,0.128-1.121,0.256-1.665,0.256c-1.409,0-1.81-0.832-1.81-1.984v-6.37H86.88v-0.832h0.977
				l0.32-1.697h0.752v1.697h2.193v0.832h-2.193v6.178c0,0.77,0.096,1.346,0.96,1.346c0.48,0,0.96-0.098,1.473-0.24L91.362,23.696
				L91.362,23.696z"/>
			<path d="M100.802,12.332c-0.417-0.112-0.752-0.177-1.168-0.177c-1.217,0-1.425,0.655-1.425,2.608h1.745v0.832h-1.745v8.229
				h-1.041v-8.229h-1.216v-0.832h1.216c0-1.969,0.256-3.44,2.321-3.44c0.528,0,0.912,0.048,1.312,0.159L100.802,12.332
				L100.802,12.332z"/>
			<path d="M102.641,16.141c0.561-1.008,1.361-1.472,2.353-1.472c0.16,0,0.384,0.017,0.528,0.031v0.977
				c-0.192-0.016-0.4-0.032-0.656-0.032c-1.312,0-2.097,1.024-2.097,2.609v5.57h-1.04v-9.061h0.688L102.641,16.141z"/>
			<path d="M111.266,22.544c-0.576,0.912-1.408,1.408-2.513,1.408c-1.601,0-2.497-0.992-2.497-2.593c0-2.674,2.657-2.851,4.85-2.851
				v-0.977c0-1.36-0.497-2.064-1.745-2.064c-0.768,0-1.537,0.112-2.353,0.384v-0.848c0.816-0.24,1.665-0.368,2.433-0.368
				c1.793,0,2.705,0.929,2.705,2.849v6.34h-0.672L111.266,22.544z M110.194,19.294c-1.425,0-2.881,0.385-2.881,2.065
				c0,1.104,0.561,1.761,1.649,1.761c1.168,0,2.145-0.944,2.145-2.435v-1.393L110.194,19.294L110.194,19.294z"/>
			<path d="M115.825,16.045c0.512-0.849,1.393-1.408,2.369-1.408c1.264,0,2.017,0.496,2.401,1.536
				c0.512-0.991,1.424-1.536,2.401-1.536c1.857,0,2.641,1.072,2.641,2.896v6.291h-1.041v-5.746c0-0.944-0.08-1.473-0.304-1.873
				c-0.24-0.448-0.672-0.736-1.329-0.736c-1.537,0-2.161,1.329-2.161,2.674v5.683h-1.041v-5.763c0-0.896-0.08-1.377-0.271-1.776
				c-0.256-0.513-0.672-0.816-1.36-0.816c-1.537,0-2.161,1.329-2.161,2.673v5.684h-1.041v-9.061h0.688L115.825,16.045z"/>
			<path d="M133.746,23.584c-0.752,0.24-1.552,0.368-2.353,0.368c-2.77,0-3.441-2.272-3.441-4.658c0-2.049,0.752-4.657,3.249-4.657
				c2.737,0,2.865,2.85,2.865,4.897h-5.042c0.016,1.889,0.528,3.586,2.433,3.586c0.8,0,1.552-0.146,2.289-0.353V23.584z
				 M133.042,18.734c0-1.232-0.176-3.267-1.825-3.267c-1.745,0-2.065,1.89-2.161,3.267H133.042z"/>
		</g>
	</g>
	<g id="meegotouch-text-frame-inverted-background">
		<g style="opacity:0.2;">
			<path style="fill:#FFFFFF;" d="M336,51c2.757,0,5,2.243,5,5v52c0,2.757-2.243,5-5,5h-52c-2.757,0-5-2.243-5-5V56
				c0-2.757,2.243-5,5-5H336 M336,50h-52c-3.3,0-6,2.7-6,6v52c0,3.3,2.7,6,6,6h52c3.3,0,6-2.7,6-6V56C342,52.7,339.3,50,336,50
				L336,50z"/>
		</g>
	</g>
	<g id="meegotouch-text-frame-background">
		<g style="opacity:0.2;">
			<path d="M108,51c2.757,0,5,2.243,5,5v52c0,2.757-2.243,5-5,5H56c-2.757,0-5-2.243-5-5V56c0-2.757,2.243-5,5-5H108 M108,50H56
				c-3.3,0-6,2.7-6,6v52c0,3.3,2.7,6,6,6h52c3.3,0,6-2.7,6-6V56C114,52.7,111.3,50,108,50L108,50z"/>
		</g>
	</g>
</g>
</svg>
