<?xml version="1.0" encoding="iso-8859-1"?>
<!-- Generator: Adobe Illustrator 15.0.1, SVG Export Plug-In . SVG Version: 6.00 Build 0)  -->
<!DOCTYPE svg PUBLIC "-//W3C//DTD SVG 1.1//EN" "http://www.w3.org/Graphics/SVG/1.1/DTD/svg11.dtd">
<svg version="1.1" id="meegotouch-separator-layer" xmlns="http://www.w3.org/2000/svg" xmlns:xlink="http://www.w3.org/1999/xlink"
	 x="0px" y="0px" width="410px" height="190px" viewBox="0 0 410 190" style="enable-background:new 0 0 410 190;"
	 xml:space="preserve">
<g id="meegotouch-separator">
	<g id="_x23_SeparatorThemeHelper">
		<g>
			<path d="M222,189.5c-6.341,0-11.5-5.159-11.5-11.5V12c0-6.341,5.159-11.5,11.5-11.5h176c6.341,0,11.5,5.159,11.5,11.5v166
				c0,6.341-5.159,11.5-11.5,11.5H222z"/>
			<g>
				<path style="fill:#A5A7AA;" d="M398,1c6.065,0,11,4.935,11,11v166c0,6.065-4.935,11-11,11H222c-6.065,0-11-4.935-11-11V12
					c0-6.065,4.935-11,11-11H398 M398,0H222c-6.6,0-12,5.4-12,12v166c0,6.6,5.4,12,12,12h176c6.6,0,12-5.4,12-12V12
					C410,5.4,404.6,0,398,0L398,0z"/>
			</g>
		</g>
		<g>
			<path style="fill:#EFEFF0;" d="M12,189.5c-6.341,0-11.5-5.159-11.5-11.5V12C0.5,5.659,5.659,0.5,12,0.5h176
				c6.341,0,11.5,5.159,11.5,11.5v166c0,6.341-5.159,11.5-11.5,11.5H12z"/>
			<path style="fill:#919396;" d="M188,1c6.065,0,11,4.935,11,11v166c0,6.065-4.935,11-11,11H12c-6.065,0-11-4.935-11-11V12
				C1,5.935,5.935,1,12,1H188 M188,0H12C5.4,0,0,5.4,0,12v166c0,6.6,5.4,12,12,12h176c6.6,0,12-5.4,12-12V12C200,5.4,194.6,0,188,0
				L188,0z"/>
		</g>
		<g>
			<path style="fill:#FFFFFF;" d="M247.283,53.542c-0.596-0.126-1.262-0.27-2.09-0.27c-1.781,0-2.629,0.864-2.629,2.178
				c0,1.296,0.793,1.963,2.252,2.809c1.908,1.117,3.006,2.07,3.006,3.871c0,2.269-1.367,3.565-4.086,3.565
				c-0.973,0-1.729-0.144-2.449-0.342v-1.026c0.721,0.198,1.459,0.396,2.484,0.396c1.963,0,2.791-0.882,2.791-2.395
				c0-1.422-0.9-2.07-2.467-3.025c-1.621-0.99-2.773-1.89-2.773-3.709c0-2.232,1.621-3.295,3.836-3.295
				c0.828,0,1.584,0.126,2.125,0.252V53.542z"/>
			<path style="fill:#FFFFFF;" d="M256.176,65.282c-0.848,0.27-1.748,0.414-2.648,0.414c-3.113,0-3.871-2.557-3.871-5.24
				c0-2.305,0.848-5.239,3.656-5.239c3.078,0,3.223,3.205,3.223,5.509h-5.672c0.018,2.125,0.594,4.033,2.736,4.033
				c0.9,0,1.746-0.162,2.576-0.396V65.282z M255.383,59.826c0-1.387-0.199-3.673-2.053-3.673c-1.963,0-2.322,2.125-2.432,3.673
				H255.383z"/>
			<path style="fill:#FFFFFF;" d="M260.15,56.729c0.686-1.027,1.621-1.513,2.719-1.513c2.9,0,3.387,2.701,3.387,5.078
				c0,3.205-1.135,5.347-4.287,5.347c-0.467,0-1.295-0.108-1.656-0.198v3.043h-1.17V55.361h0.775L260.15,56.729z M260.312,64.454
				c0.486,0.144,1.08,0.252,1.693,0.252c2.682,0,3.025-2.323,3.025-4.519c0-1.945-0.396-4.034-2.324-4.034
				c-1.584,0-2.395,1.134-2.395,3.421V64.454z"/>
			<path style="fill:#FFFFFF;" d="M273.832,64.111c-0.648,1.026-1.584,1.584-2.826,1.584c-1.801,0-2.809-1.116-2.809-2.917
				c0-3.006,2.988-3.205,5.455-3.205v-1.098c0-1.53-0.559-2.323-1.963-2.323c-0.863,0-1.729,0.126-2.646,0.433v-0.955
				c0.918-0.27,1.873-0.414,2.736-0.414c2.018,0,3.043,1.044,3.043,3.205v7.13h-0.756L273.832,64.111z M272.625,60.456
				c-1.602,0-3.24,0.432-3.24,2.323c0,1.243,0.631,1.98,1.855,1.98c1.314,0,2.412-1.062,2.412-2.736v-1.567H272.625z"/>
			<path style="fill:#FFFFFF;" d="M278.979,56.909c0.631-1.134,1.531-1.657,2.646-1.657c0.18,0,0.434,0.018,0.596,0.036v1.099
				c-0.217-0.018-0.451-0.036-0.738-0.036c-1.477,0-2.359,1.152-2.359,2.935v6.266h-1.17V55.361h0.773L278.979,56.909z"/>
			<path style="fill:#FFFFFF;" d="M288.682,64.111c-0.648,1.026-1.584,1.584-2.826,1.584c-1.801,0-2.809-1.116-2.809-2.917
				c0-3.006,2.988-3.205,5.455-3.205v-1.098c0-1.53-0.559-2.323-1.963-2.323c-0.863,0-1.729,0.126-2.646,0.433v-0.955
				c0.918-0.27,1.873-0.414,2.736-0.414c2.018,0,3.043,1.044,3.043,3.205v7.13h-0.756L288.682,64.111z M287.477,60.456
				c-1.604,0-3.242,0.432-3.242,2.323c0,1.243,0.631,1.98,1.855,1.98c1.314,0,2.412-1.062,2.412-2.736v-1.567H287.477z"/>
			<path style="fill:#FFFFFF;" d="M296.854,65.408c-0.541,0.144-1.26,0.288-1.873,0.288c-1.584,0-2.033-0.937-2.033-2.232v-7.167
				h-1.135v-0.936h1.098l0.361-1.909h0.846v1.909h2.467v0.936h-2.467v6.95c0,0.864,0.107,1.512,1.08,1.512
				c0.539,0,1.08-0.108,1.656-0.27V65.408z"/>
			<path style="fill:#FFFFFF;" d="M301.803,65.696c-3.096,0-3.762-2.845-3.762-5.401c0-2.467,0.936-5.078,3.762-5.078
				c2.881,0,3.764,2.593,3.764,5.078C305.566,63.013,304.773,65.696,301.803,65.696z M301.803,56.153
				c-2.195,0-2.539,2.413-2.539,4.142c0,1.71,0.307,4.465,2.576,4.465c2.377,0,2.502-2.701,2.502-4.537
				C304.342,58.638,303.893,56.153,301.803,56.153z"/>
			<path style="fill:#FFFFFF;" d="M309.236,56.909c0.631-1.134,1.531-1.657,2.646-1.657c0.18,0,0.432,0.018,0.594,0.036v1.099
				c-0.215-0.018-0.449-0.036-0.738-0.036c-1.475,0-2.357,1.152-2.357,2.935v6.266h-1.17V55.361h0.773L309.236,56.909z"/>
			<path style="fill:#FFFFFF;" d="M320.252,65.552h-1.17v-9.255h-1.17v-0.936h2.34V65.552z M319.658,53.92
				c-0.504,0-0.738-0.432-0.738-0.937c0-0.522,0.234-0.936,0.738-0.936c0.486,0,0.756,0.432,0.756,0.936
				C320.414,53.488,320.162,53.92,319.658,53.92z"/>
			<path style="fill:#FFFFFF;" d="M324.428,56.801c0.594-0.937,1.604-1.584,2.736-1.584c2.125,0,3.062,1.152,3.062,3.385v6.95
				h-1.172v-6.626c0-1.603-0.432-2.773-1.926-2.773c-1.746,0-2.539,1.422-2.539,3.007v6.392h-1.17V55.361h0.773L324.428,56.801z"/>
			<path style="fill:#FFFFFF;" d="M339.676,55.361l-3.133,10.191h-1.441l-2.988-10.191h1.225l2.557,9.057l2.629-9.057H339.676z"/>
			<path style="fill:#FFFFFF;" d="M347.559,65.282c-0.846,0.27-1.746,0.414-2.646,0.414c-3.115,0-3.871-2.557-3.871-5.24
				c0-2.305,0.846-5.239,3.656-5.239c3.078,0,3.223,3.205,3.223,5.509h-5.672c0.018,2.125,0.594,4.033,2.736,4.033
				c0.9,0,1.746-0.162,2.574-0.396V65.282z M346.768,59.826c0-1.387-0.199-3.673-2.053-3.673c-1.963,0-2.322,2.125-2.432,3.673
				H346.768z"/>
			<path style="fill:#FFFFFF;" d="M351.553,56.909c0.631-1.134,1.531-1.657,2.648-1.657c0.18,0,0.432,0.018,0.594,0.036v1.099
				c-0.217-0.018-0.451-0.036-0.738-0.036c-1.477,0-2.359,1.152-2.359,2.935v6.266h-1.17V55.361h0.773L351.553,56.909z"/>
			<path style="fill:#FFFFFF;" d="M360.842,65.408c-0.539,0.144-1.26,0.288-1.871,0.288c-1.586,0-2.035-0.937-2.035-2.232v-7.167
				h-1.135v-0.936h1.098l0.361-1.909h0.846v1.909h2.467v0.936h-2.467v6.95c0,0.864,0.107,1.512,1.08,1.512
				c0.541,0,1.08-0.108,1.656-0.27V65.408z"/>
			<path style="fill:#FFFFFF;" d="M368.547,65.282c-0.846,0.27-1.746,0.414-2.646,0.414c-3.115,0-3.871-2.557-3.871-5.24
				c0-2.305,0.846-5.239,3.654-5.239c3.08,0,3.223,3.205,3.223,5.509h-5.672c0.02,2.125,0.596,4.033,2.738,4.033
				c0.9,0,1.746-0.162,2.574-0.396V65.282z M367.754,59.826c0-1.387-0.197-3.673-2.053-3.673c-1.961,0-2.322,2.125-2.43,3.673
				H367.754z"/>
			<path style="fill:#FFFFFF;" d="M378.123,65.534h-0.756l-0.252-1.351c-0.686,1.081-1.477,1.513-2.684,1.513
				c-2.646,0-3.439-2.34-3.439-5.293c0-3.259,1.225-5.186,3.584-5.186c1.025,0,1.729,0.342,2.377,1.224v-4.807h1.17V65.534z
				 M374.648,56.153c-1.928,0-2.432,1.927-2.432,4.231c0,2.413,0.541,4.375,2.377,4.375c2.34,0,2.432-2.502,2.432-4.357
				C377.025,58.278,376.754,56.153,374.648,56.153z"/>
		</g>
		<g>
			<path d="M70.69,53.542c-0.594-0.126-1.26-0.27-2.088-0.27c-1.783,0-2.629,0.864-2.629,2.178c0,1.296,0.792,1.963,2.25,2.809
				c1.909,1.117,3.007,2.07,3.007,3.871c0,2.269-1.368,3.565-4.087,3.565c-0.972,0-1.729-0.144-2.449-0.342v-1.026
				c0.72,0.198,1.458,0.396,2.485,0.396c1.962,0,2.791-0.882,2.791-2.395c0-1.422-0.9-2.07-2.467-3.025
				c-1.621-0.99-2.772-1.89-2.772-3.709c0-2.232,1.62-3.295,3.835-3.295c0.828,0,1.584,0.126,2.125,0.252V53.542z"/>
			<path d="M79.582,65.282c-0.846,0.27-1.747,0.414-2.646,0.414c-3.115,0-3.871-2.557-3.871-5.24c0-2.305,0.846-5.239,3.655-5.239
				c3.079,0,3.223,3.205,3.223,5.509h-5.672c0.018,2.125,0.594,4.033,2.737,4.033c0.9,0,1.747-0.162,2.575-0.396V65.282z
				 M78.79,59.826c0-1.387-0.198-3.673-2.053-3.673c-1.962,0-2.323,2.125-2.431,3.673H78.79z"/>
			<path d="M83.559,56.729c0.684-1.027,1.621-1.513,2.719-1.513c2.899,0,3.385,2.701,3.385,5.078c0,3.205-1.134,5.347-4.285,5.347
				c-0.468,0-1.296-0.108-1.656-0.198v3.043h-1.17V55.361h0.774L83.559,56.729z M83.721,64.454c0.486,0.144,1.08,0.252,1.692,0.252
				c2.683,0,3.025-2.323,3.025-4.519c0-1.945-0.396-4.034-2.323-4.034c-1.584,0-2.395,1.134-2.395,3.421V64.454z"/>
			<path d="M97.24,64.111c-0.648,1.026-1.585,1.584-2.827,1.584c-1.8,0-2.809-1.116-2.809-2.917c0-3.006,2.989-3.205,5.456-3.205
				v-1.098c0-1.53-0.558-2.323-1.963-2.323c-0.864,0-1.729,0.126-2.646,0.433v-0.955c0.918-0.27,1.873-0.414,2.737-0.414
				c2.017,0,3.043,1.044,3.043,3.205v7.13h-0.756L97.24,64.111z M96.033,60.456c-1.603,0-3.241,0.432-3.241,2.323
				c0,1.243,0.63,1.98,1.854,1.98c1.314,0,2.413-1.062,2.413-2.736v-1.567H96.033z"/>
			<path d="M102.386,56.909c0.63-1.134,1.53-1.657,2.647-1.657c0.18,0,0.432,0.018,0.594,0.036v1.099
				c-0.216-0.018-0.45-0.036-0.738-0.036c-1.476,0-2.358,1.152-2.358,2.935v6.266h-1.17V55.361h0.774L102.386,56.909z"/>
			<path d="M112.089,64.111c-0.648,1.026-1.584,1.584-2.827,1.584c-1.801,0-2.809-1.116-2.809-2.917
				c0-3.006,2.989-3.205,5.456-3.205v-1.098c0-1.53-0.558-2.323-1.962-2.323c-0.864,0-1.729,0.126-2.647,0.433v-0.955
				c0.918-0.27,1.873-0.414,2.737-0.414c2.017,0,3.043,1.044,3.043,3.205v7.13h-0.756L112.089,64.111z M110.883,60.456
				c-1.603,0-3.241,0.432-3.241,2.323c0,1.243,0.63,1.98,1.854,1.98c1.314,0,2.413-1.062,2.413-2.736v-1.567H110.883z"/>
			<path d="M120.261,65.408c-0.541,0.144-1.261,0.288-1.873,0.288c-1.584,0-2.035-0.937-2.035-2.232v-7.167h-1.135v-0.936h1.099
				l0.36-1.909h0.846v1.909h2.467v0.936h-2.467v6.95c0,0.864,0.108,1.512,1.081,1.512c0.54,0,1.081-0.108,1.657-0.27V65.408z"/>
			<path d="M125.21,65.696c-3.097,0-3.763-2.845-3.763-5.401c0-2.467,0.936-5.078,3.763-5.078c2.881,0,3.763,2.593,3.763,5.078
				C128.974,63.013,128.182,65.696,125.21,65.696z M125.21,56.153c-2.196,0-2.539,2.413-2.539,4.142c0,1.71,0.306,4.465,2.575,4.465
				c2.377,0,2.503-2.701,2.503-4.537C127.75,58.638,127.299,56.153,125.21,56.153z"/>
			<path d="M132.644,56.909c0.63-1.134,1.53-1.657,2.646-1.657c0.18,0,0.432,0.018,0.594,0.036v1.099
				c-0.216-0.018-0.45-0.036-0.738-0.036c-1.476,0-2.358,1.152-2.358,2.935v6.266h-1.17V55.361h0.774L132.644,56.909z"/>
		</g>
	</g>
	<g id="meegotouch-container-header-divider-inverted-background">
		<rect x="330" y="110" style="opacity:0;" width="20" height="9"/>
		<rect x="330" y="115" style="opacity:0.05;fill:#FFFFFF;" width="20" height="36"/>
		<rect x="330" y="114" style="opacity:0.2;fill:#FFFFFF;" width="20" height="1"/>
		<polygon style="fill:#333333;" points="335,115.166 330,117 330,112 335,114 		"/>
		<polygon style="fill:#333333;" points="345,115.166 350,117 350,112 345,114 		"/>
	</g>
	<g id="meegotouch-separator-inverted-background-vertical">
		<rect x="304" y="130" style="opacity:0.2;fill:#FFFFFF;enable-background:new    ;" width="1" height="20"/>
	</g>
	<g id="meegotouch-separator-inverted-background-horizontal">
		<rect x="300" y="124.166" style="opacity:0.2;fill:#FFFFFF;enable-background:new    ;" width="20" height="1"/>
	</g>
	<g id="meegotouch-groupseparator-header-inverted-background-horizontal">
		<rect x="300" y="110.166" style="opacity:0;" width="20" height="9"/>
		<rect x="300" y="115.166" style="opacity:0.05;fill:#FFFFFF;" width="20" height="4"/>
		<rect x="305" y="114.166" style="fill:#333333;" width="10" height="1"/>
		<polygon style="fill:#333333;enable-background:new    ;" points="305,115.166 300,117.166 300,112.166 305,114.166 		"/>
		<polygon style="fill:#333333;enable-background:new    ;" points="320,117.166 315,115.166 315,114.166 320,112.166 		"/>
	</g>
	<g id="meegotouch-groupseparator-inverted-background-horizontal">
		<rect x="300" y="100.166" style="opacity:0;" width="20" height="9"/>
		<rect x="305" y="104.166" style="fill:#333333;enable-background:new    ;" width="10" height="1"/>
		<polygon style="fill:#333333;enable-background:new    ;" points="305,105.166 300,107.166 300,102.166 305,104.166 		"/>
		<polygon style="fill:#333333;enable-background:new    ;" points="320,107.166 315,105.166 315,104.166 320,102.166 		"/>
	</g>
	<g id="meegotouch-container-header-divider-background">
		<rect x="140" y="110" style="opacity:0;fill:#FFFFFF;" width="20" height="9"/>
		<rect x="140" y="115" style="opacity:0.05;" width="20" height="36"/>
		<rect x="140" y="114" style="opacity:0.2;enable-background:new    ;" width="20" height="1"/>
		<polygon points="145,115 140,117 140,112 145,114 		"/>
		<polygon points="160,117 155,115 155,114 160,112 		"/>
	</g>
	<g id="meegotouch-separator-background-vertical">
		<rect x="104" y="130" width="1" height="20"/>
	</g>
	<g id="meegotouch-separator-background-horizontal">
		<rect x="100" y="124" width="20" height="1"/>
	</g>
	<g id="meegotouch-groupseparator-header-background-horizontal">
		<rect x="100" y="110" style="opacity:0;fill:#FFFFFF;" width="20" height="9"/>
		<rect x="100" y="115" style="opacity:0.05;" width="20" height="4"/>
		<rect x="100" y="114" style="opacity:0.2;enable-background:new    ;" width="20" height="1"/>
		<polygon points="105,115 100,117 100,112 105,114 		"/>
		<polygon points="120,117 115,115 115,114 120,112 		"/>
	</g>
	<g id="meegotouch-groupseparator-background-horizontal">
		<rect x="100" y="100" style="opacity:0;fill:#FFFFFF;" width="20" height="9"/>
		<rect x="100" y="104" style="opacity:0.2;enable-background:new    ;" width="20" height="1"/>
		<polygon points="105,105 100,107 100,102 105,104 		"/>
		<polygon points="120,107 115,105 115,104 120,102 		"/>
	</g>
</g>
</svg>
