<?xml version="1.0" encoding="iso-8859-1"?>
<!-- Generator: Adobe Illustrator 15.0.2, SVG Export Plug-In . SVG Version: 6.00 Build 0)  -->
<!DOCTYPE svg PUBLIC "-//W3C//DTD SVG 1.1//EN" "http://www.w3.org/Graphics/SVG/1.1/DTD/svg11.dtd">
<svg version="1.1" id="meegotouch-list-layer" xmlns="http://www.w3.org/2000/svg" xmlns:xlink="http://www.w3.org/1999/xlink"
	 x="0px" y="0px" width="4010px" height="790px" viewBox="0 0 4010 790" style="enable-background:new 0 0 4010 790;"
	 xml:space="preserve">
<g id="meegotouch-list">
	<g id="_x23_ListItemThemeHelper">
		<g>
			<path style="fill:#F0EFF0;" d="M12,789.5c-6.341,0-11.5-5.159-11.5-11.5V12C0.5,5.659,5.659,0.5,12,0.5h1976
				c6.341,0,11.5,5.159,11.5,11.5v766c0,6.341-5.159,11.5-11.5,11.5H12z"/>
			<g>
				<path style="fill:#919395;" d="M1988,1c6.065,0,11,4.935,11,11v766c0,6.065-4.935,11-11,11H12c-6.065,0-11-4.935-11-11V12
					C1,5.935,5.935,1,12,1H1988 M1988,0H12C5.4,0,0,5.4,0,12v766c0,6.6,5.4,12,12,12h1976c6.6,0,12-5.4,12-12V12
					C2000,5.4,1994.6,0,1988,0L1988,0z"/>
			</g>
		</g>
		<g>
			<path d="M771.115,25.871h3.167v21.633h10.367v2.629h-13.534V25.871z"/>
			<path d="M791.562,27.814c0,1.08-0.756,1.945-2.016,1.945c-1.152,0-1.908-0.865-1.908-1.945s0.792-1.979,1.979-1.979
				C790.771,25.836,791.562,26.699,791.562,27.814z M788.035,50.133V32.711h3.168v17.422H788.035z"/>
			<path d="M796.027,46.93c0.972,0.574,2.627,1.223,4.211,1.223c2.268,0,3.348-1.115,3.348-2.592c0-1.512-0.9-2.303-3.204-3.168
				c-3.167-1.15-4.644-2.844-4.644-4.932c0-2.807,2.304-5.111,6.011-5.111c1.764,0,3.312,0.469,4.248,1.08l-0.756,2.305
				c-0.684-0.432-1.944-1.045-3.563-1.045c-1.872,0-2.88,1.08-2.88,2.377c0,1.439,1.008,2.088,3.276,2.986
				c2.987,1.117,4.571,2.629,4.571,5.221c0,3.096-2.412,5.254-6.479,5.254c-1.908,0-3.671-0.504-4.895-1.223L796.027,46.93z"/>
			<path d="M814.53,28.535v4.176h4.535v2.412h-4.535v9.395c0,2.158,0.612,3.383,2.375,3.383c0.864,0,1.368-0.072,1.836-0.215
				l0.144,2.41c-0.612,0.217-1.584,0.432-2.808,0.432c-1.476,0-2.664-0.504-3.42-1.33c-0.864-0.973-1.224-2.521-1.224-4.572v-9.502
				h-2.7v-2.412h2.7v-3.24L814.53,28.535z"/>
			<path d="M833.79,27.814c0,1.08-0.756,1.945-2.016,1.945c-1.152,0-1.908-0.865-1.908-1.945s0.792-1.979,1.979-1.979
				C832.998,25.836,833.79,26.699,833.79,27.814z M830.262,50.133V32.711h3.168v17.422H830.262z"/>
			<path d="M842.502,28.535v4.176h4.535v2.412h-4.535v9.395c0,2.158,0.612,3.383,2.375,3.383c0.864,0,1.368-0.072,1.836-0.215
				l0.144,2.41c-0.612,0.217-1.584,0.432-2.808,0.432c-1.476,0-2.664-0.504-3.42-1.33c-0.864-0.973-1.224-2.521-1.224-4.572v-9.502
				h-2.7v-2.412h2.7v-3.24L842.502,28.535z"/>
			<path d="M852.15,41.998c0.072,4.283,2.771,6.047,5.975,6.047c2.268,0,3.671-0.396,4.823-0.9l0.576,2.268
				c-1.116,0.504-3.06,1.115-5.832,1.115c-5.363,0-8.567-3.562-8.567-8.818s3.096-9.359,8.171-9.359
				c5.724,0,7.199,4.969,7.199,8.172c0,0.648-0.036,1.115-0.108,1.477H852.15z M861.437,39.73c0.036-1.98-0.828-5.111-4.392-5.111
				c-3.239,0-4.607,2.914-4.859,5.111H861.437z"/>
			<path d="M868.422,37.426c0-1.836-0.072-3.275-0.144-4.715h2.771l0.144,2.844h0.108c0.972-1.656,2.592-3.205,5.507-3.205
				c2.34,0,4.14,1.441,4.896,3.492h0.072c0.54-1.008,1.26-1.727,1.98-2.268c1.043-0.791,2.16-1.225,3.815-1.225
				c2.34,0,5.759,1.514,5.759,7.561v10.223h-3.096v-9.828c0-3.383-1.26-5.363-3.779-5.363c-1.836,0-3.204,1.332-3.78,2.844
				c-0.144,0.469-0.252,1.008-0.252,1.584v10.764h-3.096V39.693c0-2.771-1.224-4.752-3.635-4.752c-1.944,0-3.42,1.584-3.924,3.168
				c-0.18,0.432-0.252,1.008-0.252,1.549v10.475h-3.096V37.426z"/>
			<path d="M898.014,46.93c0.972,0.574,2.627,1.223,4.211,1.223c2.268,0,3.348-1.115,3.348-2.592c0-1.512-0.9-2.303-3.204-3.168
				c-3.167-1.15-4.644-2.844-4.644-4.932c0-2.807,2.304-5.111,6.011-5.111c1.764,0,3.312,0.469,4.248,1.08l-0.756,2.305
				c-0.684-0.432-1.944-1.045-3.563-1.045c-1.872,0-2.88,1.08-2.88,2.377c0,1.439,1.008,2.088,3.276,2.986
				c2.987,1.117,4.571,2.629,4.571,5.221c0,3.096-2.412,5.254-6.479,5.254c-1.908,0-3.671-0.504-4.895-1.223L898.014,46.93z"/>
			<path d="M932.572,45.957c0,1.512,0.072,2.988,0.252,4.176h-2.844l-0.252-2.195h-0.108c-0.972,1.367-2.844,2.59-5.327,2.59
				c-3.528,0-5.328-2.482-5.328-5.002c0-4.213,3.744-6.516,10.475-6.48v-0.359c0-1.404-0.396-4.031-3.959-3.996
				c-1.656,0-3.348,0.469-4.571,1.297l-0.72-2.123c1.439-0.9,3.563-1.514,5.759-1.514c5.327,0,6.623,3.637,6.623,7.092V45.957z
				 M929.513,41.242c-3.456-0.072-7.379,0.539-7.379,3.922c0,2.088,1.368,3.025,2.952,3.025c2.304,0,3.78-1.441,4.284-2.916
				c0.108-0.361,0.144-0.721,0.144-1.008V41.242z"/>
			<path d="M937.685,37.426c0-1.836-0.036-3.275-0.144-4.715h2.808l0.18,2.879h0.072c0.864-1.619,2.879-3.24,5.759-3.24
				c2.412,0,6.155,1.441,6.155,7.416v10.367h-3.168V40.09c0-2.809-1.044-5.148-4.031-5.148c-2.052,0-3.671,1.477-4.248,3.24
				c-0.144,0.396-0.216,0.936-0.216,1.477v10.475h-3.168V37.426z"/>
			<path d="M972.675,24.576v21.057c0,1.549,0.072,3.312,0.144,4.5h-2.808l-0.144-3.023h-0.108c-0.936,1.943-3.023,3.418-5.867,3.418
				c-4.211,0-7.487-3.562-7.487-8.854c-0.036-5.795,3.6-9.324,7.811-9.324c2.7,0,4.463,1.262,5.255,2.629h0.072V24.576H972.675z
				 M969.543,39.801c0-0.395-0.036-0.936-0.144-1.33c-0.468-1.98-2.196-3.637-4.571-3.637c-3.276,0-5.22,2.881-5.22,6.695
				c0,3.527,1.764,6.443,5.147,6.443c2.124,0,4.067-1.439,4.644-3.779c0.108-0.432,0.144-0.863,0.144-1.367V39.801z"/>
			<path d="M985.924,50.133v-15.01h-2.412v-2.412h2.412v-0.828c0-2.447,0.576-4.68,2.016-6.084c1.188-1.15,2.772-1.619,4.248-1.619
				c1.152,0,2.088,0.252,2.7,0.504l-0.432,2.447c-0.468-0.215-1.08-0.396-2.016-0.396c-2.7,0-3.384,2.34-3.384,5.041v0.936h4.212
				v2.412h-4.212v15.01H985.924z"/>
			<path d="M996.112,38.146c0-2.053-0.036-3.816-0.144-5.436h2.771l0.144,3.455h0.108c0.792-2.34,2.736-3.816,4.859-3.816
				c0.324,0,0.576,0.037,0.864,0.072v2.988c-0.324-0.072-0.648-0.072-1.08-0.072c-2.232,0-3.816,1.656-4.248,4.031
				c-0.072,0.432-0.108,0.973-0.108,1.477v9.287h-3.168V38.146z"/>
			<path d="M1019.943,45.957c0,1.512,0.072,2.988,0.252,4.176h-2.844l-0.252-2.195h-0.108c-0.972,1.367-2.844,2.59-5.327,2.59
				c-3.528,0-5.328-2.482-5.328-5.002c0-4.213,3.744-6.516,10.475-6.48v-0.359c0-1.404-0.396-4.031-3.959-3.996
				c-1.656,0-3.348,0.469-4.571,1.297l-0.72-2.123c1.439-0.9,3.563-1.514,5.759-1.514c5.327,0,6.623,3.637,6.623,7.092V45.957z
				 M1016.883,41.242c-3.456-0.072-7.379,0.539-7.379,3.922c0,2.088,1.368,3.025,2.952,3.025c2.304,0,3.78-1.441,4.284-2.916
				c0.108-0.361,0.144-0.721,0.144-1.008V41.242z"/>
			<path d="M1025.056,37.426c0-1.836-0.072-3.275-0.144-4.715h2.771l0.144,2.844h0.108c0.972-1.656,2.592-3.205,5.507-3.205
				c2.34,0,4.14,1.441,4.896,3.492h0.072c0.54-1.008,1.26-1.727,1.98-2.268c1.044-0.791,2.16-1.225,3.815-1.225
				c2.34,0,5.759,1.514,5.759,7.561v10.223h-3.096v-9.828c0-3.383-1.26-5.363-3.779-5.363c-1.836,0-3.204,1.332-3.78,2.844
				c-0.144,0.469-0.252,1.008-0.252,1.584v10.764h-3.096V39.693c0-2.771-1.224-4.752-3.635-4.752c-1.944,0-3.42,1.584-3.924,3.168
				c-0.18,0.432-0.252,1.008-0.252,1.549v10.475h-3.096V37.426z"/>
			<path d="M1056.844,41.998c0.072,4.283,2.771,6.047,5.975,6.047c2.268,0,3.671-0.396,4.823-0.9l0.576,2.268
				c-1.116,0.504-3.06,1.115-5.832,1.115c-5.363,0-8.567-3.562-8.567-8.818s3.096-9.359,8.171-9.359
				c5.724,0,7.199,4.969,7.199,8.172c0,0.648-0.036,1.115-0.108,1.477H1056.844z M1066.131,39.73
				c0.036-1.98-0.828-5.111-4.392-5.111c-3.239,0-4.607,2.914-4.859,5.111H1066.131z"/>
			<path d="M1088.126,24.576v21.057c0,1.549,0.072,3.312,0.144,4.5h-2.808l-0.144-3.023h-0.108
				c-0.936,1.943-3.023,3.418-5.867,3.418c-4.211,0-7.487-3.562-7.487-8.854c-0.036-5.795,3.6-9.324,7.811-9.324
				c2.7,0,4.463,1.262,5.255,2.629h0.072V24.576H1088.126z M1084.995,39.801c0-0.395-0.036-0.936-0.144-1.33
				c-0.468-1.98-2.196-3.637-4.571-3.637c-3.276,0-5.22,2.881-5.22,6.695c0,3.527,1.764,6.443,5.147,6.443
				c2.124,0,4.067-1.439,4.644-3.779c0.108-0.432,0.144-0.863,0.144-1.367V39.801z"/>
			<path d="M1101.051,24.576h3.168v25.557h-3.168V24.576z"/>
			<path d="M1113.075,27.814c0,1.08-0.756,1.945-2.016,1.945c-1.152,0-1.908-0.865-1.908-1.945s0.792-1.979,1.979-1.979
				C1112.283,25.836,1113.075,26.699,1113.075,27.814z M1109.547,50.133V32.711h3.168v17.422H1109.547z"/>
			<path d="M1117.539,46.93c0.972,0.574,2.627,1.223,4.211,1.223c2.268,0,3.348-1.115,3.348-2.592c0-1.512-0.9-2.303-3.204-3.168
				c-3.167-1.15-4.644-2.844-4.644-4.932c0-2.807,2.304-5.111,6.011-5.111c1.764,0,3.312,0.469,4.248,1.08l-0.756,2.305
				c-0.684-0.432-1.944-1.045-3.563-1.045c-1.872,0-2.88,1.08-2.88,2.377c0,1.439,1.008,2.088,3.276,2.986
				c2.987,1.117,4.571,2.629,4.571,5.221c0,3.096-2.412,5.254-6.479,5.254c-1.908,0-3.672-0.504-4.896-1.223L1117.539,46.93z"/>
			<path d="M1136.042,28.535v4.176h4.535v2.412h-4.535v9.395c0,2.158,0.612,3.383,2.375,3.383c0.864,0,1.368-0.072,1.836-0.215
				l0.144,2.41c-0.612,0.217-1.584,0.432-2.808,0.432c-1.476,0-2.664-0.504-3.42-1.33c-0.864-0.973-1.224-2.521-1.224-4.572v-9.502
				h-2.7v-2.412h2.7v-3.24L1136.042,28.535z"/>
			<path d="M1155.302,27.814c0,1.08-0.756,1.945-2.016,1.945c-1.152,0-1.908-0.865-1.908-1.945s0.792-1.979,1.979-1.979
				C1154.51,25.836,1155.302,26.699,1155.302,27.814z M1151.774,50.133V32.711h3.168v17.422H1151.774z"/>
			<path d="M1164.014,28.535v4.176h4.535v2.412h-4.535v9.395c0,2.158,0.612,3.383,2.375,3.383c0.864,0,1.368-0.072,1.836-0.215
				l0.144,2.41c-0.612,0.217-1.584,0.432-2.808,0.432c-1.476,0-2.664-0.504-3.42-1.33c-0.864-0.973-1.224-2.521-1.224-4.572v-9.502
				h-2.7v-2.412h2.7v-3.24L1164.014,28.535z"/>
			<path d="M1173.662,41.998c0.072,4.283,2.771,6.047,5.975,6.047c2.268,0,3.671-0.396,4.823-0.9l0.576,2.268
				c-1.116,0.504-3.06,1.115-5.832,1.115c-5.363,0-8.567-3.562-8.567-8.818s3.096-9.359,8.171-9.359
				c5.724,0,7.199,4.969,7.199,8.172c0,0.648-0.036,1.115-0.108,1.477H1173.662z M1182.949,39.73
				c0.036-1.98-0.828-5.111-4.392-5.111c-3.239,0-4.607,2.914-4.859,5.111H1182.949z"/>
			<path d="M1189.934,37.426c0-1.836-0.072-3.275-0.144-4.715h2.771l0.144,2.844h0.108c0.972-1.656,2.592-3.205,5.507-3.205
				c2.34,0,4.14,1.441,4.896,3.492h0.072c0.54-1.008,1.26-1.727,1.98-2.268c1.043-0.791,2.16-1.225,3.815-1.225
				c2.34,0,5.759,1.514,5.759,7.561v10.223h-3.096v-9.828c0-3.383-1.26-5.363-3.779-5.363c-1.836,0-3.204,1.332-3.78,2.844
				c-0.144,0.469-0.252,1.008-0.252,1.584v10.764h-3.096V39.693c0-2.771-1.224-4.752-3.635-4.752c-1.944,0-3.42,1.584-3.924,3.168
				c-0.18,0.432-0.252,1.008-0.252,1.549v10.475h-3.096V37.426z"/>
			<path d="M1219.526,46.93c0.972,0.574,2.627,1.223,4.211,1.223c2.268,0,3.348-1.115,3.348-2.592c0-1.512-0.9-2.303-3.204-3.168
				c-3.167-1.15-4.644-2.844-4.644-4.932c0-2.807,2.304-5.111,6.011-5.111c1.764,0,3.312,0.469,4.248,1.08l-0.756,2.305
				c-0.684-0.432-1.944-1.045-3.563-1.045c-1.872,0-2.88,1.08-2.88,2.377c0,1.439,1.008,2.088,3.276,2.986
				c2.987,1.117,4.571,2.629,4.571,5.221c0,3.096-2.412,5.254-6.479,5.254c-1.908,0-3.671-0.504-4.895-1.223L1219.526,46.93z"/>
		</g>
		<g>
			<path d="M4010,778c0,6.6-5.4,12-12,12H2022c-6.6,0-12-5.4-12-12V12c0-6.6,5.4-12,12-12h1976c6.6,0,12,5.4,12,12V778z"/>
		</g>
		<g>
			<path style="fill:#FFFFFF;" d="M2714.498,25.871h3.168v21.633h10.365v2.629h-13.533V25.871z"/>
			<path style="fill:#FFFFFF;" d="M2734.945,27.814c0,1.08-0.756,1.945-2.016,1.945c-1.152,0-1.908-0.865-1.908-1.945
				s0.791-1.979,1.98-1.979C2734.152,25.836,2734.945,26.699,2734.945,27.814z M2731.418,50.133V32.711h3.168v17.422H2731.418z"/>
			<path style="fill:#FFFFFF;" d="M2739.408,46.93c0.973,0.574,2.629,1.223,4.213,1.223c2.268,0,3.348-1.115,3.348-2.592
				c0-1.512-0.9-2.303-3.205-3.168c-3.166-1.15-4.643-2.844-4.643-4.932c0-2.807,2.303-5.111,6.012-5.111
				c1.764,0,3.311,0.469,4.246,1.08l-0.756,2.305c-0.684-0.432-1.943-1.045-3.562-1.045c-1.873,0-2.881,1.08-2.881,2.377
				c0,1.439,1.008,2.088,3.277,2.986c2.986,1.117,4.57,2.629,4.57,5.221c0,3.096-2.412,5.254-6.479,5.254
				c-1.908,0-3.672-0.504-4.896-1.223L2739.408,46.93z"/>
			<path style="fill:#FFFFFF;" d="M2757.912,28.535v4.176h4.535v2.412h-4.535v9.395c0,2.158,0.611,3.383,2.375,3.383
				c0.865,0,1.369-0.072,1.836-0.215l0.145,2.41c-0.611,0.217-1.584,0.432-2.807,0.432c-1.477,0-2.664-0.504-3.42-1.33
				c-0.865-0.973-1.225-2.521-1.225-4.572v-9.502h-2.699v-2.412h2.699v-3.24L2757.912,28.535z"/>
			<path style="fill:#FFFFFF;" d="M2777.172,27.814c0,1.08-0.756,1.945-2.016,1.945c-1.152,0-1.908-0.865-1.908-1.945
				s0.791-1.979,1.98-1.979C2776.379,25.836,2777.172,26.699,2777.172,27.814z M2773.645,50.133V32.711h3.168v17.422H2773.645z"/>
			<path style="fill:#FFFFFF;" d="M2785.883,28.535v4.176h4.535v2.412h-4.535v9.395c0,2.158,0.613,3.383,2.377,3.383
				c0.863,0,1.367-0.072,1.836-0.215l0.143,2.41c-0.611,0.217-1.584,0.432-2.807,0.432c-1.477,0-2.664-0.504-3.42-1.33
				c-0.863-0.973-1.225-2.521-1.225-4.572v-9.502h-2.699v-2.412h2.699v-3.24L2785.883,28.535z"/>
			<path style="fill:#FFFFFF;" d="M2795.531,41.998c0.072,4.283,2.771,6.047,5.977,6.047c2.268,0,3.67-0.396,4.822-0.9l0.576,2.268
				c-1.115,0.504-3.059,1.115-5.832,1.115c-5.363,0-8.566-3.562-8.566-8.818s3.096-9.359,8.172-9.359
				c5.723,0,7.199,4.969,7.199,8.172c0,0.648-0.037,1.115-0.109,1.477H2795.531z M2804.818,39.73
				c0.037-1.98-0.828-5.111-4.391-5.111c-3.24,0-4.607,2.914-4.859,5.111H2804.818z"/>
			<path style="fill:#FFFFFF;" d="M2811.803,37.426c0-1.836-0.07-3.275-0.143-4.715h2.771l0.145,2.844h0.107
				c0.971-1.656,2.592-3.205,5.508-3.205c2.34,0,4.139,1.441,4.895,3.492h0.072c0.539-1.008,1.26-1.727,1.98-2.268
				c1.043-0.791,2.158-1.225,3.814-1.225c2.34,0,5.76,1.514,5.76,7.561v10.223h-3.096v-9.828c0-3.383-1.26-5.363-3.779-5.363
				c-1.836,0-3.203,1.332-3.779,2.844c-0.145,0.469-0.252,1.008-0.252,1.584v10.764h-3.096V39.693c0-2.771-1.225-4.752-3.637-4.752
				c-1.943,0-3.42,1.584-3.924,3.168c-0.18,0.432-0.252,1.008-0.252,1.549v10.475h-3.096V37.426z"/>
			<path style="fill:#FFFFFF;" d="M2841.396,46.93c0.971,0.574,2.627,1.223,4.211,1.223c2.268,0,3.348-1.115,3.348-2.592
				c0-1.512-0.9-2.303-3.203-3.168c-3.168-1.15-4.645-2.844-4.645-4.932c0-2.807,2.305-5.111,6.012-5.111
				c1.764,0,3.311,0.469,4.248,1.08l-0.756,2.305c-0.686-0.432-1.945-1.045-3.564-1.045c-1.871,0-2.879,1.08-2.879,2.377
				c0,1.439,1.008,2.088,3.275,2.986c2.986,1.117,4.57,2.629,4.57,5.221c0,3.096-2.41,5.254-6.479,5.254
				c-1.908,0-3.672-0.504-4.895-1.223L2841.396,46.93z"/>
			<path style="fill:#FFFFFF;" d="M2875.953,45.957c0,1.512,0.072,2.988,0.252,4.176h-2.844l-0.252-2.195h-0.107
				c-0.973,1.367-2.844,2.59-5.326,2.59c-3.529,0-5.328-2.482-5.328-5.002c0-4.213,3.744-6.516,10.475-6.48v-0.359
				c0-1.404-0.396-4.031-3.959-3.996c-1.656,0-3.348,0.469-4.572,1.297l-0.719-2.123c1.439-0.9,3.562-1.514,5.758-1.514
				c5.328,0,6.623,3.637,6.623,7.092V45.957z M2872.895,41.242c-3.455-0.072-7.379,0.539-7.379,3.922
				c0,2.088,1.367,3.025,2.951,3.025c2.303,0,3.779-1.441,4.283-2.916c0.107-0.361,0.145-0.721,0.145-1.008V41.242z"/>
			<path style="fill:#FFFFFF;" d="M2881.066,37.426c0-1.836-0.035-3.275-0.143-4.715h2.807l0.18,2.879h0.072
				c0.863-1.619,2.879-3.24,5.76-3.24c2.412,0,6.154,1.441,6.154,7.416v10.367h-3.168V40.09c0-2.809-1.043-5.148-4.031-5.148
				c-2.051,0-3.67,1.477-4.246,3.24c-0.145,0.396-0.217,0.936-0.217,1.477v10.475h-3.168V37.426z"/>
			<path style="fill:#FFFFFF;" d="M2916.057,24.576v21.057c0,1.549,0.072,3.312,0.145,4.5h-2.809l-0.143-3.023h-0.109
				c-0.936,1.943-3.023,3.418-5.867,3.418c-4.211,0-7.486-3.562-7.486-8.854c-0.035-5.795,3.6-9.324,7.811-9.324
				c2.699,0,4.463,1.262,5.256,2.629h0.072V24.576H2916.057z M2912.926,39.801c0-0.395-0.037-0.936-0.145-1.33
				c-0.469-1.98-2.195-3.637-4.572-3.637c-3.275,0-5.219,2.881-5.219,6.695c0,3.527,1.764,6.443,5.148,6.443
				c2.123,0,4.066-1.439,4.643-3.779c0.107-0.432,0.145-0.863,0.145-1.367V39.801z"/>
			<path style="fill:#FFFFFF;" d="M2929.307,50.133v-15.01h-2.412v-2.412h2.412v-0.828c0-2.447,0.574-4.68,2.016-6.084
				c1.188-1.15,2.771-1.619,4.246-1.619c1.152,0,2.088,0.252,2.701,0.504l-0.434,2.447c-0.467-0.215-1.078-0.396-2.016-0.396
				c-2.699,0-3.383,2.34-3.383,5.041v0.936h4.211v2.412h-4.211v15.01H2929.307z"/>
			<path style="fill:#FFFFFF;" d="M2939.494,38.146c0-2.053-0.037-3.816-0.145-5.436h2.771l0.145,3.455h0.107
				c0.793-2.34,2.736-3.816,4.859-3.816c0.324,0,0.576,0.037,0.863,0.072v2.988c-0.322-0.072-0.646-0.072-1.078-0.072
				c-2.232,0-3.816,1.656-4.248,4.031c-0.072,0.432-0.107,0.973-0.107,1.477v9.287h-3.168V38.146z"/>
			<path style="fill:#FFFFFF;" d="M2963.324,45.957c0,1.512,0.072,2.988,0.252,4.176h-2.844l-0.252-2.195h-0.107
				c-0.973,1.367-2.844,2.59-5.328,2.59c-3.527,0-5.326-2.482-5.326-5.002c0-4.213,3.742-6.516,10.475-6.48v-0.359
				c0-1.404-0.396-4.031-3.961-3.996c-1.654,0-3.348,0.469-4.57,1.297l-0.721-2.123c1.439-0.9,3.564-1.514,5.76-1.514
				c5.328,0,6.623,3.637,6.623,7.092V45.957z M2960.266,41.242c-3.457-0.072-7.381,0.539-7.381,3.922
				c0,2.088,1.369,3.025,2.953,3.025c2.303,0,3.779-1.441,4.283-2.916c0.107-0.361,0.145-0.721,0.145-1.008V41.242z"/>
			<path style="fill:#FFFFFF;" d="M2968.438,37.426c0-1.836-0.072-3.275-0.143-4.715h2.771l0.143,2.844h0.109
				c0.971-1.656,2.592-3.205,5.506-3.205c2.34,0,4.141,1.441,4.896,3.492h0.072c0.539-1.008,1.26-1.727,1.979-2.268
				c1.045-0.791,2.16-1.225,3.816-1.225c2.34,0,5.76,1.514,5.76,7.561v10.223h-3.096v-9.828c0-3.383-1.26-5.363-3.779-5.363
				c-1.836,0-3.205,1.332-3.781,2.844c-0.143,0.469-0.252,1.008-0.252,1.584v10.764h-3.096V39.693c0-2.771-1.223-4.752-3.635-4.752
				c-1.943,0-3.42,1.584-3.924,3.168c-0.18,0.432-0.252,1.008-0.252,1.549v10.475h-3.096V37.426z"/>
			<path style="fill:#FFFFFF;" d="M3000.227,41.998c0.07,4.283,2.771,6.047,5.975,6.047c2.268,0,3.672-0.396,4.822-0.9l0.576,2.268
				c-1.115,0.504-3.059,1.115-5.83,1.115c-5.363,0-8.568-3.562-8.568-8.818s3.096-9.359,8.172-9.359
				c5.723,0,7.199,4.969,7.199,8.172c0,0.648-0.037,1.115-0.107,1.477H3000.227z M3009.512,39.73
				c0.037-1.98-0.826-5.111-4.391-5.111c-3.24,0-4.607,2.914-4.859,5.111H3009.512z"/>
			<path style="fill:#FFFFFF;" d="M3031.508,24.576v21.057c0,1.549,0.072,3.312,0.145,4.5h-2.809l-0.145-3.023h-0.107
				c-0.936,1.943-3.023,3.418-5.867,3.418c-4.211,0-7.486-3.562-7.486-8.854c-0.037-5.795,3.6-9.324,7.811-9.324
				c2.699,0,4.463,1.262,5.256,2.629h0.072V24.576H3031.508z M3028.377,39.801c0-0.395-0.037-0.936-0.145-1.33
				c-0.469-1.98-2.195-3.637-4.572-3.637c-3.275,0-5.219,2.881-5.219,6.695c0,3.527,1.764,6.443,5.146,6.443
				c2.125,0,4.068-1.439,4.645-3.779c0.107-0.432,0.145-0.863,0.145-1.367V39.801z"/>
			<path style="fill:#FFFFFF;" d="M3044.434,24.576h3.168v25.557h-3.168V24.576z"/>
			<path style="fill:#FFFFFF;" d="M3056.457,27.814c0,1.08-0.756,1.945-2.016,1.945c-1.152,0-1.908-0.865-1.908-1.945
				s0.791-1.979,1.979-1.979C3055.664,25.836,3056.457,26.699,3056.457,27.814z M3052.928,50.133V32.711h3.168v17.422H3052.928z"/>
			<path style="fill:#FFFFFF;" d="M3060.92,46.93c0.973,0.574,2.629,1.223,4.213,1.223c2.268,0,3.348-1.115,3.348-2.592
				c0-1.512-0.9-2.303-3.205-3.168c-3.166-1.15-4.643-2.844-4.643-4.932c0-2.807,2.303-5.111,6.012-5.111
				c1.764,0,3.311,0.469,4.246,1.08l-0.756,2.305c-0.684-0.432-1.943-1.045-3.562-1.045c-1.873,0-2.881,1.08-2.881,2.377
				c0,1.439,1.008,2.088,3.277,2.986c2.986,1.117,4.57,2.629,4.57,5.221c0,3.096-2.412,5.254-6.479,5.254
				c-1.908,0-3.672-0.504-4.896-1.223L3060.92,46.93z"/>
			<path style="fill:#FFFFFF;" d="M3079.424,28.535v4.176h4.535v2.412h-4.535v9.395c0,2.158,0.611,3.383,2.375,3.383
				c0.865,0,1.369-0.072,1.836-0.215l0.145,2.41c-0.611,0.217-1.584,0.432-2.807,0.432c-1.477,0-2.664-0.504-3.42-1.33
				c-0.865-0.973-1.225-2.521-1.225-4.572v-9.502h-2.699v-2.412h2.699v-3.24L3079.424,28.535z"/>
			<path style="fill:#FFFFFF;" d="M3098.684,27.814c0,1.08-0.756,1.945-2.016,1.945c-1.152,0-1.908-0.865-1.908-1.945
				s0.791-1.979,1.98-1.979C3097.891,25.836,3098.684,26.699,3098.684,27.814z M3095.156,50.133V32.711h3.168v17.422H3095.156z"/>
			<path style="fill:#FFFFFF;" d="M3107.395,28.535v4.176h4.535v2.412h-4.535v9.395c0,2.158,0.613,3.383,2.377,3.383
				c0.863,0,1.367-0.072,1.836-0.215l0.143,2.41c-0.611,0.217-1.584,0.432-2.807,0.432c-1.477,0-2.664-0.504-3.42-1.33
				c-0.863-0.973-1.225-2.521-1.225-4.572v-9.502h-2.699v-2.412h2.699v-3.24L3107.395,28.535z"/>
			<path style="fill:#FFFFFF;" d="M3117.043,41.998c0.072,4.283,2.771,6.047,5.977,6.047c2.268,0,3.67-0.396,4.822-0.9l0.576,2.268
				c-1.115,0.504-3.059,1.115-5.832,1.115c-5.363,0-8.566-3.562-8.566-8.818s3.096-9.359,8.172-9.359
				c5.723,0,7.199,4.969,7.199,8.172c0,0.648-0.037,1.115-0.109,1.477H3117.043z M3126.33,39.73c0.037-1.98-0.828-5.111-4.391-5.111
				c-3.24,0-4.607,2.914-4.859,5.111H3126.33z"/>
			<path style="fill:#FFFFFF;" d="M3133.314,37.426c0-1.836-0.07-3.275-0.143-4.715h2.771l0.145,2.844h0.107
				c0.971-1.656,2.592-3.205,5.508-3.205c2.34,0,4.139,1.441,4.895,3.492h0.072c0.539-1.008,1.26-1.727,1.98-2.268
				c1.043-0.791,2.158-1.225,3.814-1.225c2.34,0,5.76,1.514,5.76,7.561v10.223h-3.096v-9.828c0-3.383-1.26-5.363-3.779-5.363
				c-1.836,0-3.203,1.332-3.779,2.844c-0.145,0.469-0.252,1.008-0.252,1.584v10.764h-3.096V39.693c0-2.771-1.225-4.752-3.637-4.752
				c-1.943,0-3.42,1.584-3.924,3.168c-0.18,0.432-0.252,1.008-0.252,1.549v10.475h-3.096V37.426z"/>
			<path style="fill:#FFFFFF;" d="M3162.908,46.93c0.971,0.574,2.627,1.223,4.211,1.223c2.268,0,3.348-1.115,3.348-2.592
				c0-1.512-0.9-2.303-3.203-3.168c-3.168-1.15-4.645-2.844-4.645-4.932c0-2.807,2.305-5.111,6.012-5.111
				c1.764,0,3.311,0.469,4.248,1.08l-0.756,2.305c-0.686-0.432-1.945-1.045-3.564-1.045c-1.871,0-2.879,1.08-2.879,2.377
				c0,1.439,1.008,2.088,3.275,2.986c2.986,1.117,4.57,2.629,4.57,5.221c0,3.096-2.41,5.254-6.479,5.254
				c-1.908,0-3.672-0.504-4.895-1.223L3162.908,46.93z"/>
			<path style="fill:#FFFFFF;" d="M3188.754,27.814c0,1.08-0.756,1.945-2.016,1.945c-1.152,0-1.908-0.865-1.908-1.945
				s0.793-1.979,1.98-1.979C3187.963,25.836,3188.754,26.699,3188.754,27.814z M3185.227,50.133V32.711h3.168v17.422H3185.227z"/>
			<path style="fill:#FFFFFF;" d="M3193.65,37.426c0-1.836-0.035-3.275-0.145-4.715h2.809l0.18,2.879h0.072
				c0.863-1.619,2.879-3.24,5.76-3.24c2.41,0,6.154,1.441,6.154,7.416v10.367h-3.168V40.09c0-2.809-1.043-5.148-4.031-5.148
				c-2.051,0-3.672,1.477-4.248,3.24c-0.143,0.396-0.215,0.936-0.215,1.477v10.475h-3.168V37.426z"/>
			<path style="fill:#FFFFFF;" d="M3214.387,32.711l3.42,9.754c0.576,1.621,1.043,3.061,1.402,4.5h0.109
				c0.395-1.439,0.898-2.879,1.475-4.5l3.385-9.754h3.311l-6.838,17.422h-3.023l-6.625-17.422H3214.387z"/>
			<path style="fill:#FFFFFF;" d="M3231.883,41.998c0.072,4.283,2.771,6.047,5.975,6.047c2.268,0,3.672-0.396,4.824-0.9l0.576,2.268
				c-1.117,0.504-3.061,1.115-5.832,1.115c-5.363,0-8.566-3.562-8.566-8.818s3.096-9.359,8.17-9.359
				c5.725,0,7.199,4.969,7.199,8.172c0,0.648-0.035,1.115-0.107,1.477H3231.883z M3241.17,39.73c0.035-1.98-0.828-5.111-4.393-5.111
				c-3.238,0-4.607,2.914-4.859,5.111H3241.17z"/>
			<path style="fill:#FFFFFF;" d="M3248.154,38.146c0-2.053-0.035-3.816-0.145-5.436h2.771l0.145,3.455h0.107
				c0.793-2.34,2.736-3.816,4.859-3.816c0.324,0,0.576,0.037,0.865,0.072v2.988c-0.324-0.072-0.648-0.072-1.08-0.072
				c-2.232,0-3.816,1.656-4.248,4.031c-0.072,0.432-0.107,0.973-0.107,1.477v9.287h-3.168V38.146z"/>
			<path style="fill:#FFFFFF;" d="M3264.605,28.535v4.176h4.535v2.412h-4.535v9.395c0,2.158,0.611,3.383,2.375,3.383
				c0.863,0,1.367-0.072,1.836-0.215l0.145,2.41c-0.613,0.217-1.584,0.432-2.809,0.432c-1.475,0-2.664-0.504-3.42-1.33
				c-0.863-0.973-1.223-2.521-1.223-4.572v-9.502h-2.699v-2.412h2.699v-3.24L3264.605,28.535z"/>
			<path style="fill:#FFFFFF;" d="M3274.254,41.998c0.072,4.283,2.771,6.047,5.975,6.047c2.268,0,3.672-0.396,4.824-0.9l0.576,2.268
				c-1.117,0.504-3.061,1.115-5.832,1.115c-5.363,0-8.566-3.562-8.566-8.818s3.096-9.359,8.17-9.359
				c5.725,0,7.199,4.969,7.199,8.172c0,0.648-0.035,1.115-0.107,1.477H3274.254z M3283.541,39.73
				c0.035-1.98-0.828-5.111-4.393-5.111c-3.238,0-4.607,2.914-4.859,5.111H3283.541z"/>
			<path style="fill:#FFFFFF;" d="M3305.535,24.576v21.057c0,1.549,0.072,3.312,0.145,4.5h-2.809l-0.143-3.023h-0.109
				c-0.936,1.943-3.023,3.418-5.867,3.418c-4.211,0-7.486-3.562-7.486-8.854c-0.035-5.795,3.6-9.324,7.811-9.324
				c2.699,0,4.463,1.262,5.256,2.629h0.072V24.576H3305.535z M3302.404,39.801c0-0.395-0.037-0.936-0.145-1.33
				c-0.469-1.98-2.195-3.637-4.572-3.637c-3.275,0-5.219,2.881-5.219,6.695c0,3.527,1.764,6.443,5.148,6.443
				c2.123,0,4.066-1.439,4.643-3.779c0.107-0.432,0.145-0.863,0.145-1.367V39.801z"/>
		</g>
	</g>
	<g id="meegotouch-countbubble-inverted-background-large">
		<g>
			<g>
				<path style="fill:#1080DD;" d="M3908,155c0,5.5-4.5,10-10,10h-14c-5.5,0-10-4.5-10-10v-12c0-5.5,4.5-10,10-10h14
					c5.5,0,10,4.5,10,10V155z"/>
			</g>
		</g>
	</g>
	<g id="meegotouch-countbubble-inverted-background">
		<g>
			<g>
				<path style="fill:#1080DD;" d="M3864,155c0,5.5-4.5,10-10,10h-6c-5.5,0-10-4.5-10-10v-4c0-5.5,4.5-10,10-10h6
					c5.5,0,10,4.5,10,10V155z"/>
			</g>
		</g>
	</g>
	<g id="meegotouch-fastscroll-inverted-background">
		<path style="opacity:0.5;fill:#FFFFFF;" d="M3828,165h-22c-5.5,0-10-4.5-10-10v-12c0-5.5,4.5-10,10-10h22V165z"/>
	</g>
	<g id="meegotouch-live-filter-bar-inverted-background">
		<rect x="3722" y="101" style="opacity:0.5;fill:#FFFFFF;" width="64" height="64"/>
	</g>
	<g id="meegotouch-list-header-inverted-background">
		<rect x="3648" y="133" style="opacity:0.05;fill:#FFFFFF;" width="64" height="32"/>
	</g>
	<g id="meegotouch-list-inverted-background-selected">
		<g>
			<path style="fill:#00DB00;" d="M3444,705.5c-5.238,0-9.5-4.262-9.5-9.5v-47c0-5.238,4.262-9.5,9.5-9.5h47
				c5.238,0,9.5,4.262,9.5,9.5v47c0,5.238-4.262,9.5-9.5,9.5H3444z"/>
			<path style="fill:#333333;" d="M3491,640c4.963,0,9,4.037,9,9v47c0,4.963-4.037,9-9,9h-47c-4.963,0-9-4.037-9-9v-47
				c0-4.963,4.037-9,9-9H3491 M3491,639h-47c-5.5,0-10,4.5-10,10v47c0,5.5,4.5,10,10,10h47c5.5,0,10-4.5,10-10v-47
				C3501,643.5,3496.5,639,3491,639L3491,639z"/>
		</g>
	</g>
	<g id="meegotouch-list-inverted-background-selected-vertical-bottom">
		<path style="fill:#333333;" d="M3491,629c5.5,0,10-4.5,10-10v-57h-67v57c0,5.5,4.5,10,10,10H3491z"/>
		<path style="fill:#00DB00;" d="M3500,619c0,4.963-4.037,9-9,9h-47c-4.963,0-9-4.037-9-9v-57h65V619z"/>
	</g>
	<g id="meegotouch-list-inverted-background-selected-vertical-center">
		<rect x="3434" y="485" style="fill:#333333;" width="67" height="67"/>
		<rect x="3435" y="485" style="fill:#00DB00;" width="65" height="67"/>
	</g>
	<g id="meegotouch-list-inverted-background-selected-vertical-top">
		<path style="fill:#333333;" d="M3444,408c-5.5,0-10,4.5-10,10v57h67v-57c0-5.5-4.5-10-10-10H3444z"/>
		<path style="fill:#00DB00;" d="M3435,418c0-4.963,4.037-9,9-9h47c4.963,0,9,4.037,9,9v57h-65V418z"/>
		<rect x="3435" y="474" style="opacity:0.2;" width="65" height="1"/>
	</g>
	<g id="meegotouch-list-inverted-background-selected-horizontal-right">
		<path style="fill:#333333;" d="M3578,341c0-5.5-4.5-10-10-10h-57v67h57c5.5,0,10-4.5,10-10V341z"/>
		<path style="fill:#00DB00;" d="M3568,332c4.963,0,9,4.038,9,9v47c0,4.962-4.037,9-9,9h-57v-65H3568z"/>
	</g>
	<g id="meegotouch-list-inverted-background-selected-horizontal-center">
		<rect x="3434" y="331" style="fill:#333333;" width="67" height="67"/>
		<rect x="3434" y="332" style="fill:#00DB00;" width="67" height="65"/>
		<rect x="3500" y="332" style="opacity:0.2;" width="1" height="65"/>
	</g>
	<g id="meegotouch-list-inverted-background-selected-horizontal-left">
		<path style="fill:#333333;" d="M3357,388c0,5.5,4.5,10,10,10h57v-67h-57c-5.5,0-10,4.5-10,10V388z"/>
		<path style="fill:#00DB00;" d="M3367,397c-4.963,0-9-4.038-9-9v-47c0-4.962,4.037-9,9-9h57v65H3367z"/>
		<rect x="3423" y="332" style="opacity:0.2;" width="1" height="65"/>
	</g>
	<g id="meegotouch-list-inverted-background-selected-bottom-right">
		<path style="fill:#333333;" d="M3578,311c0,5.5-4.5,10-10,10h-57v-67h67V311z"/>
		<path style="fill:#00DB00;" d="M3577,254v57c0,4.962-4.037,9-9,9h-57v-66H3577z"/>
	</g>
	<g id="meegotouch-list-inverted-background-selected-bottom-center">
		<rect x="3434" y="254" style="fill:#333333;" width="67" height="67"/>
		<rect x="3434" y="254" style="fill:#00DB00;" width="67" height="66"/>
		<rect x="3500" y="254" style="opacity:0.2;" width="1" height="66"/>
	</g>
	<g id="meegotouch-list-inverted-background-selected-bottom-left">
		<path style="fill:#333333;" d="M3367,321c-5.5,0-10-4.5-10-10v-57h67v67H3367z"/>
		<path style="fill:#00DB00;" d="M3424,320h-57c-4.963,0-9-4.038-9-9v-57h66V320z"/>
		<rect x="3422.75" y="254" style="opacity:0.2;" width="1.25" height="66"/>
	</g>
	<g id="meegotouch-list-inverted-background-selected-center-right">
		<rect x="3511" y="177" style="fill:#333333;" width="67" height="67"/>
		<rect x="3511" y="177" style="fill:#00DB00;" width="66" height="67"/>
		<rect x="3511" y="243" style="opacity:0.2;" width="66" height="1"/>
	</g>
	<g id="meegotouch-list-inverted-background-selected-center">
		<rect x="3434" y="177" style="fill:#00DB00;" width="67" height="67"/>
		<rect x="3434" y="243" style="opacity:0.2;" width="67" height="1"/>
		<rect x="3500" y="177" style="opacity:0.2;" width="1" height="67"/>
	</g>
	<g id="meegotouch-list-inverted-background-selected-center-left">
		<rect x="3357" y="177" style="fill:#333333;" width="67" height="67"/>
		<rect x="3358" y="177" style="fill:#00DB00;" width="66" height="67"/>
		<rect x="3358" y="243" style="opacity:0.2;" width="66" height="1"/>
		<rect x="3423" y="177" style="opacity:0.2;" width="1" height="67"/>
	</g>
	<g id="meegotouch-list-inverted-background-selected-top-right">
		<path style="fill:#333333;" d="M3567.5,100c5.5,0,10,4.5,10,10v57h-67v-67H3567.5z"/>
		<path style="fill:#00DB00;" d="M3510.5,101h57c4.963,0,9,4.037,9,9v57h-66V101z"/>
		<rect x="3510.5" y="165.75" style="opacity:0.2;" width="66" height="1.25"/>
	</g>
	<g id="meegotouch-list-inverted-background-selected-top-center">
		<rect x="3434" y="100" style="fill:#333333;" width="67" height="67"/>
		<rect x="3434" y="101" style="fill:#00DB00;" width="67" height="66"/>
		<rect x="3500" y="101" style="opacity:0.2;" width="1" height="66"/>
		<rect x="3435" y="165.875" style="opacity:0.2;" width="66" height="1"/>
	</g>
	<g id="meegotouch-list-inverted-background-selected-top-left">
		<path style="fill:#333333;" d="M3357,110c0-5.5,4.5-10,10-10h57v67h-67V110z"/>
		<path style="fill:#00DB00;" d="M3358,167v-57c0-4.962,4.037-9,9-9h57v66H3358z"/>
		<rect x="3422.75" y="101" style="opacity:0.2;" width="1.25" height="66"/>
		<rect x="3358" y="165.75" style="opacity:0.2;" width="66" height="1.25"/>
	</g>
	<g id="meegotouch-list-inverted-background-pressed">
		<g>
			<path style="fill:#1A1A1A;" d="M3203,705.5c-5.238,0-9.5-4.262-9.5-9.5v-47c0-5.238,4.262-9.5,9.5-9.5h47
				c5.238,0,9.5,4.262,9.5,9.5v47c0,5.238-4.262,9.5-9.5,9.5H3203z"/>
			<g>
				<path style="fill:#333333;" d="M3250,640c4.963,0,9,4.037,9,9v47c0,4.963-4.037,9-9,9h-47c-4.963,0-9-4.037-9-9v-47
					c0-4.963,4.037-9,9-9H3250 M3250,639h-47c-5.5,0-10,4.5-10,10v47c0,5.5,4.5,10,10,10h47c5.5,0,10-4.5,10-10v-47
					C3260,643.5,3255.5,639,3250,639L3250,639z"/>
			</g>
		</g>
		<g style="opacity:0.2;">
			<path style="fill:#FFFFFF;" d="M3260,696c0,5.5-4.5,10-10,10h-47c-5.5,0-10-4.5-10-10v-47c0-5.5,4.5-10,10-10h47
				c5.5,0,10,4.5,10,10V696z"/>
		</g>
	</g>
	<g id="meegotouch-list-inverted-background-pressed-vertical-bottom">
		<path style="fill:#333333;" d="M3250,629c5.5,0,10-4.5,10-10v-57h-67v57c0,5.5,4.5,10,10,10H3250z"/>
		<path style="fill:#1A1A1A;" d="M3259,619c0,4.963-4.037,9-9,9h-47c-4.963,0-9-4.037-9-9v-57h65V619z"/>
		<path style="opacity:0.2;fill:#FFFFFF;" d="M3259,619c0,4.963-4.037,9-9,9h-47c-4.963,0-9-4.037-9-9v-57h65V619z"/>
	</g>
	<g id="meegotouch-list-inverted-background-pressed-vertical-center">
		<rect x="3193" y="485" style="fill:#333333;" width="67" height="67"/>
		<rect x="3194" y="485" style="fill:#1A1A1A;" width="65" height="67"/>
		<rect x="3194" y="485" style="opacity:0.2;fill:#FFFFFF;" width="65" height="67"/>
	</g>
	<g id="meegotouch-list-inverted-background-pressed-vertical-top">
		<path style="fill:#333333;" d="M3203,408c-5.5,0-10,4.5-10,10v57h67v-57c0-5.5-4.5-10-10-10H3203z"/>
		<path style="fill:#1A1A1A;" d="M3194,418c0-4.963,4.037-9,9-9h47c4.963,0,9,4.037,9,9v57h-65V418z"/>
		<path style="opacity:0.2;fill:#FFFFFF;" d="M3194,418c0-4.963,4.037-9,9-9h47c4.963,0,9,4.037,9,9v57h-65V418z"/>
		<rect x="3194" y="474" style="opacity:0.2;" width="65" height="1"/>
	</g>
	<g id="meegotouch-list-inverted-background-pressed-horizontal-right">
		<path style="fill:#333333;" d="M3337,341c0-5.5-4.5-10-10-10h-57v67h57c5.5,0,10-4.5,10-10V341z"/>
		<path style="fill:#1A1A1A;" d="M3327,332c4.963,0,9,4.038,9,9v47c0,4.962-4.037,9-9,9h-57v-65H3327z"/>
		<path style="opacity:0.2;fill:#FFFFFF;" d="M3327,332c4.963,0,9,4.038,9,9v47c0,4.962-4.037,9-9,9h-57v-65H3327z"/>
	</g>
	<g id="meegotouch-list-inverted-background-pressed-horizontal-center">
		<rect x="3193" y="331" style="fill:#333333;" width="67" height="67"/>
		<rect x="3193" y="332" style="fill:#1A1A1A;" width="67" height="65"/>
		<rect x="3193" y="332" style="opacity:0.2;fill:#FFFFFF;" width="67" height="65"/>
		<rect x="3259" y="332" style="opacity:0.2;" width="1" height="65"/>
	</g>
	<g id="meegotouch-list-inverted-background-pressed-horizontal-left">
		<path style="fill:#333333;" d="M3116,388c0,5.5,4.5,10,10,10h57v-67h-57c-5.5,0-10,4.5-10,10V388z"/>
		<path style="fill:#1A1A1A;" d="M3126,397c-4.963,0-9-4.038-9-9v-47c0-4.962,4.037-9,9-9h57v65H3126z"/>
		<path style="opacity:0.2;fill:#FFFFFF;" d="M3126,397c-4.963,0-9-4.038-9-9v-47c0-4.962,4.037-9,9-9h57v65H3126z"/>
		<rect x="3182" y="332" style="opacity:0.2;" width="1" height="65"/>
	</g>
	<g id="meegotouch-list-inverted-background-pressed-bottom-right">
		<path style="fill:#333333;" d="M3337,311c0,5.5-4.5,10-10,10h-57v-67h67V311z"/>
		<path style="fill:#1A1A1A;" d="M3336,254v57c0,4.962-4.037,9-9,9h-57v-66H3336z"/>
		<path style="opacity:0.2;fill:#FFFFFF;" d="M3336,254v57c0,4.962-4.037,9-9,9h-57v-66H3336z"/>
	</g>
	<g id="meegotouch-list-inverted-background-pressed-bottom-center">
		<rect x="3193" y="254" style="fill:#666666;" width="67" height="67"/>
		<rect x="3193" y="254" style="fill:#1A1A1A;" width="67" height="66"/>
		<rect x="3193" y="254" style="opacity:0.2;fill:#FFFFFF;" width="67" height="66"/>
		<rect x="3259" y="254" style="opacity:0.2;" width="1" height="66"/>
	</g>
	<g id="meegotouch-list-inverted-background-pressed-bottom-left">
		<path style="fill:#333333;" d="M3126,321c-5.5,0-10-4.5-10-10v-57h67v67H3126z"/>
		<path style="fill:#1A1A1A;" d="M3183,320h-57c-4.963,0-9-4.038-9-9v-57h66V320z"/>
		<path style="opacity:0.2;fill:#FFFFFF;" d="M3183,320h-57c-4.963,0-9-4.038-9-9v-57h66V320z"/>
		<rect x="3181.75" y="254" style="opacity:0.2;" width="1.25" height="66"/>
	</g>
	<g id="meegotouch-list-inverted-background-pressed-center-right">
		<rect x="3270" y="177" style="fill:#333333;" width="67" height="67"/>
		<rect x="3270" y="177" style="fill:#1A1A1A;" width="66" height="67"/>
		<rect x="3270" y="177" style="opacity:0.2;fill:#FFFFFF;" width="66" height="67"/>
		<rect x="3270" y="243" style="opacity:0.2;" width="66" height="1"/>
	</g>
	<g id="meegotouch-list-inverted-background-pressed-center">
		<rect x="3193" y="177" style="fill:#1A1A1A;" width="67" height="67"/>
		<rect x="3193" y="177" style="opacity:0.2;fill:#FFFFFF;" width="67" height="67"/>
		<rect x="3193" y="243" style="opacity:0.2;" width="67" height="1"/>
		<rect x="3259" y="177" style="opacity:0.2;" width="1" height="67"/>
	</g>
	<g id="meegotouch-list-inverted-background-pressed-center-left">
		<rect x="3116" y="177" style="fill:#333333;" width="67" height="67"/>
		<rect x="3117" y="177" style="fill:#1A1A1A;" width="66" height="67"/>
		<rect x="3117" y="177" style="opacity:0.2;fill:#FFFFFF;" width="66" height="67"/>
		<rect x="3117" y="243" style="opacity:0.2;" width="66" height="1"/>
		<rect x="3182" y="177" style="opacity:0.2;" width="1" height="67"/>
	</g>
	<g id="meegotouch-list-inverted-background-pressed-top-right">
		<path style="fill:#333333;" d="M3326.5,100c5.5,0,10,4.5,10,10v57h-67v-67H3326.5z"/>
		<path style="fill:#1A1A1A;" d="M3269.5,101h57c4.963,0,9,4.037,9,9v57h-66V101z"/>
		<path style="opacity:0.2;fill:#FFFFFF;" d="M3269.5,101h57c4.963,0,9,4.037,9,9v57h-66V101z"/>
		<rect x="3269.5" y="165.75" style="opacity:0.2;" width="66" height="1.25"/>
	</g>
	<g id="meegotouch-list-inverted-background-pressed-top-center">
		<rect x="3193" y="100" style="fill:#333333;" width="67" height="67"/>
		<rect x="3193" y="101" style="fill:#1A1A1A;" width="67" height="66"/>
		<rect x="3193" y="101" style="opacity:0.2;fill:#FFFFFF;" width="67" height="66"/>
		<rect x="3259" y="101" style="opacity:0.2;" width="1" height="66"/>
		<rect x="3194" y="165.875" style="opacity:0.2;" width="66" height="1"/>
	</g>
	<g id="meegotouch-list-inverted-background-pressed-top-left">
		<path style="fill:#333333;" d="M3116,110c0-5.5,4.5-10,10-10h57v67h-67V110z"/>
		<path style="fill:#1A1A1A;" d="M3117,167v-57c0-4.962,4.037-9,9-9h57v66H3117z"/>
		<path style="opacity:0.2;fill:#FFFFFF;" d="M3117,167v-57c0-4.962,4.037-9,9-9h57v66H3117z"/>
		<rect x="3181.75" y="101" style="opacity:0.2;" width="1.25" height="66"/>
		<rect x="3117" y="165.75" style="opacity:0.2;" width="66" height="1.25"/>
	</g>
	<g id="meegotouch-list-inverted-background">
		<g>
			<path style="fill:#1A1A1A;" d="M2963,705.5c-5.238,0-9.5-4.262-9.5-9.5v-47c0-5.238,4.262-9.5,9.5-9.5h47
				c5.238,0,9.5,4.262,9.5,9.5v47c0,5.238-4.262,9.5-9.5,9.5H2963z"/>
			<path style="fill:#333333;" d="M3010,640c4.963,0,9,4.037,9,9v47c0,4.963-4.037,9-9,9h-47c-4.963,0-9-4.037-9-9v-47
				c0-4.963,4.037-9,9-9H3010 M3010,639h-47c-5.5,0-10,4.5-10,10v47c0,5.5,4.5,10,10,10h47c5.5,0,10-4.5,10-10v-47
				C3020,643.5,3015.5,639,3010,639L3010,639z"/>
		</g>
	</g>
	<g id="meegotouch-list-inverted-background-vertical-bottom">
		<path style="fill:#333333;" d="M3010,629c5.5,0,10-4.5,10-10v-57h-67v57c0,5.5,4.5,10,10,10H3010z"/>
		<path style="fill:#1A1A1A;" d="M3019,619c0,4.963-4.037,9-9,9h-47c-4.963,0-9-4.037-9-9v-57h65V619z"/>
	</g>
	<g id="meegotouch-list-inverted-background-vertical-center">
		<rect x="2953" y="485" style="fill:#333333;" width="67" height="67"/>
		<rect x="2954" y="485" style="fill:#1A1A1A;" width="65" height="67"/>
	</g>
	<g id="meegotouch-list-inverted-background-vertical-top">
		<path style="fill:#333333;" d="M2963,408c-5.5,0-10,4.5-10,10v57h67v-57c0-5.5-4.5-10-10-10H2963z"/>
		<path style="fill:#1A1A1A;" d="M2954,418c0-4.963,4.037-9,9-9h47c4.963,0,9,4.037,9,9v57h-65V418z"/>
		<rect x="2954" y="474" style="opacity:0.2;" width="65" height="1"/>
	</g>
	<g id="meegotouch-list-inverted-background-horizontal-right">
		<path style="fill:#333333;" d="M3097,341c0-5.5-4.5-10-10-10h-57v67h57c5.5,0,10-4.5,10-10V341z"/>
		<path style="fill:#1A1A1A;" d="M3087,332c4.963,0,9,4.038,9,9v47c0,4.962-4.037,9-9,9h-57v-65H3087z"/>
	</g>
	<g id="meegotouch-list-inverted-background-horizontal-center">
		<rect x="2953" y="331" style="fill:#333333;" width="67" height="67"/>
		<rect x="2953" y="332" style="fill:#1A1A1A;" width="67" height="65"/>
		<rect x="3019" y="332" style="opacity:0.2;" width="1" height="65"/>
	</g>
	<g id="meegotouch-list-inverted-background-horizontal-left">
		<path style="fill:#333333;" d="M2876,388c0,5.5,4.5,10,10,10h57v-67h-57c-5.5,0-10,4.5-10,10V388z"/>
		<path style="fill:#1A1A1A;" d="M2886,397c-4.963,0-9-4.038-9-9v-47c0-4.962,4.037-9,9-9h57v65H2886z"/>
		<rect x="2942" y="332" style="opacity:0.2;" width="1" height="65"/>
	</g>
	<g id="meegotouch-list-inverted-background-bottom-right">
		<path style="fill:#333333;" d="M3097,311c0,5.5-4.5,10-10,10h-57v-67h67V311z"/>
		<path style="fill:#1A1A1A;" d="M3096,254v57c0,4.962-4.037,9-9,9h-57v-66H3096z"/>
	</g>
	<g id="meegotouch-list-inverted-background-bottom-center">
		<rect x="2953" y="254" style="fill:#333333;" width="67" height="67"/>
		<rect x="2953" y="254" style="fill:#1A1A1A;" width="67" height="66"/>
		<rect x="3019" y="254" style="opacity:0.2;" width="1" height="66"/>
	</g>
	<g id="meegotouch-list-inverted-background-bottom-left">
		<path style="fill:#333333;" d="M2886,321c-5.5,0-10-4.5-10-10v-57h67v67H2886z"/>
		<path style="fill:#1A1A1A;" d="M2943,320h-57c-4.963,0-9-4.038-9-9v-57h66V320z"/>
		<rect x="2941.75" y="254" style="opacity:0.2;" width="1.25" height="66"/>
	</g>
	<g id="meegotouch-list-inverted-background-center-right">
		<rect x="3030" y="177" style="fill:#333333;" width="67" height="67"/>
		<rect x="3030" y="177" style="fill:#1A1A1A;" width="66" height="67"/>
		<rect x="3030" y="243" style="opacity:0.2;" width="66" height="1"/>
	</g>
	<g id="meegotouch-list-inverted-background-center">
		<rect x="2953" y="177" style="fill:#1A1A1A;" width="67" height="67"/>
		<rect x="2953" y="243" style="opacity:0.2;" width="67" height="1"/>
		<rect x="3019" y="177" style="opacity:0.2;" width="1" height="67"/>
	</g>
	<g id="meegotouch-list-inverted-background-center-left">
		<rect x="2876" y="177" style="fill:#333333;" width="67" height="67"/>
		<rect x="2877" y="177" style="fill:#1A1A1A;" width="66" height="67"/>
		<rect x="2877" y="243" style="opacity:0.2;" width="66" height="1"/>
		<rect x="2942" y="177" style="opacity:0.2;" width="1" height="67"/>
	</g>
	<g id="meegotouch-list-inverted-background-top-right">
		<path style="fill:#333333;" d="M3086.5,100c5.5,0,10,4.5,10,10v57h-67v-67H3086.5z"/>
		<path style="fill:#1A1A1A;" d="M3029.5,101h57c4.963,0,9,4.037,9,9v57h-66V101z"/>
		<rect x="3029.5" y="165.75" style="opacity:0.2;" width="66" height="1.25"/>
	</g>
	<g id="meegotouch-list-inverted-background-top-center">
		<rect x="2953" y="100" style="fill:#333333;" width="67" height="67"/>
		<rect x="2953" y="101" style="fill:#1A1A1A;" width="67" height="66"/>
		<rect x="3019" y="101" style="opacity:0.2;" width="1" height="66"/>
		<rect x="2954" y="165.875" style="opacity:0.2;" width="66" height="1"/>
	</g>
	<g id="meegotouch-list-inverted-background-top-left">
		<path style="fill:#333333;" d="M2876,110c0-5.5,4.5-10,10-10h57v67h-67V110z"/>
		<path style="fill:#1A1A1A;" d="M2877,167v-57c0-4.962,4.037-9,9-9h57v66H2877z"/>
		<rect x="2941.75" y="101" style="opacity:0.2;" width="1.25" height="66"/>
		<rect x="2877" y="165.75" style="opacity:0.2;" width="66" height="1.25"/>
	</g>
	<g id="meegotouch-list-fullwidth-inverted-background-selected">
		<rect x="2669" y="639" style="fill:#00DB00;" width="67" height="67"/>
		<linearGradient id="SVGID_1_" gradientUnits="userSpaceOnUse" x1="2702.5" y1="706" x2="2702.5" y2="705">
			<stop  offset="0" style="stop-color:#FFFFFF;stop-opacity:0.15"/>
			<stop  offset="1" style="stop-color:#FFFFFF;stop-opacity:0.03"/>
		</linearGradient>
		<rect x="2669" y="705" style="fill:url(#SVGID_1_);" width="67" height="1"/>
		<rect x="2669" y="639" style="fill:#FFFFFF;fill-opacity:0;" width="67" height="1"/>
	</g>
	<g id="meegotouch-list-fullwidth-inverted-background-selected-vertical-bottom">
		<rect x="2669" y="562" style="fill:#00DB00;" width="67" height="67"/>
		<rect x="2669" y="628" style="fill-opacity:0;" width="67" height="1"/>
		<rect x="2669" y="562" style="fill:#FFFFFF;fill-opacity:0;" width="67" height="1"/>
	</g>
	<g id="meegotouch-list-fullwidth-inverted-background-selected-vertical-center">
		<rect x="2669" y="485" style="fill:#00DB00;" width="67" height="67"/>
		<rect x="2669" y="551" style="fill-opacity:0;" width="67" height="1"/>
		<rect x="2669" y="485" style="fill:#FFFFFF;fill-opacity:0;" width="67" height="1"/>
	</g>
	<g id="meegotouch-list-fullwidth-inverted-background-selected-vertical-top">
		<rect x="2669" y="408" style="fill:#00DB00;" width="67" height="67"/>
		<rect x="2669" y="474" style="fill-opacity:0;" width="67" height="1"/>
		<rect x="2669" y="408" style="fill:#FFFFFF;fill-opacity:0;" width="67" height="1"/>
	</g>
	<g id="meegotouch-list-fullwidth-inverted-background-selected-horizontal-right">
		<rect x="2746" y="331" style="fill:#00DB00;" width="67" height="67"/>
		<rect x="2746" y="397" style="fill-opacity:0;" width="67" height="1"/>
		<rect x="2746" y="331" style="fill:#FFFFFF;fill-opacity:0;" width="67" height="1"/>
	</g>
	<g id="meegotouch-list-fullwidth-inverted-background-selected-horizontal-center">
		<rect x="2669" y="331" style="fill:#00DB00;" width="67" height="67"/>
		<rect x="2669" y="397" style="fill-opacity:0;" width="67" height="1"/>
		<rect x="2669" y="331" style="fill:#FFFFFF;fill-opacity:0;" width="67" height="1"/>
	</g>
	<g id="meegotouch-list-fullwidth-inverted-background-selected-horizontal-left">
		<rect x="2592" y="331" style="fill:#00DB00;" width="67" height="67"/>
		<rect x="2592" y="397" style="fill-opacity:0;" width="67" height="1"/>
		<rect x="2592" y="331" style="fill:#FFFFFF;fill-opacity:0;" width="67" height="1"/>
	</g>
	<g id="meegotouch-list-fullwidth-inverted-background-selected-bottom-right">
		<rect x="2746" y="254" style="fill:#00DB00;" width="67" height="67"/>
		<rect x="2746" y="320" style="fill-opacity:0;" width="67" height="1"/>
		<rect x="2746" y="254" style="fill:#FFFFFF;fill-opacity:0;" width="67" height="1"/>
	</g>
	<g id="meegotouch-list-fullwidth-inverted-background-selected-bottom-center">
		<rect x="2669" y="254" style="fill:#00DB00;" width="67" height="67"/>
		<rect x="2669" y="320" style="fill-opacity:0;" width="67" height="1"/>
		<rect x="2669" y="254" style="fill:#FFFFFF;fill-opacity:0;" width="67" height="1"/>
	</g>
	<g id="meegotouch-list-fullwidth-inverted-background-selected-bottom-left">
		<rect x="2592" y="254" style="fill:#00DB00;" width="67" height="67"/>
		<rect x="2592" y="320" style="fill-opacity:0;" width="67" height="1"/>
		<rect x="2592" y="254" style="fill:#FFFFFF;fill-opacity:0;" width="67" height="1"/>
	</g>
	<g id="meegotouch-list-fullwidth-inverted-background-selected-center-right">
		<rect x="2746" y="177" style="fill:#00DB00;" width="67" height="67"/>
		<rect x="2746" y="243" style="fill-opacity:0;" width="67" height="1"/>
		<rect x="2746" y="177" style="fill:#FFFFFF;fill-opacity:0;" width="67" height="1"/>
	</g>
	<g id="meegotouch-list-fullwidth-inverted-background-selected-center">
		<rect x="2669" y="177" style="fill:#00DB00;" width="67" height="67"/>
		<rect x="2669" y="243" style="fill-opacity:0;" width="67" height="1"/>
		<rect x="2669" y="177" style="fill:#FFFFFF;fill-opacity:0;" width="67" height="1"/>
	</g>
	<g id="meegotouch-list-fullwidth-inverted-background-selected-center-left">
		<rect x="2592" y="177" style="fill:#00DB00;" width="67" height="67"/>
		<rect x="2592" y="243" style="fill-opacity:0;" width="67" height="1"/>
		<rect x="2592" y="177" style="fill:#FFFFFF;fill-opacity:0;" width="67" height="1"/>
	</g>
	<g id="meegotouch-list-fullwidth-inverted-background-selected-top-right">
		<rect x="2746" y="100" style="fill:#00DB00;" width="67" height="67"/>
		<rect x="2746" y="166" style="fill-opacity:0;" width="67" height="1"/>
		<rect x="2746" y="100" style="fill:#FFFFFF;fill-opacity:0;" width="67" height="1"/>
	</g>
	<g id="meegotouch-list-fullwidth-inverted-background-selected-top-center">
		<rect x="2669" y="100" style="fill:#00DB00;" width="67" height="67"/>
		<rect x="2669" y="166" style="fill-opacity:0;" width="67" height="1"/>
		<rect x="2669" y="100" style="fill:#FFFFFF;fill-opacity:0;" width="67" height="1"/>
	</g>
	<g id="meegotouch-list-fullwidth-inverted-background-selected-top-left">
		<rect x="2592" y="100" style="fill:#00DB00;" width="67" height="67"/>
		<rect x="2592" y="166" style="fill-opacity:0;" width="67" height="1"/>
		<rect x="2592" y="100" style="fill:#FFFFFF;fill-opacity:0;" width="67" height="1"/>
	</g>
	<g id="meegotouch-list-fullwidth-inverted-background-pressed">
		<rect x="2428" y="639" style="opacity:0.2;fill:#FFFFFF;" width="67" height="67"/>
		<rect x="2428" y="705" style="fill:#FFFFFF;fill-opacity:0;" width="67" height="1"/>
		<rect x="2428" y="639" style="fill:#333333;fill-opacity:0;" width="67" height="1"/>
	</g>
	<g id="meegotouch-list-fullwidth-inverted-background-pressed-vertical-bottom">
		<rect x="2428" y="562" style="opacity:0.2;fill:#FFFFFF;" width="67" height="67"/>
		<rect x="2428" y="628" style="fill:#FFFFFF;fill-opacity:0;" width="67" height="1"/>
		<rect x="2428" y="562" style="fill:#333333;fill-opacity:0;" width="67" height="1"/>
	</g>
	<g id="meegotouch-list-fullwidth-inverted-background-pressed-vertical-center">
		<rect x="2428" y="485" style="opacity:0.2;fill:#FFFFFF;" width="67" height="67"/>
		<rect x="2428" y="551" style="fill:#FFFFFF;fill-opacity:0;" width="67" height="1"/>
		<rect x="2428" y="485" style="fill:#333333;fill-opacity:0;" width="67" height="1"/>
	</g>
	<g id="meegotouch-list-fullwidth-inverted-background-pressed-vetical-top">
		<rect x="2428" y="408" style="opacity:0.2;fill:#FFFFFF;" width="67" height="67"/>
		<rect x="2428" y="474" style="fill:#FFFFFF;fill-opacity:0;" width="67" height="1"/>
		<rect x="2428" y="408" style="fill:#333333;fill-opacity:0;" width="67" height="1"/>
	</g>
	<g id="meegotouch-list-fullwidth-inverted-background-pressed-horizontal-right">
		<rect x="2505" y="331" style="opacity:0.2;fill:#FFFFFF;" width="67" height="67"/>
		<rect x="2505" y="397" style="fill:#FFFFFF;fill-opacity:0;" width="67" height="1"/>
		<rect x="2505" y="331" style="fill:#333333;fill-opacity:0;" width="67" height="1"/>
	</g>
	<g id="meegotouch-list-fullwidth-inverted-background-pressed-horizontal-center">
		<rect x="2428" y="331" style="opacity:0.2;fill:#FFFFFF;" width="67" height="67"/>
		<rect x="2428" y="397" style="fill:#FFFFFF;fill-opacity:0;" width="67" height="1"/>
		<rect x="2428" y="331" style="fill:#333333;fill-opacity:0;" width="67" height="1"/>
	</g>
	<g id="meegotouch-list-fullwidth-inverted-background-pressed-horizontal-left">
		<rect x="2351" y="331" style="opacity:0.2;fill:#FFFFFF;" width="67" height="67"/>
		<rect x="2351" y="397" style="fill:#FFFFFF;fill-opacity:0;" width="67" height="1"/>
		<rect x="2351" y="331" style="fill:#333333;fill-opacity:0;" width="67" height="1"/>
	</g>
	<g id="meegotouch-list-fullwidth-inverted-background-pressed-bottom-right">
		<rect x="2505" y="254" style="opacity:0.2;fill:#FFFFFF;" width="67" height="67"/>
		<rect x="2505" y="320" style="fill:#FFFFFF;fill-opacity:0;" width="67" height="1"/>
		<rect x="2505" y="254" style="fill:#333333;fill-opacity:0;" width="67" height="1"/>
	</g>
	<g id="meegotouch-list-fullwidth-inverted-background-pressed-bottom-center">
		<rect x="2428" y="254" style="opacity:0.2;fill:#FFFFFF;" width="67" height="67"/>
		<rect x="2428" y="320" style="fill:#FFFFFF;fill-opacity:0;" width="67" height="1"/>
		<rect x="2428" y="254" style="fill:#333333;fill-opacity:0;" width="67" height="1"/>
	</g>
	<g id="meegotouch-list-fullwidth-inverted-background-pressed-bottom-left">
		<rect x="2351" y="254" style="opacity:0.2;fill:#FFFFFF;" width="67" height="67"/>
		<rect x="2351" y="320" style="fill:#FFFFFF;fill-opacity:0;" width="67" height="1"/>
		<rect x="2351" y="254" style="fill:#333333;fill-opacity:0;" width="67" height="1"/>
	</g>
	<g id="meegotouch-list-fullwidth-inverted-background-pressed-center-right">
		<rect x="2505" y="177" style="opacity:0.2;fill:#FFFFFF;" width="67" height="67"/>
		<rect x="2505" y="243" style="fill:#FFFFFF;fill-opacity:0;" width="67" height="1"/>
		<rect x="2505" y="177" style="fill:#333333;fill-opacity:0;" width="67" height="1"/>
	</g>
	<g id="meegotouch-list-fullwidth-inverted-background-pressed-center">
		<rect x="2428" y="177" style="opacity:0.2;fill:#FFFFFF;" width="67" height="67"/>
		<rect x="2428" y="243" style="fill:#FFFFFF;fill-opacity:0;" width="67" height="1"/>
		<rect x="2428" y="177" style="fill:#333333;fill-opacity:0;" width="67" height="1"/>
	</g>
	<g id="meegotouch-list-fullwidth-inverted-background-pressed-center-left">
		<rect x="2351" y="177" style="opacity:0.2;fill:#FFFFFF;" width="67" height="67"/>
		<rect x="2351" y="243" style="fill:#FFFFFF;fill-opacity:0;" width="67" height="1"/>
		<rect x="2351" y="177" style="fill:#333333;fill-opacity:0;" width="67" height="1"/>
	</g>
	<g id="meegotouch-list-fullwidth-inverted-background-pressed-top-right">
		<rect x="2505" y="100" style="opacity:0.2;fill:#FFFFFF;" width="67" height="67"/>
		<rect x="2505" y="166" style="fill:#FFFFFF;fill-opacity:0;" width="67" height="1"/>
		<rect x="2505" y="100" style="fill:#333333;fill-opacity:0;" width="67" height="1"/>
	</g>
	<g id="meegotouch-list-fullwidth-inverted-background-pressed-top-center">
		<rect x="2428" y="100" style="opacity:0.2;fill:#FFFFFF;" width="67" height="67"/>
		<rect x="2428" y="166" style="fill:#FFFFFF;fill-opacity:0;" width="67" height="1"/>
		<rect x="2428" y="100" style="fill:#333333;fill-opacity:0;" width="67" height="1"/>
	</g>
	<g id="meegotouch-list-fullwidth-inverted-background-pressed-top-left">
		<rect x="2351" y="100" style="opacity:0.2;fill:#FFFFFF;" width="67" height="67"/>
		<rect x="2351" y="166" style="fill:#FFFFFF;fill-opacity:0;" width="67" height="1"/>
		<rect x="2351" y="100" style="fill:#333333;fill-opacity:0;" width="67" height="1"/>
	</g>
	<g id="meegotouch-list-fullwidth-inverted-background">
		<rect x="2187" y="639" style="opacity:0;fill:#FFFFFF;" width="67" height="67"/>
		<rect x="2187" y="705" style="opacity:0.2;fill:#FFFFFF;" width="67" height="1"/>
		<rect x="2187" y="639" style="opacity:0.2;fill:#FFFFFF;" width="67" height="1"/>
	</g>
	<g id="meegotouch-list-fullwidth-inverted-background-vertical-bottom">
		<rect x="2187" y="562" style="opacity:0;fill:#FFFFFF;" width="67" height="67"/>
	</g>
	<g id="meegotouch-list-fullwidth-inverted-background-vertical-center">
		<rect x="2187" y="485" style="opacity:0;fill:#FFFFFF;" width="67" height="67"/>
		<rect x="2187" y="551" style="opacity:0.2;fill:#FFFFFF;" width="67" height="1"/>
	</g>
	<g id="meegotouch-list-fullwidth-inverted-background-vertical-top">
		<rect x="2187" y="410" style="opacity:0;fill:#FFFFFF;" width="67" height="65"/>
		<rect x="2187" y="474" style="opacity:0.2;fill:#FFFFFF;" width="67" height="1"/>
	</g>
	<g id="meegotouch-list-fullwidth-inverted-background-horizontal-right">
		<rect x="2264" y="331" style="opacity:0;fill:#FFFFFF;" width="67" height="67"/>
	</g>
	<g id="meegotouch-list-fullwidth-inverted-background-horizontal-center">
		<rect x="2187" y="331" style="opacity:0;fill:#FFFFFF;" width="67" height="67"/>
		<rect x="2253" y="331" style="opacity:0.2;fill:#FFFFFF;" width="1" height="67"/>
	</g>
	<g id="meegotouch-list-fullwidth-inverted-background-horizontal-left">
		<rect x="2110" y="331" style="opacity:0;fill:#FFFFFF;" width="67" height="67"/>
		<rect x="2176" y="331" style="opacity:0.2;fill:#FFFFFF;" width="1" height="67"/>
	</g>
	<g id="meegotouch-list-fullwidth-inverted-background-bottom-right">
		<rect x="2264" y="254" style="opacity:0;fill:#FFFFFF;" width="67" height="67"/>
	</g>
	<g id="meegotouch-list-fullwidth-inverted-background-bottom-center">
		<rect x="2187" y="254" style="opacity:0;fill:#FFFFFF;" width="67" height="67"/>
		<rect x="2253" y="254" style="opacity:0.2;fill:#FFFFFF;" width="1" height="67"/>
	</g>
	<g id="meegotouch-list-fullwidth-inverted-background-bottom-left">
		<rect x="2110" y="254" style="opacity:0;fill:#FFFFFF;" width="67" height="67"/>
		<rect x="2176" y="254" style="opacity:0.2;fill:#FFFFFF;" width="1" height="67"/>
	</g>
	<g id="meegotouch-list-fullwidth-inverted-background-center-right">
		<rect x="2264" y="177" style="opacity:0;fill:#FFFFFF;" width="67" height="67"/>
		<rect x="2264" y="243" style="opacity:0.2;fill:#FFFFFF;" width="67" height="1"/>
	</g>
	<g id="meegotouch-list-fullwidth-inverted-background-center">
		<rect x="2187" y="177" style="opacity:0;fill:#FFFFFF;" width="67" height="67"/>
		<rect x="2253" y="177" style="opacity:0.2;fill:#FFFFFF;" width="1" height="67"/>
		<rect x="2187" y="243" style="opacity:0.2;fill:#FFFFFF;" width="67" height="1"/>
	</g>
	<g id="meegotouch-list-fullwidth-inverted-background-center-left">
		<rect x="2110" y="177" style="opacity:0;fill:#FFFFFF;" width="67" height="67"/>
		<rect x="2176" y="177" style="opacity:0.2;fill:#FFFFFF;" width="1" height="67"/>
		<rect x="2110" y="243" style="opacity:0.2;fill:#FFFFFF;" width="67" height="1"/>
	</g>
	<g id="meegotouch-list-fullwidth-inverted-background-top-right">
		<rect x="2264" y="102" style="opacity:0;fill:#FFFFFF;" width="67" height="65"/>
		<rect x="2264" y="166" style="opacity:0.2;fill:#FFFFFF;" width="67" height="1"/>
	</g>
	<g id="meegotouch-list-fullwidth-inverted-background-top-center">
		<rect x="2187" y="100" style="opacity:0;fill:#FFFFFF;" width="67" height="67"/>
		<rect x="2253" y="101" style="opacity:0.2;fill:#FFFFFF;" width="1" height="66"/>
		<rect x="2187" y="166" style="opacity:0.2;fill:#FFFFFF;" width="67" height="1"/>
	</g>
	<g id="meegotouch-list-fullwidth-inverted-background-top-left">
		<rect x="2110" y="100" style="opacity:0;fill:#FFFFFF;" width="67" height="67"/>
		<rect x="2110" y="166" style="opacity:0.2;fill:#FFFFFF;" width="67" height="1"/>
		<rect x="2176" y="100" style="opacity:0.2;fill:#FFFFFF;" width="1" height="67"/>
	</g>
	<g id="meegotouch-countbubble-background-large">
		<g>
			<path style="fill:#1080DD;" d="M1898,155c0,5.5-4.5,10-10,10h-14c-5.5,0-10-4.5-10-10v-12c0-5.5,4.5-10,10-10h14
				c5.5,0,10,4.5,10,10V155z"/>
		</g>
	</g>
	<g id="meegotouch-countbubble-background">
		<g>
			<path style="fill:#1080DD;" d="M1854,155c0,5.5-4.5,10-10,10h-6c-5.5,0-10-4.5-10-10v-4c0-5.5,4.5-10,10-10h6c5.5,0,10,4.5,10,10
				V155z"/>
		</g>
	</g>
	<g id="meegotouch-fastscroll-background">
		<path style="opacity:0.5;fill:#221F1F;" d="M1818,165h-22c-5.5,0-10-4.5-10-10v-12c0-5.5,4.5-10,10-10h22V165z"/>
	</g>
	<g id="meegotouch-live-filter-bar-background">
		<rect x="1712" y="101" style="fill:#221F1F;" width="64" height="64"/>
	</g>
	<g id="meegotouch-list-header-background">
		<rect x="1638" y="133" style="opacity:0.05;fill:#221F1F;" width="64" height="32"/>
	</g>
	<g id="meegotouch-list-background-selected">
		<g>
			<path style="fill:#00DB00;" d="M1434,705.5c-5.238,0-9.5-4.262-9.5-9.5v-47c0-5.238,4.262-9.5,9.5-9.5h47
				c5.238,0,9.5,4.262,9.5,9.5v47c0,5.238-4.262,9.5-9.5,9.5H1434z"/>
			<path style="fill:#666666;" d="M1481,640c4.963,0,9,4.037,9,9v47c0,4.963-4.037,9-9,9h-47c-4.963,0-9-4.037-9-9v-47
				c0-4.963,4.037-9,9-9H1481 M1481,639h-47c-5.5,0-10,4.5-10,10v47c0,5.5,4.5,10,10,10h47c5.5,0,10-4.5,10-10v-47
				C1491,643.5,1486.5,639,1481,639L1481,639z"/>
		</g>
	</g>
	<g id="meegotouch-list-background-selected-vertical-bottom">
		<path style="fill:#666666;" d="M1481,629c5.5,0,10-4.5,10-10v-57h-67v57c0,5.5,4.5,10,10,10H1481z"/>
		<path style="fill:#00DB00;" d="M1490,619c0,4.963-4.037,9-9,9h-47c-4.962,0-9-4.037-9-9v-57h65V619z"/>
	</g>
	<g id="meegotouch-list-background-selected-vertical-center">
		<rect x="1424" y="485" style="fill:#666666;" width="67" height="67"/>
		<rect x="1425" y="485" style="fill:#00DB00;" width="65" height="67"/>
	</g>
	<g id="meegotouch-list-background-selected-vertical-top">
		<path style="fill:#666666;" d="M1434,408c-5.5,0-10,4.5-10,10v57h67v-57c0-5.5-4.5-10-10-10H1434z"/>
		<path style="fill:#00DB00;" d="M1425,418c0-4.963,4.038-9,9-9h47c4.963,0,9,4.037,9,9v57h-65V418z"/>
		<rect x="1425" y="474" style="opacity:0.2;" width="65" height="1"/>
	</g>
	<g id="meegotouch-list-background-selected-horizontal-right">
		<path style="fill:#666666;" d="M1568,341c0-5.5-4.5-10-10-10h-57v67h57c5.5,0,10-4.5,10-10V341z"/>
		<path style="fill:#00DB00;" d="M1558,332c4.963,0,9,4.038,9,9v47c0,4.962-4.037,9-9,9h-57v-65H1558z"/>
	</g>
	<g id="meegotouch-list-background-selected-horizontal-center">
		<rect x="1424" y="331" style="fill:#666666;" width="67" height="67"/>
		<rect x="1424" y="332" style="fill:#00DB00;" width="67" height="65"/>
		<rect x="1490" y="332" style="opacity:0.2;" width="1" height="65"/>
	</g>
	<g id="meegotouch-list-background-selected-horizontal-left">
		<path style="fill:#666666;" d="M1347,388c0,5.5,4.5,10,10,10h57v-67h-57c-5.5,0-10,4.5-10,10V388z"/>
		<path style="fill:#00DB00;" d="M1357,397c-4.963,0-9-4.038-9-9v-47c0-4.962,4.037-9,9-9h57v65H1357z"/>
		<rect x="1413" y="332" style="opacity:0.2;" width="1" height="65"/>
	</g>
	<g id="meegotouch-list-background-selected-bottom-right">
		<path style="fill:#666666;" d="M1568,311c0,5.5-4.5,10-10,10h-57v-67h67V311z"/>
		<path style="fill:#00DB00;" d="M1567,254v57c0,4.962-4.037,9-9,9h-57v-66H1567z"/>
	</g>
	<g id="meegotouch-list-background-selected-bottom-center">
		<rect x="1424" y="254" style="fill:#666666;" width="67" height="67"/>
		<rect x="1424" y="254" style="fill:#00DB00;" width="67" height="66"/>
		<rect x="1490" y="254" style="opacity:0.2;" width="1" height="66"/>
	</g>
	<g id="meegotouch-list-background-selected-bottom-left">
		<path style="fill:#666666;" d="M1357,321c-5.5,0-10-4.5-10-10v-57h67v67H1357z"/>
		<path style="fill:#00DB00;" d="M1414,320h-57c-4.962,0-9-4.038-9-9v-57h66V320z"/>
		<rect x="1412.75" y="254" style="opacity:0.2;" width="1.25" height="66"/>
	</g>
	<g id="meegotouch-list-background-selected-center-right">
		<rect x="1501" y="177" style="fill:#666666;" width="67" height="67"/>
		<rect x="1501" y="177" style="fill:#00DB00;" width="66" height="67"/>
		<rect x="1501" y="243" style="opacity:0.2;" width="66" height="1"/>
	</g>
	<g id="meegotouch-list-background-selected-center">
		<rect x="1424" y="177" style="fill:#00DB00;" width="67" height="67"/>
		<rect x="1424" y="243" style="opacity:0.2;" width="67" height="1"/>
		<rect x="1490" y="177" style="opacity:0.2;" width="1" height="67"/>
	</g>
	<g id="meegotouch-list-background-selected-center-left">
		<rect x="1347" y="177" style="fill:#666666;" width="67" height="67"/>
		<rect x="1348" y="177" style="fill:#00DB00;" width="66" height="67"/>
		<rect x="1348" y="243" style="opacity:0.2;" width="66" height="1"/>
		<rect x="1413" y="177" style="opacity:0.2;" width="1" height="67"/>
	</g>
	<g id="meegotouch-list-background-selected-top-right">
		<path style="fill:#666666;" d="M1557.5,100c5.5,0,10,4.5,10,10v57h-67v-67H1557.5z"/>
		<path style="fill:#00DB00;" d="M1500.5,101h57c4.963,0,9,4.037,9,9v57h-66V101z"/>
		<rect x="1500.5" y="165.75" style="opacity:0.2;" width="66" height="1.25"/>
	</g>
	<g id="meegotouch-list-background-selected-top-center">
		<rect x="1424" y="100" style="fill:#666666;" width="67" height="67"/>
		<rect x="1424" y="101" style="fill:#00DB00;" width="67" height="66"/>
		<rect x="1490" y="101" style="opacity:0.2;" width="1" height="66"/>
		<rect x="1425" y="165.875" style="opacity:0.2;" width="66" height="1"/>
	</g>
	<g id="meegotouch-list-background-selected-top-left">
		<path style="fill:#666666;" d="M1347,110c0-5.5,4.5-10,10-10h57v67h-67V110z"/>
		<path style="fill:#00DB00;" d="M1348,167v-57c0-4.962,4.037-9,9-9h57v66H1348z"/>
		<rect x="1412.75" y="101" style="opacity:0.2;" width="1.25" height="66"/>
		<rect x="1348" y="165.75" style="opacity:0.2;" width="66" height="1.25"/>
	</g>
	<g id="meegotouch-list-background-pressed">
		<g>
			<path style="fill:#F2F2F2;" d="M1193,705.5c-5.238,0-9.5-4.262-9.5-9.5v-47c0-5.238,4.262-9.5,9.5-9.5h47
				c5.238,0,9.5,4.262,9.5,9.5v47c0,5.238-4.262,9.5-9.5,9.5H1193z"/>
			<path style="fill:#666666;" d="M1240,640c4.963,0,9,4.037,9,9v47c0,4.963-4.037,9-9,9h-47c-4.963,0-9-4.037-9-9v-47
				c0-4.963,4.037-9,9-9H1240 M1240,639h-47c-5.5,0-10,4.5-10,10v47c0,5.5,4.5,10,10,10h47c5.5,0,10-4.5,10-10v-47
				C1250,643.5,1245.5,639,1240,639L1240,639z"/>
		</g>
		<g style="opacity:0.5;">
			<path d="M1250,696c0,5.5-4.5,10-10,10h-47c-5.5,0-10-4.5-10-10v-47c0-5.5,4.5-10,10-10h47c5.5,0,10,4.5,10,10V696z"/>
		</g>
	</g>
	<g id="meegotouch-list-background-pressed-vertical-bottom">
		<path style="fill:#666666;" d="M1240,629c5.5,0,10-4.5,10-10v-57h-67v57c0,5.5,4.5,10,10,10H1240z"/>
		<path style="fill:#F2F2F2;" d="M1249,619c0,4.963-4.037,9-9,9h-47c-4.962,0-9-4.037-9-9v-57h65V619z"/>
		<path style="opacity:0.5;" d="M1249,619c0,4.963-4.037,9-9,9h-47c-4.962,0-9-4.037-9-9v-57h65V619z"/>
	</g>
	<g id="meegotouch-list-background-pressed-vertical-center">
		<rect x="1183" y="485" style="fill:#666666;" width="67" height="67"/>
		<rect x="1184" y="485" style="fill:#F2F2F2;" width="65" height="67"/>
		<rect x="1184" y="485" style="opacity:0.5;" width="65" height="67"/>
	</g>
	<g id="meegotouch-list-background-pressed-vertical-top">
		<path style="fill:#666666;" d="M1193,408c-5.5,0-10,4.5-10,10v57h67v-57c0-5.5-4.5-10-10-10H1193z"/>
		<path style="fill:#F2F2F2;" d="M1184,418c0-4.963,4.038-9,9-9h47c4.963,0,9,4.037,9,9v57h-65V418z"/>
		<path style="opacity:0.5;" d="M1184,418c0-4.963,4.038-9,9-9h47c4.963,0,9,4.037,9,9v57h-65V418z"/>
		<rect x="1184" y="474" style="opacity:0.2;" width="65" height="1"/>
	</g>
	<g id="meegotouch-list-background-pressed-horizontal-right">
		<path style="fill:#666666;" d="M1327,341c0-5.5-4.5-10-10-10h-57v67h57c5.5,0,10-4.5,10-10V341z"/>
		<path style="fill:#F2F2F2;" d="M1317,332c4.963,0,9,4.038,9,9v47c0,4.962-4.037,9-9,9h-57v-65H1317z"/>
		<path style="opacity:0.5;" d="M1317,332c4.963,0,9,4.038,9,9v47c0,4.962-4.037,9-9,9h-57v-65H1317z"/>
	</g>
	<g id="meegotouch-list-background-pressed-horizontal-center">
		<rect x="1183" y="331" style="fill:#666666;" width="67" height="67"/>
		<rect x="1183" y="332" style="fill:#F2F2F2;" width="67" height="65"/>
		<rect x="1183" y="332" style="opacity:0.5;" width="67" height="65"/>
		<rect x="1249" y="332" style="opacity:0.2;" width="1" height="65"/>
	</g>
	<g id="meegotouch-list-background-pressed-horizontal-left">
		<path style="fill:#666666;" d="M1106,388c0,5.5,4.5,10,10,10h57v-67h-57c-5.5,0-10,4.5-10,10V388z"/>
		<path style="fill:#F2F2F2;" d="M1116,397c-4.963,0-9-4.038-9-9v-47c0-4.962,4.037-9,9-9h57v65H1116z"/>
		<path style="opacity:0.5;" d="M1116,397c-4.963,0-9-4.038-9-9v-47c0-4.962,4.037-9,9-9h57v65H1116z"/>
		<rect x="1172" y="332" style="opacity:0.2;" width="1" height="65"/>
	</g>
	<g id="meegotouch-list-background-pressed-bottom-right">
		<path style="fill:#666666;" d="M1327,311c0,5.5-4.5,10-10,10h-57v-67h67V311z"/>
		<path style="fill:#F2F2F2;" d="M1326,254v57c0,4.962-4.037,9-9,9h-57v-66H1326z"/>
		<path style="opacity:0.5;" d="M1326,254v57c0,4.962-4.037,9-9,9h-57v-66H1326z"/>
	</g>
	<g id="meegotouch-list-background-pressed-bottom-center">
		<rect x="1183" y="254" style="fill:#666666;" width="67" height="67"/>
		<rect x="1183" y="254" style="fill:#F2F2F2;" width="67" height="66"/>
		<rect x="1183" y="254" style="opacity:0.5;" width="67" height="66"/>
		<rect x="1249" y="254" style="opacity:0.2;" width="1" height="66"/>
	</g>
	<g id="meegotouch-list-background-pressed-bottom-left">
		<path style="fill:#666666;" d="M1116,321c-5.5,0-10-4.5-10-10v-57h67v67H1116z"/>
		<path style="fill:#F2F2F2;" d="M1173,320h-57c-4.962,0-9-4.038-9-9v-57h66V320z"/>
		<path style="opacity:0.5;" d="M1173,320h-57c-4.962,0-9-4.038-9-9v-57h66V320z"/>
		<rect x="1171.75" y="254" style="opacity:0.2;" width="1.25" height="66"/>
	</g>
	<g id="meegotouch-list-background-pressed-center-right">
		<rect x="1260" y="177" style="fill:#666666;" width="67" height="67"/>
		<rect x="1260" y="177" style="fill:#F2F2F2;" width="66" height="67"/>
		<rect x="1260" y="177" style="opacity:0.5;" width="66" height="67"/>
		<rect x="1260" y="243" style="opacity:0.2;" width="66" height="1"/>
	</g>
	<g id="meegotouch-list-background-pressed-center">
		<rect x="1183" y="177" style="fill:#F2F2F2;" width="67" height="67"/>
		<rect x="1183" y="177" style="opacity:0.5;" width="67" height="67"/>
		<rect x="1183" y="243" style="opacity:0.2;" width="67" height="1"/>
		<rect x="1249" y="177" style="opacity:0.2;" width="1" height="67"/>
	</g>
	<g id="meegotouch-list-background-pressed-center-left">
		<rect x="1106" y="177" style="fill:#666666;" width="67" height="67"/>
		<rect x="1107" y="177" style="fill:#F2F2F2;" width="66" height="67"/>
		<rect x="1107" y="177" style="opacity:0.5;" width="66" height="67"/>
		<rect x="1107" y="243" style="opacity:0.2;" width="66" height="1"/>
		<rect x="1172" y="177" style="opacity:0.2;" width="1" height="67"/>
	</g>
	<g id="meegotouch-list-background-pressed-top-right">
		<path style="fill:#666666;" d="M1316.5,100c5.5,0,10,4.5,10,10v57h-67v-67H1316.5z"/>
		<path style="fill:#F2F2F2;" d="M1259.5,101h57c4.963,0,9,4.037,9,9v57h-66V101z"/>
		<path style="opacity:0.5;" d="M1259.5,101h57c4.963,0,9,4.037,9,9v57h-66V101z"/>
		<rect x="1259.5" y="165.75" style="opacity:0.2;" width="66" height="1.25"/>
	</g>
	<g id="meegotouch-list-background-pressed-top-center">
		<rect x="1183" y="100" style="fill:#666666;" width="67" height="67"/>
		<rect x="1183" y="101" style="fill:#F2F2F2;" width="67" height="66"/>
		<rect x="1183" y="101" style="opacity:0.5;" width="67" height="66"/>
		<rect x="1249" y="101" style="opacity:0.2;" width="1" height="66"/>
		<rect x="1184" y="165.875" style="opacity:0.2;" width="66" height="1"/>
	</g>
	<g id="meegotouch-list-background-pressed-top-left">
		<path style="fill:#666666;" d="M1106,110c0-5.5,4.5-10,10-10h57v67h-67V110z"/>
		<path style="fill:#F2F2F2;" d="M1107,167v-57c0-4.962,4.037-9,9-9h57v66H1107z"/>
		<path style="opacity:0.5;" d="M1107,167v-57c0-4.962,4.037-9,9-9h57v66H1107z"/>
		<rect x="1171.75" y="101" style="opacity:0.2;" width="1.25" height="66"/>
		<rect x="1107" y="165.75" style="opacity:0.2;" width="66" height="1.25"/>
	</g>
	<g id="meegotouch-list-background">
		<g>
			<path style="fill:#F2F2F2;" d="M953,705.5c-5.238,0-9.5-4.262-9.5-9.5v-47c0-5.238,4.262-9.5,9.5-9.5h47
				c5.238,0,9.5,4.262,9.5,9.5v47c0,5.238-4.262,9.5-9.5,9.5H953z"/>
			<path style="fill:#666666;" d="M1000,640c4.963,0,9,4.037,9,9v47c0,4.963-4.037,9-9,9h-47c-4.963,0-9-4.037-9-9v-47
				c0-4.963,4.037-9,9-9H1000 M1000,639h-47c-5.5,0-10,4.5-10,10v47c0,5.5,4.5,10,10,10h47c5.5,0,10-4.5,10-10v-47
				C1010,643.5,1005.5,639,1000,639L1000,639z"/>
		</g>
	</g>
	<g id="meegotouch-list-background-vertical-bottom">
		<path style="fill:#666666;" d="M1000,629c5.5,0,10-4.5,10-10v-57h-67v57c0,5.5,4.5,10,10,10H1000z"/>
		<path style="fill:#F2F2F2;" d="M1009,619c0,4.963-4.038,9-9,9h-47c-4.962,0-9-4.037-9-9v-57h65V619z"/>
	</g>
	<g id="meegotouch-list-background-vertical-center">
		<rect x="943" y="485" style="fill:#666666;" width="67" height="67"/>
		<rect x="944" y="485" style="fill:#F2F2F2;" width="65" height="67"/>
	</g>
	<g id="meegotouch-list-background-vertical-top">
		<path style="fill:#666666;" d="M953,408c-5.5,0-10,4.5-10,10v57h67v-57c0-5.5-4.5-10-10-10H953z"/>
		<path style="fill:#F2F2F2;" d="M944,418c0-4.963,4.038-9,9-9h47c4.962,0,9,4.037,9,9v57h-65V418z"/>
		<rect x="944" y="474" style="opacity:0.2;" width="65" height="1"/>
	</g>
	<g id="meegotouch-list-background-horizontal-right">
		<path style="fill:#666666;" d="M1087,341c0-5.5-4.5-10-10-10h-57v67h57c5.5,0,10-4.5,10-10V341z"/>
		<path style="fill:#F2F2F2;" d="M1077,332c4.963,0,9,4.038,9,9v47c0,4.962-4.037,9-9,9h-57v-65H1077z"/>
	</g>
	<g id="meegotouch-list-background-horizontal-center">
		<rect x="943" y="331" style="fill:#666666;" width="67" height="67"/>
		<rect x="943" y="332" style="fill:#F2F2F2;" width="67" height="65"/>
		<rect x="1009" y="332" style="opacity:0.2;" width="1" height="65"/>
	</g>
	<g id="meegotouch-list-background-horizontal-left">
		<path style="fill:#666666;" d="M866,388c0,5.5,4.5,10,10,10h57v-67h-57c-5.5,0-10,4.5-10,10V388z"/>
		<path style="fill:#F2F2F2;" d="M876,397c-4.963,0-9-4.038-9-9v-47c0-4.962,4.037-9,9-9h57v65H876z"/>
		<rect x="932" y="332" style="opacity:0.2;" width="1" height="65"/>
	</g>
	<g id="meegotouch-list-background-bottom-right">
		<path style="fill:#666666;" d="M1087,311c0,5.5-4.5,10-10,10h-57v-67h67V311z"/>
		<path style="fill:#F2F2F2;" d="M1086,254v57c0,4.962-4.038,9-9,9h-57v-66H1086z"/>
	</g>
	<g id="meegotouch-list-background-bottom-center">
		<rect x="943" y="254" style="fill:#666666;" width="67" height="67"/>
		<rect x="943" y="254" style="fill:#F2F2F2;" width="67" height="66"/>
		<rect x="1009" y="254" style="opacity:0.2;" width="1" height="66"/>
	</g>
	<g id="meegotouch-list-background-bottom-left">
		<path style="fill:#666666;" d="M876,321c-5.5,0-10-4.5-10-10v-57h67v67H876z"/>
		<path style="fill:#F2F2F2;" d="M933,320h-57c-4.962,0-9-4.038-9-9v-57h66V320z"/>
		<rect x="931.75" y="254" style="opacity:0.2;" width="1.25" height="66"/>
	</g>
	<g id="meegotouch-list-background-center-right">
		<rect x="1020" y="177" style="fill:#666666;" width="67" height="67"/>
		<rect x="1020" y="177" style="fill:#F2F2F2;" width="66" height="67"/>
		<rect x="1020" y="243" style="opacity:0.2;" width="66" height="1"/>
	</g>
	<g id="meegotouch-list-background-center">
		<rect x="943" y="177" style="fill:#F2F2F2;" width="67" height="67"/>
		<rect x="943" y="243" style="opacity:0.2;" width="67" height="1"/>
		<rect x="1009" y="177" style="opacity:0.2;" width="1" height="67"/>
	</g>
	<g id="meegotouch-list-background-center-left">
		<rect x="866" y="177" style="fill:#666666;" width="67" height="67"/>
		<rect x="867" y="177" style="fill:#F2F2F2;" width="66" height="67"/>
		<rect x="867" y="243" style="opacity:0.2;" width="66" height="1"/>
		<rect x="932" y="177" style="opacity:0.2;" width="1" height="67"/>
	</g>
	<g id="meegotouch-list-background-top-right">
		<path style="fill:#666666;" d="M1076.5,100c5.5,0,10,4.5,10,10v57h-67v-67H1076.5z"/>
		<path style="fill:#F2F2F2;" d="M1019.5,101h57c4.962,0,9,4.037,9,9v57h-66V101z"/>
		<rect x="1019.5" y="165.75" style="opacity:0.2;" width="66" height="1.25"/>
	</g>
	<g id="meegotouch-list-background-top-center">
		<rect x="943" y="100" style="fill:#666666;" width="67" height="67"/>
		<rect x="943" y="101" style="fill:#F2F2F2;" width="67" height="66"/>
		<rect x="1009" y="101" style="opacity:0.2;" width="1" height="66"/>
		<rect x="944" y="165.875" style="opacity:0.2;" width="66" height="1"/>
	</g>
	<g id="meegotouch-list-background-top-left">
		<path style="fill:#666666;" d="M866,110c0-5.5,4.5-10,10-10h57v67h-67V110z"/>
		<path style="fill:#F2F2F2;" d="M867,167v-57c0-4.962,4.037-9,9-9h57v66H867z"/>
		<rect x="931.75" y="101" style="opacity:0.2;" width="1.25" height="66"/>
		<rect x="867" y="165.75" style="opacity:0.2;" width="66" height="1.25"/>
	</g>
	<g id="meegotouch-list-fullwidth-background-selected">
		<rect x="659" y="639" style="fill:#00DB00;" width="67" height="67"/>
		<linearGradient id="SVGID_2_" gradientUnits="userSpaceOnUse" x1="692.5" y1="706" x2="692.5" y2="705">
			<stop  offset="0" style="stop-color:#FFFFFF;stop-opacity:0.15"/>
			<stop  offset="1" style="stop-color:#FFFFFF;stop-opacity:0.03"/>
		</linearGradient>
		<rect x="659" y="705" style="fill:url(#SVGID_2_);" width="67" height="1"/>
		<rect x="659" y="639" style="fill:#FFFFFF;fill-opacity:0;" width="67" height="1"/>
	</g>
	<g id="meegotouch-list-fullwidth-background-selected-vertical-bottom">
		<rect x="659" y="562" style="fill:#00DB00;" width="67" height="67"/>
		<rect x="659" y="628" style="fill-opacity:0;" width="67" height="1"/>
		<rect x="659" y="562" style="fill:#FFFFFF;fill-opacity:0;" width="67" height="1"/>
	</g>
	<g id="meegotouch-list-fullwidth-background-selected-vertical-center">
		<rect x="659" y="485" style="fill:#00DB00;" width="67" height="67"/>
		<rect x="659" y="551" style="fill-opacity:0;" width="67" height="1"/>
		<rect x="659" y="485" style="fill:#FFFFFF;fill-opacity:0;" width="67" height="1"/>
	</g>
	<g id="meegotouch-list-fullwidth-background-selected-vertical-top">
		<rect x="659" y="408" style="fill:#00DB00;" width="67" height="67"/>
		<rect x="659" y="474" style="fill-opacity:0;" width="67" height="1"/>
		<rect x="659" y="408" style="fill:#FFFFFF;fill-opacity:0;" width="67" height="1"/>
	</g>
	<g id="meegotouch-list-fullwidth-background-selected-horizontal-right">
		<rect x="736" y="331" style="fill:#00DB00;" width="67" height="67"/>
		<rect x="736" y="397" style="fill-opacity:0;" width="67" height="1"/>
		<rect x="736" y="331" style="fill:#FFFFFF;fill-opacity:0;" width="67" height="1"/>
	</g>
	<g id="meegotouch-list-fullwidth-background-selected-horizontal-center">
		<rect x="659" y="331" style="fill:#00DB00;" width="67" height="67"/>
		<rect x="659" y="397" style="fill-opacity:0;" width="67" height="1"/>
		<rect x="659" y="331" style="fill:#FFFFFF;fill-opacity:0;" width="67" height="1"/>
	</g>
	<g id="meegotouch-list-fullwidth-background-selected-horizontal-left">
		<rect x="582" y="331" style="fill:#00DB00;" width="67" height="67"/>
		<rect x="582" y="397" style="fill-opacity:0;" width="67" height="1"/>
		<rect x="582" y="331" style="fill:#FFFFFF;fill-opacity:0;" width="67" height="1"/>
	</g>
	<g id="meegotouch-list-fullwidth-background-selected-bottom-right">
		<rect x="736" y="254" style="fill:#00DB00;" width="67" height="67"/>
		<rect x="736" y="320" style="fill-opacity:0;" width="67" height="1"/>
		<rect x="736" y="254" style="fill:#FFFFFF;fill-opacity:0;" width="67" height="1"/>
	</g>
	<g id="meegotouch-list-fullwidth-background-selected-bottom-center">
		<rect x="659" y="254" style="fill:#00DB00;" width="67" height="67"/>
		<rect x="659" y="320" style="fill-opacity:0;" width="67" height="1"/>
		<rect x="659" y="254" style="fill:#FFFFFF;fill-opacity:0;" width="67" height="1"/>
	</g>
	<g id="meegotouch-list-fullwidth-background-selected-bottom-left">
		<rect x="582" y="254" style="fill:#00DB00;" width="67" height="67"/>
		<rect x="582" y="320" style="fill-opacity:0;" width="67" height="1"/>
		<rect x="582" y="254" style="fill:#FFFFFF;fill-opacity:0;" width="67" height="1"/>
	</g>
	<g id="meegotouch-list-fullwidth-background-selected-center-right">
		<rect x="736" y="177" style="fill:#00DB00;" width="67" height="67"/>
		<rect x="736" y="243" style="fill-opacity:0;" width="67" height="1"/>
		<rect x="736" y="177" style="fill:#FFFFFF;fill-opacity:0;" width="67" height="1"/>
	</g>
	<g id="meegotouch-list-fullwidth-background-selected-center">
		<rect x="659" y="177" style="fill:#00DB00;" width="67" height="67"/>
		<rect x="659" y="243" style="fill-opacity:0;" width="67" height="1"/>
		<rect x="659" y="177" style="fill:#FFFFFF;fill-opacity:0;" width="67" height="1"/>
	</g>
	<g id="meegotouch-list-fullwidth-background-selected-center-left">
		<rect x="582" y="177" style="fill:#00DB00;" width="67" height="67"/>
		<rect x="582" y="243" style="fill-opacity:0;" width="67" height="1"/>
		<rect x="582" y="177" style="fill:#FFFFFF;fill-opacity:0;" width="67" height="1"/>
	</g>
	<g id="meegotouch-list-fullwidth-background-selected-top-right">
		<rect x="736" y="100" style="fill:#00DB00;" width="67" height="67"/>
		<rect x="736" y="166" style="fill-opacity:0;" width="67" height="1"/>
		<rect x="736" y="100" style="fill:#FFFFFF;fill-opacity:0;" width="67" height="1"/>
	</g>
	<g id="meegotouch-list-fullwidth-background-selected-top-center">
		<rect x="659" y="100" style="fill:#00DB00;" width="67" height="67"/>
		<rect x="659" y="166" style="fill-opacity:0;" width="67" height="1"/>
		<rect x="659" y="100" style="fill:#FFFFFF;fill-opacity:0;" width="67" height="1"/>
	</g>
	<g id="meegotouch-list-fullwidth-background-selected-top-left">
		<rect x="582" y="100" style="fill:#00DB00;" width="67" height="67"/>
		<rect x="582" y="166" style="fill-opacity:0;" width="67" height="1"/>
		<rect x="582" y="100" style="fill:#FFFFFF;fill-opacity:0;" width="67" height="1"/>
	</g>
	<g id="meegotouch-list-fullwidth-background-pressed">
		<rect x="418" y="639" style="opacity:0.5;fill:#221F1F;" width="67" height="67"/>
		<rect x="418" y="705" style="fill:#FFFFFF;fill-opacity:0;" width="67" height="1"/>
		<rect x="418" y="639" style="fill:#333333;fill-opacity:0;" width="67" height="1"/>
	</g>
	<g id="meegotouch-list-fullwidth-background-pressed-vertical-bottom">
		<rect x="418" y="562" style="opacity:0.5;fill:#221F1F;" width="67" height="67"/>
		<rect x="418" y="628" style="fill:#FFFFFF;fill-opacity:0;" width="67" height="1"/>
		<rect x="418" y="562" style="fill:#333333;fill-opacity:0;" width="67" height="1"/>
	</g>
	<g id="meegotouch-list-fullwidth-background-pressed-vertical-center">
		<rect x="418" y="485" style="opacity:0.5;fill:#221F1F;" width="67" height="67"/>
		<rect x="418" y="551" style="fill:#FFFFFF;fill-opacity:0;" width="67" height="1"/>
		<rect x="418" y="485" style="fill:#333333;fill-opacity:0;" width="67" height="1"/>
	</g>
	<g id="meegotouch-list-fullwidth-background-pressed-vetical-top">
		<rect x="418" y="408" style="opacity:0.5;fill:#221F1F;" width="67" height="67"/>
		<rect x="418" y="474" style="fill:#FFFFFF;fill-opacity:0;" width="67" height="1"/>
		<rect x="418" y="408" style="fill:#333333;fill-opacity:0;" width="67" height="1"/>
	</g>
	<g id="meegotouch-list-fullwidth-background-pressed-horizontal-right">
		<rect x="495" y="331" style="opacity:0.5;fill:#221F1F;" width="67" height="67"/>
		<rect x="495" y="397" style="fill:#FFFFFF;fill-opacity:0;" width="67" height="1"/>
		<rect x="495" y="331" style="fill:#333333;fill-opacity:0;" width="67" height="1"/>
	</g>
	<g id="meegotouch-list-fullwidth-background-pressed-horizontal-center">
		<rect x="418" y="331" style="opacity:0.5;fill:#221F1F;" width="67" height="67"/>
		<rect x="418" y="397" style="fill:#FFFFFF;fill-opacity:0;" width="67" height="1"/>
		<rect x="418" y="331" style="fill:#333333;fill-opacity:0;" width="67" height="1"/>
	</g>
	<g id="meegotouch-list-fullwidth-background-pressed-horizontal-left">
		<rect x="341" y="331" style="opacity:0.5;fill:#221F1F;" width="67" height="67"/>
		<rect x="341" y="397" style="fill:#FFFFFF;fill-opacity:0;" width="67" height="1"/>
		<rect x="341" y="331" style="fill:#333333;fill-opacity:0;" width="67" height="1"/>
	</g>
	<g id="meegotouch-list-fullwidth-background-pressed-bottom-right">
		<rect x="495" y="254" style="opacity:0.5;fill:#221F1F;" width="67" height="67"/>
		<rect x="495" y="320" style="fill:#FFFFFF;fill-opacity:0;" width="67" height="1"/>
		<rect x="495" y="254" style="fill:#333333;fill-opacity:0;" width="67" height="1"/>
	</g>
	<g id="meegotouch-list-fullwidth-background-pressed-bottom-center">
		<rect x="418" y="254" style="opacity:0.5;fill:#221F1F;" width="67" height="67"/>
		<rect x="418" y="320" style="fill:#FFFFFF;fill-opacity:0;" width="67" height="1"/>
		<rect x="418" y="254" style="fill:#333333;fill-opacity:0;" width="67" height="1"/>
	</g>
	<g id="meegotouch-list-fullwidth-background-pressed-bottom-left">
		<rect x="341" y="254" style="opacity:0.5;fill:#221F1F;" width="67" height="67"/>
		<rect x="341" y="320" style="fill:#FFFFFF;fill-opacity:0;" width="67" height="1"/>
		<rect x="341" y="254" style="fill:#333333;fill-opacity:0;" width="67" height="1"/>
	</g>
	<g id="meegotouch-list-fullwidth-background-pressed-center-right">
		<rect x="495" y="177" style="opacity:0.5;fill:#221F1F;" width="67" height="67"/>
		<rect x="495" y="243" style="fill:#FFFFFF;fill-opacity:0;" width="67" height="1"/>
		<rect x="495" y="177" style="fill:#333333;fill-opacity:0;" width="67" height="1"/>
	</g>
	<g id="meegotouch-list-fullwidth-background-pressed-center">
		<rect x="418" y="177" style="opacity:0.5;fill:#221F1F;" width="67" height="67"/>
		<rect x="418" y="243" style="fill:#FFFFFF;fill-opacity:0;" width="67" height="1"/>
		<rect x="418" y="177" style="fill:#333333;fill-opacity:0;" width="67" height="1"/>
	</g>
	<g id="meegotouch-list-fullwidth-background-pressed-center-left">
		<rect x="341" y="177" style="opacity:0.5;fill:#221F1F;" width="67" height="67"/>
		<rect x="341" y="243" style="fill:#FFFFFF;fill-opacity:0;" width="67" height="1"/>
		<rect x="341" y="177" style="fill:#333333;fill-opacity:0;" width="67" height="1"/>
	</g>
	<g id="meegotouch-list-fullwidth-background-pressed-top-right">
		<rect x="495" y="100" style="opacity:0.5;fill:#221F1F;" width="67" height="67"/>
		<rect x="495" y="166" style="fill:#FFFFFF;fill-opacity:0;" width="67" height="1"/>
		<rect x="495" y="100" style="fill:#333333;fill-opacity:0;" width="67" height="1"/>
	</g>
	<g id="meegotouch-list-fullwidth-background-pressed-top-center">
		<rect x="418" y="100" style="opacity:0.5;fill:#221F1F;" width="67" height="67"/>
		<rect x="418" y="166" style="fill:#FFFFFF;fill-opacity:0;" width="67" height="1"/>
		<rect x="418" y="100" style="fill:#333333;fill-opacity:0;" width="67" height="1"/>
	</g>
	<g id="meegotouch-list-fullwidth-background-pressed-top-left">
		<rect x="341" y="100" style="opacity:0.5;fill:#221F1F;" width="67" height="67"/>
		<rect x="341" y="166" style="fill:#FFFFFF;fill-opacity:0;" width="67" height="1"/>
		<rect x="341" y="100" style="fill:#333333;fill-opacity:0;" width="67" height="1"/>
	</g>
	<g id="meegotouch-list-fullwidth-background">
		<rect x="177" y="639" style="opacity:0;fill:#FFFFFF;" width="67" height="67"/>
		<rect x="177" y="705" style="opacity:0.2;" width="67" height="1"/>
		<rect x="177" y="639" style="opacity:0.2;" width="67" height="1"/>
	</g>
	<g id="meegotouch-list-fullwidth-background-vertical-bottom">
		<rect x="177" y="562" style="opacity:0;fill:#FFFFFF;" width="67" height="67"/>
	</g>
	<g id="meegotouch-list-fullwidth-background-vertical-center">
		<rect x="177" y="485" style="opacity:0;fill:#FFFFFF;" width="67" height="67"/>
		<rect x="177" y="551" style="opacity:0.2;" width="67" height="1"/>
	</g>
	<g id="meegotouch-list-fullwidth-background-vertical-top">
		<rect x="177" y="410" style="opacity:0;fill:#FFFFFF;" width="67" height="65"/>
		<rect x="177" y="474" style="opacity:0.2;" width="67" height="1"/>
	</g>
	<g id="meegotouch-list-fullwidth-background-horizontal-right">
		<rect x="254" y="331" style="opacity:0;fill:#FFFFFF;" width="67" height="67"/>
	</g>
	<g id="meegotouch-list-fullwidth-background-horizontal-center">
		<rect x="177" y="331" style="opacity:0;fill:#FFFFFF;" width="67" height="67"/>
		<rect x="243" y="331" style="opacity:0.2;" width="1" height="67"/>
	</g>
	<g id="meegotouch-list-fullwidth-background-horizontal-left">
		<rect x="100" y="331" style="opacity:0;fill:#FFFFFF;" width="67" height="67"/>
		<rect x="166" y="331" style="opacity:0.2;" width="1" height="67"/>
	</g>
	<g id="meegotouch-list-fullwidth-background-bottom-right">
		<rect x="254" y="254" style="opacity:0;fill:#FFFFFF;" width="67" height="67"/>
	</g>
	<g id="meegotouch-list-fullwidth-background-bottom-center">
		<rect x="177" y="254" style="opacity:0;fill:#FFFFFF;" width="67" height="67"/>
		<rect x="243" y="254" style="opacity:0.2;" width="1" height="67"/>
	</g>
	<g id="meegotouch-list-fullwidth-background-bottom-left">
		<rect x="100" y="254" style="opacity:0;fill:#FFFFFF;" width="67" height="67"/>
		<rect x="166" y="254" style="opacity:0.2;" width="1" height="67"/>
	</g>
	<g id="meegotouch-list-fullwidth-background-center-right">
		<rect x="254" y="177" style="opacity:0;fill:#FFFFFF;" width="67" height="67"/>
		<rect x="254" y="243" style="opacity:0.2;" width="67" height="1"/>
	</g>
	<g id="meegotouch-list-fullwidth-background-center">
		<rect x="177" y="177" style="opacity:0;fill:#FFFFFF;" width="67" height="67"/>
		<rect x="243" y="177" style="opacity:0.2;" width="1" height="67"/>
		<rect x="177" y="243" style="opacity:0.2;" width="67" height="1"/>
	</g>
	<g id="meegotouch-list-fullwidth-background-center-left">
		<rect x="100" y="177" style="opacity:0;fill:#FFFFFF;" width="67" height="67"/>
		<rect x="166" y="177" style="opacity:0.2;" width="1" height="67"/>
		<rect x="100" y="243" style="opacity:0.2;" width="67" height="1"/>
	</g>
	<g id="meegotouch-list-fullwidth-background-top-right">
		<rect x="254" y="102" style="opacity:0;fill:#FFFFFF;" width="67" height="65"/>
		<rect x="254" y="166" style="opacity:0.2;" width="67" height="1"/>
	</g>
	<g id="meegotouch-list-fullwidth-background-top-center">
		<rect x="177" y="100" style="opacity:0;fill:#FFFFFF;" width="67" height="67"/>
		<rect x="243" y="101" style="opacity:0.2;" width="1" height="66"/>
		<rect x="177" y="166" style="opacity:0.2;" width="67" height="1"/>
	</g>
	<g id="meegotouch-list-fullwidth-background-top-left">
		<rect x="100" y="100" style="opacity:0;fill:#FFFFFF;" width="67" height="67"/>
		<rect x="100" y="166" style="opacity:0.2;" width="67" height="1"/>
		<rect x="166" y="100" style="opacity:0.2;" width="1" height="67"/>
	</g>
</g>
</svg>
