<?xml version="1.0" encoding="UTF-8" standalone="no"?>
<!-- Generator: Adobe Illustrator 14.0.0, SVG Export Plug-In . SVG Version: 6.00 Build 43363)  -->

<svg
   xmlns:dc="http://purl.org/dc/elements/1.1/"
   xmlns:cc="http://creativecommons.org/ns#"
   xmlns:rdf="http://www.w3.org/1999/02/22-rdf-syntax-ns#"
   xmlns:svg="http://www.w3.org/2000/svg"
   xmlns="http://www.w3.org/2000/svg"
   xmlns:sodipodi="http://sodipodi.sourceforge.net/DTD/sodipodi-0.dtd"
   xmlns:inkscape="http://www.inkscape.org/namespaces/inkscape"
   version="1.1"
   id="icon-m-image-edit-contrast-brightness-layer"
   x="0px"
   y="0px"
   width="48px"
   height="48px"
   viewBox="0 0 48 48"
   style="enable-background:new 0 0 48 48;"
   xml:space="preserve"
   inkscape:version="0.48.1 r9760"
   sodipodi:docname="icon-s-image-edit-low-brightness.svg"><metadata
   id="metadata32"><rdf:RDF><cc:Work
       rdf:about=""><dc:format>image/svg+xml</dc:format><dc:type
         rdf:resource="http://purl.org/dc/dcmitype/StillImage" /></cc:Work></rdf:RDF></metadata><defs
   id="defs30" /><sodipodi:namedview
   pagecolor="#ffffff"
   bordercolor="#666666"
   borderopacity="1"
   objecttolerance="10"
   gridtolerance="10"
   guidetolerance="10"
   inkscape:pageopacity="0"
   inkscape:pageshadow="2"
   inkscape:window-width="1097"
   inkscape:window-height="849"
   id="namedview28"
   showgrid="false"
   inkscape:zoom="33.705423"
   inkscape:cx="29.083338"
   inkscape:cy="22.794915"
   inkscape:window-x="0"
   inkscape:window-y="0"
   inkscape:window-maximized="0"
   inkscape:current-layer="icon-m-image-edit-contrast-brightness" />
<g
   id="icon-m-image-edit-contrast-brightness">
	<rect
   style="fill:none;"
   width="48"
   height="48"
   id="rect4" />
	<path
   style="fill:#FFFFFF;"
   d="M24,0c-1.5,0-2.25,0.75-2.25,1.5V6c0,0.75,0.75,1.5,2.25,1.5c1.5,0,2.25-0.75,2.25-1.5V1.5   C26.25,0.75,25.5,0,24,0z"
   id="path6" />
	<path
   style="fill:#FFFFFF;"
   d="M24,40.5c-1.5,0-2.25,0.75-2.25,1.5v4.5c0,0.75,0.75,1.5,2.25,1.5c1.5,0,2.25-0.75,2.25-1.5V42   C26.25,41.25,25.5,40.5,24,40.5z"
   id="path8" />
	<path
   style="fill:#FFFFFF;"
   d="M24,40.5c-1.5,0-2.25,0.75-2.25,1.5v4.5c0,0.75,0.75,1.5,2.25,1.5c1.5,0,2.25-0.75,2.25-1.5V42   C26.25,41.25,25.5,40.5,24,40.5z"
   id="path10" />
	<path
   style="fill:#FFFFFF;"
   d="M0,24c0,1.5,0.75,2.25,1.5,2.25H6c0.75,0,1.5-0.75,1.5-2.25S6.75,21.75,6,21.75H1.5   C0.75,21.75,0,22.5,0,24z"
   id="path12" />
	<path
   style="fill:#FFFFFF;"
   d="M40.5,24c0,1.5,0.75,2.25,1.5,2.25h4.5c0.75,0,1.5-0.75,1.5-2.25s-0.75-2.25-1.5-2.25H42   C41.25,21.75,40.5,22.5,40.5,24z"
   id="path14" />
	<path
   style="fill:#FFFFFF;"
   d="M7.029,40.971C8.09,42.031,9.15,42.031,9.681,41.5l3.182-3.182c0.53-0.529,0.53-1.59-0.53-2.65   c-1.061-1.061-2.121-1.061-2.652-0.531l-3.182,3.182C5.968,38.85,5.968,39.91,7.029,40.971z"
   id="path16" />
	<path
   style="fill:#FFFFFF;"
   d="M35.668,12.332c1.06,1.061,2.121,1.061,2.65,0.531L41.5,9.682c0.53-0.531,0.53-1.592-0.529-2.652   C39.91,5.969,38.85,5.969,38.318,6.5l-3.182,3.182C34.606,10.211,34.607,11.271,35.668,12.332z"
   id="path18" />
	<path
   style="fill:#FFFFFF;"
   d="M40.971,40.971c1.061-1.061,1.061-2.121,0.529-2.652l-3.182-3.182   c-0.53-0.529-1.591-0.529-2.652,0.531c-1.06,1.061-1.06,2.121-0.529,2.651l3.182,3.182C38.849,42.031,39.91,42.031,40.971,40.971z"
   id="path20" />
	<path
   style="fill:#FFFFFF;"
   d="M12.332,12.332c1.061-1.061,1.061-2.121,0.531-2.65L9.681,6.5C9.15,5.969,8.09,5.969,7.029,7.029   S5.969,9.15,6.499,9.682l3.182,3.182C10.211,13.394,11.271,13.393,12.332,12.332z"
   id="path22" />
	<path
   style="fill:#FFFFFF;"
   d="M23.931,10.051C16.237,10.051,9.98,16.31,9.98,24s6.257,13.949,13.951,13.949   c7.69,0,13.949-6.259,13.949-13.949S31.621,10.051,23.931,10.051z M23.931,35.053c-6.096,0-11.052-4.957-11.052-11.053   s4.956-11.053,11.052-11.053c6.093,0,11.051,4.957,11.051,11.053S30.023,35.053,23.931,35.053z"
   id="path24" />
</g>
</svg>
