<?xml version="1.0" encoding="UTF-8" standalone="no"?>
<!-- Generator: Adobe Illustrator 14.0.0, SVG Export Plug-In . SVG Version: 6.00 Build 43363)  -->

<svg
   xmlns:dc="http://purl.org/dc/elements/1.1/"
   xmlns:cc="http://creativecommons.org/ns#"
   xmlns:rdf="http://www.w3.org/1999/02/22-rdf-syntax-ns#"
   xmlns:svg="http://www.w3.org/2000/svg"
   xmlns="http://www.w3.org/2000/svg"
   xmlns:sodipodi="http://sodipodi.sourceforge.net/DTD/sodipodi-0.dtd"
   xmlns:inkscape="http://www.inkscape.org/namespaces/inkscape"
   version="1.1"
   id="icon-m-common-passcode-layer"
   x="0px"
   y="0px"
   width="48px"
   height="48px"
   viewBox="0 0 48 48"
   style="enable-background:new 0 0 48 48;"
   xml:space="preserve"
   inkscape:version="0.47 r22583"
   sodipodi:docname="icon-m-common-passcode.svg"><metadata
   id="metadata12"><rdf:RDF><cc:Work
       rdf:about=""><dc:format>image/svg+xml</dc:format><dc:type
         rdf:resource="http://purl.org/dc/dcmitype/StillImage" /><dc:title></dc:title></cc:Work></rdf:RDF></metadata><defs
   id="defs10"><inkscape:perspective
     sodipodi:type="inkscape:persp3d"
     inkscape:vp_x="0 : 24 : 1"
     inkscape:vp_y="0 : 1000 : 0"
     inkscape:vp_z="48 : 24 : 1"
     inkscape:persp3d-origin="24 : 16 : 1"
     id="perspective14" /></defs><sodipodi:namedview
   pagecolor="#ffffff"
   bordercolor="#666666"
   borderopacity="1"
   objecttolerance="10"
   gridtolerance="10"
   guidetolerance="10"
   inkscape:pageopacity="0"
   inkscape:pageshadow="2"
   inkscape:window-width="899"
   inkscape:window-height="616"
   id="namedview8"
   showgrid="false"
   inkscape:zoom="5.1041667"
   inkscape:cx="24"
   inkscape:cy="25.414286"
   inkscape:window-x="144"
   inkscape:window-y="99"
   inkscape:window-maximized="0"
   inkscape:current-layer="icon-m-common-passcode_1_" />
<g
   id="icon-m-common-passcode_1_">
	
	<g
   id="g3592"><rect
     id="rect4"
     height="48"
     width="48"
     style="fill:none;" /><path
     id="path6"
     d="M35.286,12.75c-3.829,0-8.407,4.52-8.407,4.52c-0.453,0.445-1.344,0.857-1.979,0.859L2.655,18.127   c-0.635,0-1.158,0.521-1.16,1.159L1.47,25.467h1.197l3.54,3.457c0,0,1.986-2.736,2.842-3.422c1.079,0.872,3.823,4.231,3.823,4.231   s2.688-2.911,3.771-3.617c0.869,0.8,2.974,3.906,2.974,3.906s3.202-3.243,3.735-3.595c0.347-0.013,2.691,3.324,2.801,3.443   c0,0,4.848,5.379,9.134,5.379c6.203,0,11.244-5.044,11.244-11.254C46.53,17.796,41.489,12.75,35.286,12.75z M38.23,28.967   c-2.873,0-5.203-2.325-5.203-5.199c0-2.873,2.33-5.205,5.203-5.205c2.872,0,5.197,2.332,5.197,5.205   C43.428,26.642,41.103,28.967,38.23,28.967z"
     style="fill:#ffffff;fill-opacity:1" /></g>
</g>
</svg>