<?xml version="1.0" encoding="UTF-8" standalone="no"?>
<!-- Generator: Adobe Illustrator 14.0.0, SVG Export Plug-In . SVG Version: 6.00 Build 43363)  -->

<svg
   xmlns:dc="http://purl.org/dc/elements/1.1/"
   xmlns:cc="http://creativecommons.org/ns#"
   xmlns:rdf="http://www.w3.org/1999/02/22-rdf-syntax-ns#"
   xmlns:svg="http://www.w3.org/2000/svg"
   xmlns="http://www.w3.org/2000/svg"
   xmlns:sodipodi="http://sodipodi.sourceforge.net/DTD/sodipodi-0.dtd"
   xmlns:inkscape="http://www.inkscape.org/namespaces/inkscape"
   version="1.1"
   id="icon-m-settings-battery-layer"
   x="0px"
   y="0px"
   width="64px"
   height="64px"
   viewBox="0 0 64 64"
   style="enable-background:new 0 0 64 64;"
   xml:space="preserve"
   inkscape:version="0.47 r22583"
   sodipodi:docname="icon-m-settings-battery.svg"><metadata
   id="metadata16"><rdf:RDF><cc:Work
       rdf:about=""><dc:format>image/svg+xml</dc:format><dc:type
         rdf:resource="http://purl.org/dc/dcmitype/StillImage" /><dc:title></dc:title></cc:Work></rdf:RDF></metadata><defs
   id="defs14"><inkscape:perspective
     sodipodi:type="inkscape:persp3d"
     inkscape:vp_x="0 : 32 : 1"
     inkscape:vp_y="0 : 1000 : 0"
     inkscape:vp_z="64 : 32 : 1"
     inkscape:persp3d-origin="32 : 21.333333 : 1"
     id="perspective18" /></defs><sodipodi:namedview
   pagecolor="#ffffff"
   bordercolor="#666666"
   borderopacity="1"
   objecttolerance="10"
   gridtolerance="10"
   guidetolerance="10"
   inkscape:pageopacity="0"
   inkscape:pageshadow="2"
   inkscape:window-width="1123"
   inkscape:window-height="799"
   id="namedview12"
   showgrid="false"
   inkscape:zoom="4.9107143"
   inkscape:cx="36.5"
   inkscape:cy="25"
   inkscape:window-x="186"
   inkscape:window-y="0"
   inkscape:window-maximized="0"
   inkscape:current-layer="icon-m-settings-battery-layer"><inkscape:grid
     type="xygrid"
     id="grid3603" /></sodipodi:namedview>

<g
   id="g3610"><g
     id="icon-m-settings-battery">
	<rect
   id="rect4"
   height="64"
   width="64"
   style="opacity:0;fill:#FFFFFF;" />
	<g
   id="g6">
		
		
	</g>
</g><path
     id="rect2829"
     d="M 8.09375 9 C 6.3827125 9 5 10.240534 5 11.78125 L 5 51.21875 C 5 52.759466 6.3827125 54 8.09375 54 L 56.90625 54 C 58.617287 54 60 52.759466 60 51.21875 L 60 11.78125 C 60 10.240534 58.617287 9 56.90625 9 L 8.09375 9 z M 12.53125 14 L 52.46875 14 C 53.86869 14 55 14.957915 55 16.15625 L 55 46.84375 C 55 48.042085 53.86869 49 52.46875 49 L 12.53125 49 C 11.13131 49 10 48.042085 10 46.84375 L 10 16.15625 C 10 14.957915 11.13131 14 12.53125 14 z "
     style="color:#000000;fill:#ffffff;fill-opacity:1;fill-rule:nonzero;stroke-width:1;stroke-linecap:butt;stroke-linejoin:miter;stroke-miterlimit:4;stroke-opacity:1;stroke-dasharray:none;stroke-dashoffset:0;marker:none;visibility:visible;display:inline;overflow:visible;enable-background:accumulate" /><path
     sodipodi:nodetypes="cccccccccc"
     id="path3608"
     d="m 12,34.712 9.694915,-8.406915 7.593221,7.59322 L 42.305085,22.508475 53,32.542 53,46 l -1,1.186 -39,0 L 12,46 12,34.712 z"
     style="fill:#ffffff;stroke:none;stroke-width:1px;stroke-linecap:butt;stroke-linejoin:miter;stroke-opacity:1;fill-opacity:1" /></g></svg>