<?xml version="1.0" encoding="UTF-8" standalone="no"?>
<!-- Generator: Adobe Illustrator 14.0.0, SVG Export Plug-In . SVG Version: 6.00 Build 43363)  -->

<svg
   xmlns:dc="http://purl.org/dc/elements/1.1/"
   xmlns:cc="http://creativecommons.org/ns#"
   xmlns:rdf="http://www.w3.org/1999/02/22-rdf-syntax-ns#"
   xmlns:svg="http://www.w3.org/2000/svg"
   xmlns="http://www.w3.org/2000/svg"
   xmlns:sodipodi="http://sodipodi.sourceforge.net/DTD/sodipodi-0.dtd"
   xmlns:inkscape="http://www.inkscape.org/namespaces/inkscape"
   version="1.1"
   id="icon-m-settings-keyboard"
   x="0px"
   y="0px"
   width="48px"
   height="48px"
   viewBox="0 0 48 48"
   style="enable-background:new 0 0 48 48;"
   xml:space="preserve"
   inkscape:version="0.47 r22583"
   sodipodi:docname="icon-m-common-keyboard.svg"><metadata
   id="metadata12"><rdf:RDF><cc:Work
       rdf:about=""><dc:format>image/svg+xml</dc:format><dc:type
         rdf:resource="http://purl.org/dc/dcmitype/StillImage" /><dc:title></dc:title></cc:Work></rdf:RDF></metadata><defs
   id="defs10"><inkscape:perspective
     sodipodi:type="inkscape:persp3d"
     inkscape:vp_x="0 : 24 : 1"
     inkscape:vp_y="0 : 1000 : 0"
     inkscape:vp_z="48 : 24 : 1"
     inkscape:persp3d-origin="24 : 16 : 1"
     id="perspective14" /></defs><sodipodi:namedview
   pagecolor="#ffffff"
   bordercolor="#666666"
   borderopacity="1"
   objecttolerance="10"
   gridtolerance="10"
   guidetolerance="10"
   inkscape:pageopacity="0"
   inkscape:pageshadow="2"
   inkscape:window-width="852"
   inkscape:window-height="646"
   id="namedview8"
   showgrid="false"
   inkscape:zoom="5.1041667"
   inkscape:cx="17.946871"
   inkscape:cy="24"
   inkscape:window-x="0"
   inkscape:window-y="25"
   inkscape:window-maximized="0"
   inkscape:current-layer="icon-m-settings-keyboard" />
<g
   id="icon-m-settings-keyboard">
	
	<g
   id="g3592"><rect
     id="rect4"
     height="48"
     width="48"
     style="fill:none;" /><path
     id="path6"
     d="M44.878,10.451H3.121c-1.656,0-3.004,1.353-3.004,3.014v21.073c0,1.661,1.348,3.011,3.001,3.011   h41.76c1.657,0,3-1.35,3.006-3.011V13.465C47.884,11.804,46.539,10.451,44.878,10.451z M32.293,14.358h4.645v4.646h-4.645V14.358z    M33.469,21.326v4.646h-4.645v-4.646H33.469z M25.325,14.358h4.646v4.646h-4.646V14.358z M26.403,21.326v4.646h-4.646v-4.646   H26.403z M18.26,14.358h4.646v4.646H18.26V14.358z M19.244,21.326v4.646h-4.646v-4.646H19.244z M11.098,14.358h4.646v4.646h-4.646   V14.358z M4.035,14.358H8.68v4.646H4.035V14.358z M7.534,21.326h4.646v4.646H7.534V21.326z M38.168,33.811H9.975v-4.646h28.193   V33.811z M40.437,25.972h-4.646v-4.646h4.646V25.972z M44.002,19.004h-4.646v-4.646h4.646V19.004z"
     style="fill:#ffffff;fill-opacity:1" /></g>
</g>
</svg>
