<?xml version="1.0" encoding="UTF-8" standalone="no"?>
<!-- Generator: Adobe Illustrator 14.0.0, SVG Export Plug-In . SVG Version: 6.00 Build 43363)  -->

<svg
   xmlns:dc="http://purl.org/dc/elements/1.1/"
   xmlns:cc="http://creativecommons.org/ns#"
   xmlns:rdf="http://www.w3.org/1999/02/22-rdf-syntax-ns#"
   xmlns:svg="http://www.w3.org/2000/svg"
   xmlns="http://www.w3.org/2000/svg"
   xmlns:sodipodi="http://sodipodi.sourceforge.net/DTD/sodipodi-0.dtd"
   xmlns:inkscape="http://www.inkscape.org/namespaces/inkscape"
   version="1.1"
   id="icon-m-common-wlan-layer"
   x="0px"
   y="0px"
   width="47px"
   height="36px"
   viewBox="0 0 47 36"
   style="enable-background:new 0 0 47 36;"
   xml:space="preserve"
   inkscape:version="0.47 r22583"
   sodipodi:docname="icon-m-common-wlan.svg"><metadata
   id="metadata20"><rdf:RDF><cc:Work
       rdf:about=""><dc:format>image/svg+xml</dc:format><dc:type
         rdf:resource="http://purl.org/dc/dcmitype/StillImage" /><dc:title></dc:title></cc:Work></rdf:RDF></metadata><defs
   id="defs18"><inkscape:perspective
   sodipodi:type="inkscape:persp3d"
   inkscape:vp_x="0 : 18 : 1"
   inkscape:vp_y="0 : 1000 : 0"
   inkscape:vp_z="47 : 18 : 1"
   inkscape:persp3d-origin="23.5 : 12 : 1"
   id="perspective22" />
			
		
			
			
			
		</defs><sodipodi:namedview
   pagecolor="#ffffff"
   bordercolor="#666666"
   borderopacity="1"
   objecttolerance="10"
   gridtolerance="10"
   guidetolerance="10"
   inkscape:pageopacity="0"
   inkscape:pageshadow="2"
   inkscape:window-width="899"
   inkscape:window-height="689"
   id="namedview16"
   showgrid="false"
   inkscape:zoom="6.8055556"
   inkscape:cx="21.320649"
   inkscape:cy="18"
   inkscape:window-x="371"
   inkscape:window-y="71"
   inkscape:window-maximized="0"
   inkscape:current-layer="g4" />
<g
   id="icon-m-common-wlan_1_">
	<g
   id="g4">
		
		<g
   id="g3609"><circle
     id="local_5_"
     style="fill:#ffffff;fill-opacity:1"
     cx="23.386999"
     cy="31.461"
     r="4.5"
     sodipodi:cx="23.386999"
     sodipodi:cy="31.461"
     sodipodi:rx="4.5"
     sodipodi:ry="4.5" /><g
     id="g3604"><path
       id="path10"
       d="M 33.468,22.471 C 30.91,19.729 27.28,18.004 23.246,18.002 19.28,18.004 15.701,19.67 13.151,22.33 c 0,0 -0.312,0.33 -0.312,0.842 0,0.701 0.569,1.268 1.268,1.268 0.402,0 0.746,-0.199 0.978,-0.492 2.086,-2.113 4.967,-3.439 8.158,-3.443 h 0.005 c 3.307,0.004 6.28,1.428 8.381,3.674 0.23,0.33 0.593,0.561 1.023,0.561 0.701,0 1.269,-0.568 1.269,-1.27 0,-0.396 -0.453,-0.999 -0.453,-0.999 z"
       style="fill:#ffffff;fill-opacity:1" /><path
       id="path12"
       d="M 39.499,15.797 C 35.332,11.619 29.599,9.004 23.248,9.002 16.801,9.004 10.973,11.681 6.791,15.97 c 0,0 -0.438,0.358 -0.438,0.962 0,0.699 0.568,1.268 1.268,1.268 0.384,0 0.716,-0.18 0.949,-0.45 v 0.001 c 3.729,-3.836 8.928,-6.236 14.675,-6.246 h 0.004 c 5.815,0.01 11.063,2.471 14.8,6.385 0,0 0.332,0.311 0.905,0.311 0.7,0 1.268,-0.568 1.268,-1.268 0,-0.504 -0.312,-0.816 -0.723,-1.136 z"
       style="fill:#ffffff;fill-opacity:1" /><path
       id="path14"
       d="M 46.198,9.74 46.199,9.738 C 46.197,9.735 46.195,9.735 46.193,9.732 46.141,9.67 46.086,9.617 46.023,9.566 40.215,3.672 32.152,0.002 23.245,0 14.322,0.004 6.244,3.682 0.435,9.594 0.172,9.828 0,10.156 0,10.534 c 0,0.7 0.568,1.268 1.269,1.268 0.623,0 0.945,-0.408 0.945,-0.408 C 7.572,5.93 15.018,2.517 23.242,2.502 h 0.004 c 8.294,0.017 15.791,3.486 21.159,9.031 0,0 0.395,0.269 0.827,0.269 0.7,0 1.268,-0.567 1.268,-1.268 0,-0.305 -0.121,-0.575 -0.302,-0.794 z"
       style="fill:#ffffff;fill-opacity:1" /></g></g>
	</g>
</g>
</svg>