<?xml version="1.0" encoding="UTF-8" standalone="no"?>
<!-- Generator: Adobe Illustrator 14.0.0, SVG Export Plug-In . SVG Version: 6.00 Build 43363)  -->

<svg
   xmlns:dc="http://purl.org/dc/elements/1.1/"
   xmlns:cc="http://creativecommons.org/ns#"
   xmlns:rdf="http://www.w3.org/1999/02/22-rdf-syntax-ns#"
   xmlns:svg="http://www.w3.org/2000/svg"
   xmlns="http://www.w3.org/2000/svg"
   xmlns:sodipodi="http://sodipodi.sourceforge.net/DTD/sodipodi-0.dtd"
   xmlns:inkscape="http://www.inkscape.org/namespaces/inkscape"
   version="1.1"
   id="icon-m-settings-battery-layer"
   x="0px"
   y="0px"
   width="64px"
   height="64px"
   viewBox="0 0 64 64"
   style="enable-background:new 0 0 64 64;"
   xml:space="preserve"
   inkscape:version="0.47 r22583"
   sodipodi:docname="icon-m-settings-feedback.svg"><metadata
   id="metadata16"><rdf:RDF><cc:Work
       rdf:about=""><dc:format>image/svg+xml</dc:format><dc:type
         rdf:resource="http://purl.org/dc/dcmitype/StillImage" /><dc:title></dc:title></cc:Work></rdf:RDF></metadata><defs
   id="defs14"><inkscape:perspective
     sodipodi:type="inkscape:persp3d"
     inkscape:vp_x="0 : 32 : 1"
     inkscape:vp_y="0 : 1000 : 0"
     inkscape:vp_z="64 : 32 : 1"
     inkscape:persp3d-origin="32 : 21.333333 : 1"
     id="perspective18" /></defs><sodipodi:namedview
   pagecolor="#ffffff"
   bordercolor="#666666"
   borderopacity="1"
   objecttolerance="10"
   gridtolerance="10"
   guidetolerance="10"
   inkscape:pageopacity="0"
   inkscape:pageshadow="2"
   inkscape:window-width="1123"
   inkscape:window-height="799"
   id="namedview12"
   showgrid="false"
   inkscape:zoom="5"
   inkscape:cx="37.5"
   inkscape:cy="24"
   inkscape:window-x="186"
   inkscape:window-y="0"
   inkscape:window-maximized="0"
   inkscape:current-layer="icon-m-settings-battery-layer"><inkscape:grid
     type="xygrid"
     id="grid3603" /></sodipodi:namedview>

<g
   id="g3736"
   transform="matrix(0.83787863,0,0,0.83787863,5.2830379,4.9107944)" /><rect
   style="opacity:0;color:#000000;fill:#505050;fill-opacity:1;fill-rule:nonzero;stroke:none;stroke-width:1;marker:none;visibility:visible;display:inline;overflow:visible;enable-background:accumulate"
   id="rect3639"
   width="64"
   height="64"
   x="0"
   y="-7.5200263e-16" /><g
   id="g3610"
   style="fill:#505050;fill-opacity:1;opacity:0.79039301"><g
     id="icon-m-settings-battery"
     style="fill:#505050;fill-opacity:1">
	<rect
   y="0"
   x="0"
   id="rect4"
   height="64"
   width="64"
   style="opacity:0;fill:#505050;fill-opacity:1" />
	<g
   id="g6"
   style="fill:#505050;fill-opacity:1">
		
		
	</g>
</g></g><g
   id="g3825"
   transform="matrix(1.1364734,0,0,1.1364734,-2.5191608,-3.5620434)"><path
     sodipodi:nodetypes="ccsssscccccc"
     id="path3758"
     d="m 40.49375,13.29375 c -4.631086,-0.918 -16.503418,-0.07312 -18.2125,1.3625 l 5.78125,26.1875 c 0.125448,0.568245 -1.183679,0.129513 -1.78125,0.28125 -4.251233,1.079486 -7.164299,4.102607 -6.5,6.71875 0.664299,2.616143 4.655017,3.860736 8.90625,2.78125 4.168013,-1.058354 7.046269,-3.983855 6.53125,-6.5625 L 35.1875,43.90625 c -0.0025,-0.0098 0.0026,-0.02148 0,-0.03125 0,0 -4.440735,-16.222907 -4.09375,-18.65625 2.300645,-1.908369 12.1875,-0.65625 12.1875,-0.65625 1.042476,-3.196133 -0.804421,-8.875734 -2.7875,-11.26875 z"
     style="color:#000000;fill:#ffffff;fill-opacity:1;fill-rule:nonzero;stroke:none;stroke-width:6;marker:none;visibility:visible;display:inline;overflow:visible;enable-background:accumulate" /><path
     id="path3770"
     d="m 39.735874,44.058542 c 6.129093,-5.35334 4.223509,-10.610283 4.223509,-10.610283"
     style="fill:none;stroke:#ffffff;stroke-width:2;stroke-linecap:round;stroke-linejoin:round;stroke-miterlimit:4;stroke-opacity:1;stroke-dasharray:none" /><path
     style="fill:none;stroke:#ffffff;stroke-width:2.68404841;stroke-linecap:round;stroke-linejoin:round;stroke-miterlimit:4;stroke-opacity:1;stroke-dasharray:none"
     d="m 42.725171,47.381973 c 8.246622,-7.165816 5.682682,-14.202598 5.682682,-14.202598"
     id="path3772" /><path
     style="fill:none;stroke:#ffffff;stroke-width:2;stroke-linecap:round;stroke-linejoin:round;stroke-miterlimit:4;stroke-opacity:1;stroke-dasharray:none"
     d="m 18.985813,22.831648 c -5.35695,6.125938 -2.76451,11.080326 -2.76451,11.080326"
     id="path3774" /><path
     id="path3776"
     d="M 15.578363,19.938488 C 8.3656907,28.14416 11.848915,34.774185 11.848915,34.774185"
     style="fill:none;stroke:#ffffff;stroke-width:2.68404841;stroke-linecap:round;stroke-linejoin:round;stroke-miterlimit:4;stroke-opacity:1;stroke-dasharray:none" /></g></svg>