<?xml version="1.0" encoding="UTF-8" standalone="no"?>
<!-- Generator: Adobe Illustrator 14.0.0, SVG Export Plug-In . SVG Version: 6.00 Build 43363)  -->

<svg
   xmlns:dc="http://purl.org/dc/elements/1.1/"
   xmlns:cc="http://creativecommons.org/ns#"
   xmlns:rdf="http://www.w3.org/1999/02/22-rdf-syntax-ns#"
   xmlns:svg="http://www.w3.org/2000/svg"
   xmlns="http://www.w3.org/2000/svg"
   xmlns:sodipodi="http://sodipodi.sourceforge.net/DTD/sodipodi-0.dtd"
   xmlns:inkscape="http://www.inkscape.org/namespaces/inkscape"
   version="1.1"
   id="icon-m-toolbar-back-landscape-white-selected"
   x="0px"
   y="0px"
   width="32px"
   height="32px"
   viewBox="0 0 32 32"
   style="enable-background:new 0 0 32 32;"
   xml:space="preserve"
   inkscape:version="0.48.1 r9760"
   sodipodi:docname="icon-m-toolbar-back-landscape-white-selected.svg"><metadata
   id="metadata13"><rdf:RDF><cc:Work
       rdf:about=""><dc:format>image/svg+xml</dc:format><dc:type
         rdf:resource="http://purl.org/dc/dcmitype/StillImage" /></cc:Work></rdf:RDF></metadata><defs
   id="defs11" /><sodipodi:namedview
   pagecolor="#ffffff"
   bordercolor="#666666"
   borderopacity="1"
   objecttolerance="10"
   gridtolerance="10"
   guidetolerance="10"
   inkscape:pageopacity="0"
   inkscape:pageshadow="2"
   inkscape:window-width="1054"
   inkscape:window-height="917"
   id="namedview9"
   showgrid="false"
   inkscape:zoom="9.4375"
   inkscape:cx="-3.3377483"
   inkscape:cy="17.324503"
   inkscape:window-x="0"
   inkscape:window-y="0"
   inkscape:window-maximized="0"
   inkscape:current-layer="icon-m-toolbar-back-white" />
<g
   id="g3">
	<rect
   style="fill:none;"
   width="32"
   height="32"
   id="rect5" />
	<path
   style="fill:#000000;fill-opacity:0.08050848"
   d="m 19.131,31.5 c 0.836,0 4.331,-0.17 7.165,-2.878 2.396,-2.289 3.594,-4.824 3.599,-9.231 l 0.018,-0.082 c -0.004,-4.408 -1.22,-7 -3.616,-9.288 -2.834,-2.71 -6.329,-2.741 -7.165,-2.741 -0.053,0 -8.073,0 -8.073,0 V 4.139 c 0,-0.477 0,-0.896 -0.897,-0.447 L 2.537,8.176 c 0,0 -0.449,0.448 -0.449,0.674 0,0.201 0.449,0.674 0.449,0.674 l 7.624,4.932 c 0.897,0.449 0.897,0.029 0.897,-0.447 v -3.187 l 8.073,0.045 c 0,0 2.726,-0.316 4.799,1.693 1.666,1.613 2.375,3.422 2.377,6.831 -0.002,3.406 -0.711,5.077 -2.377,6.691 -2.073,2.011 -4.78,1.831 -4.799,1.828 H 8.366 c -0.897,0 -0.897,0.896 -0.897,0.896 v 1.796 c 0,0 0,0.897 0.897,0.897 h 10.765 z"
   id="path7"
   inkscape:connector-curvature="0" />
</g>
</svg>
