<?xml version="1.0" encoding="UTF-8" standalone="no"?>
<!-- Generator: Adobe Illustrator 15.0.2, SVG Export Plug-In . SVG Version: 6.00 Build 0)  -->

<svg
   xmlns:dc="http://purl.org/dc/elements/1.1/"
   xmlns:cc="http://creativecommons.org/ns#"
   xmlns:rdf="http://www.w3.org/1999/02/22-rdf-syntax-ns#"
   xmlns:svg="http://www.w3.org/2000/svg"
   xmlns="http://www.w3.org/2000/svg"
   xmlns:sodipodi="http://sodipodi.sourceforge.net/DTD/sodipodi-0.dtd"
   xmlns:inkscape="http://www.inkscape.org/namespaces/inkscape"
   version="1.1"
   id="meegotouch-button-layer"
   x="0px"
   y="0px"
   width="1810px"
   height="690px"
   viewBox="0 0 1810 690"
   style="enable-background:new 0 0 1810 690;"
   xml:space="preserve"
   inkscape:version="0.47 r22583"
   sodipodi:docname="meegotouch-button.svg"><metadata
   id="metadata675"><rdf:RDF><cc:Work
       rdf:about=""><dc:format>image/svg+xml</dc:format><dc:type
         rdf:resource="http://purl.org/dc/dcmitype/StillImage" /></cc:Work></rdf:RDF></metadata><defs
   id="defs673"><inkscape:perspective
     sodipodi:type="inkscape:persp3d"
     inkscape:vp_x="0 : 345 : 1"
     inkscape:vp_y="0 : 1000 : 0"
     inkscape:vp_z="1810 : 345 : 1"
     inkscape:persp3d-origin="905 : 230 : 1"
     id="perspective677" /></defs><sodipodi:namedview
   pagecolor="#ffffff"
   bordercolor="#666666"
   borderopacity="1"
   objecttolerance="10"
   gridtolerance="10"
   guidetolerance="10"
   inkscape:pageopacity="0"
   inkscape:pageshadow="2"
   inkscape:window-width="1270"
   inkscape:window-height="802"
   id="namedview671"
   showgrid="true"
   inkscape:zoom="1"
   inkscape:cx="1118.1582"
   inkscape:cy="475.20253"
   inkscape:window-x="0"
   inkscape:window-y="0"
   inkscape:window-maximized="0"
   inkscape:current-layer="meegotouch-button"><inkscape:grid
     type="xygrid"
     id="grid3483" /></sodipodi:namedview>
<g
   id="meegotouch-button">
	<g
   id="_x23_ButtonThemeTemplateHelper">
		<g
   id="g5">
			<path
   d="M922,689.5c-6.341,0-11.5-5.159-11.5-11.5V12c0-6.341,5.159-11.5,11.5-11.5h876c6.341,0,11.5,5.159,11.5,11.5v666     c0,6.341-5.159,11.5-11.5,11.5H922z"
   id="path7" />
			<path
   style="fill:#929497;"
   d="M1798,1c6.065,0,11,4.935,11,11v666c0,6.065-4.935,11-11,11H922c-6.065,0-11-4.935-11-11V12     c0-6.065,4.935-11,11-11H1798 M1798,0H922c-6.6,0-12,5.4-12,12v666c0,6.6,5.4,12,12,12h876c6.6,0,12-5.4,12-12V12     C1810,5.4,1804.6,0,1798,0L1798,0z"
   id="path9" />
		</g>
		<g
   id="g11">
			<path
   style="fill:#FFFFFF;"
   d="M1132.021,51.104V24.899h7.667c4.284,0,7.271,1.583,7.271,6.335c0,2.88-1.295,4.859-4.104,6.047     c3.385,0.864,4.896,2.988,4.896,6.443c0,5.399-3.527,7.379-8.604,7.379H1132.021z M1138.141,36.238     c2.052,0,3.06-0.396,3.815-1.116c0.792-0.756,1.151-1.944,1.151-3.528c0-1.367-0.359-2.411-1.008-3.095     c-0.647-0.685-1.547-1.044-3.419-1.044h-2.88v8.783H1138.141z M1138.32,48.549c2.376,0,3.348-0.324,4.104-0.937     c1.008-0.792,1.404-2.124,1.404-3.995c0-1.584-0.396-2.771-1.116-3.564c-0.827-0.899-2.016-1.295-4.212-1.295h-2.699v9.791     H1138.32z"
   id="path13" />
			<path
   style="fill:#FFFFFF;"
   d="M1164.096,48.08c-1.296,2.232-3.383,3.312-5.939,3.312c-4.283,0-6.227-2.34-6.227-6.516V30.658     h3.743v13.606c0,2.521,0.647,4.607,3.239,4.607c3.168,0,4.283-2.88,4.283-5.579V30.658h3.744v20.445h-2.088L1164.096,48.08z"
   id="path15" />
			<path
   style="fill:#FFFFFF;"
   d="M1182.059,50.744c-1.439,0.396-2.951,0.648-4.427,0.648c-3.239,0-4.607-1.477-4.607-4.68V33.178     h-2.483v-2.52h2.52l1.476-4.895h2.231v4.895h4.968v2.52h-4.968v12.887c0,1.656,0.288,2.736,2.195,2.736     c1.045,0,2.088-0.252,3.096-0.504V50.744z"
   id="path17" />
			<path
   style="fill:#FFFFFF;"
   d="M1194.911,50.744c-1.439,0.396-2.952,0.648-4.427,0.648c-3.24,0-4.607-1.477-4.607-4.68V33.178     h-2.484v-2.52h2.52l1.477-4.895h2.231v4.895h4.968v2.52h-4.968v12.887c0,1.656,0.288,2.736,2.195,2.736     c1.044,0,2.088-0.252,3.096-0.504V50.744z"
   id="path19" />
			<path
   style="fill:#FFFFFF;"
   d="M1205.207,51.393c-6.551,0-8.242-5.256-8.242-10.836c0-5.398,2.268-10.186,8.242-10.186     c6.012,0,8.244,4.679,8.244,10.258C1213.451,46.856,1211.219,51.393,1205.207,51.393z M1205.207,32.891     c-3.852,0-4.355,4.787-4.355,7.559c0,2.844,0.396,8.423,4.355,8.423c3.996,0,4.355-4.896,4.355-8.423     C1209.562,37.822,1208.807,32.891,1205.207,32.891z"
   id="path21" />
			<path
   style="fill:#FFFFFF;"
   d="M1220.904,33.682c1.295-2.23,3.383-3.311,5.939-3.311c4.283,0,6.227,2.34,6.227,6.515v14.218     h-3.743V37.498c0-2.52-0.647-4.607-3.239-4.607c-3.168,0-4.284,2.879-4.284,5.579v12.634h-3.743V30.658h2.088L1220.904,33.682z"
   id="path23" />
			<path
   style="fill:#FFFFFF;"
   d="M1248.982,33.646c-1.368-0.469-2.808-0.756-4.283-0.756c-1.943,0-3.42,0.756-3.42,2.879     c0,1.656,1.512,2.484,3.564,3.456c2.34,1.116,4.787,2.483,4.787,6.011c0,4.5-3.168,6.156-7.235,6.156     c-1.764,0-3.527-0.289-5.256-0.685v-2.7c1.62,0.433,3.349,0.864,5.004,0.864c2.159,0,3.779-0.756,3.779-3.132     c0-1.943-1.476-2.771-3.563-3.779c-2.268-1.115-4.787-2.34-4.787-5.831c0-3.888,3.203-5.759,6.73-5.759     c1.584,0,3.168,0.18,4.68,0.647V33.646z"
   id="path25" />
			<path
   style="fill:#FFFFFF;"
   d="M1266.91,51.104h-3.743V33.178h-2.34v-2.52h6.083V51.104z M1265.039,27.743     c-1.188,0-2.124-0.937-2.124-2.124s0.937-2.123,2.124-2.123c1.152,0,2.123,0.971,2.123,2.123     C1267.162,26.807,1266.227,27.743,1265.039,27.743z"
   id="path27" />
			<path
   style="fill:#FFFFFF;"
   d="M1275.442,33.682c1.296-2.23,3.384-3.311,5.939-3.311c4.284,0,6.228,2.34,6.228,6.515v14.218     h-3.744V37.498c0-2.52-0.647-4.607-3.239-4.607c-3.167,0-4.284,2.879-4.284,5.579v12.634h-3.742V30.658h2.087L1275.442,33.682z"
   id="path29" />
			<path
   style="fill:#FFFFFF;"
   d="M1307.049,30.658l-6.155,20.445h-4.247l-5.904-20.445h3.816l4.464,16.954l4.643-16.954H1307.049z"
   id="path31" />
			<path
   style="fill:#FFFFFF;"
   d="M1323.609,50.527c-1.837,0.576-3.779,0.865-5.724,0.865c-6.624,0-8.531-4.607-8.531-10.547     c0-5.111,2.017-10.475,7.919-10.475c6.659,0,7.091,6.191,7.091,11.338h-11.05c0,3.455,0.828,7.127,5.075,7.127     c1.764,0,3.527-0.396,5.22-0.863V50.527z M1320.693,39.405c0-2.304-0.18-6.515-3.42-6.515c-3.312,0-3.815,4.067-3.959,6.515     H1320.693z"
   id="path33" />
			<path
   style="fill:#FFFFFF;"
   d="M1331.854,34.078c1.26-2.592,3.168-3.6,5.938-3.6c0.252,0,0.541,0,0.828,0.036v3.419     c-0.468-0.035-0.899-0.035-1.332-0.035c-3.167,0-4.643,1.439-4.643,4.751v12.454h-3.744V30.658h2.088L1331.854,34.078z"
   id="path35" />
			<path
   style="fill:#FFFFFF;"
   d="M1351.761,50.744c-1.439,0.396-2.952,0.648-4.427,0.648c-3.24,0-4.607-1.477-4.607-4.68V33.178     h-2.484v-2.52h2.52l1.477-4.895h2.231v4.895h4.968v2.52h-4.968v12.887c0,1.656,0.288,2.736,2.195,2.736     c1.044,0,2.088-0.252,3.096-0.504V50.744z"
   id="path37" />
			<path
   style="fill:#FFFFFF;"
   d="M1368.068,50.527c-1.836,0.576-3.779,0.865-5.723,0.865c-6.624,0-8.531-4.607-8.531-10.547     c0-5.111,2.016-10.475,7.919-10.475c6.659,0,7.091,6.191,7.091,11.338h-11.051c0,3.455,0.828,7.127,5.076,7.127     c1.764,0,3.527-0.396,5.219-0.863V50.527z M1365.152,39.405c0-2.304-0.18-6.515-3.419-6.515c-3.312,0-3.815,4.067-3.96,6.515     H1365.152z"
   id="path39" />
			<path
   style="fill:#FFFFFF;"
   d="M1385.348,48.584c-1.26,2.124-3.131,2.809-5.543,2.809c-6.191,0-7.307-5.544-7.307-10.619     c0-4.752,1.836-10.402,7.523-10.402c1.691,0,3.311,0.432,4.427,1.764v-8.855h3.743v27.824h-2.052L1385.348,48.584z      M1380.597,32.891c-3.888,0-4.212,4.932-4.212,7.811c0,2.699,0.288,8.171,4.067,8.171c4.392,0,4.104-5.039,4.104-8.206     C1384.557,37.822,1384.557,32.891,1380.597,32.891z"
   id="path41" />
		</g>
		<g
   id="g43">
			<path
   style="fill:#F0F0F1;"
   d="M12,689.5c-6.341,0-11.5-5.159-11.5-11.5V12C0.5,5.659,5.659,0.5,12,0.5h876     c6.341,0,11.5,5.159,11.5,11.5v666c0,6.341-5.159,11.5-11.5,11.5H12z"
   id="path45" />
			<path
   style="fill:#929497;"
   d="M888,1c6.065,0,11,4.935,11,11v666c0,6.065-4.935,11-11,11H12c-6.065,0-11-4.935-11-11V12     C1,5.935,5.935,1,12,1H888 M888,0H12C5.4,0,0,5.4,0,12v666c0,6.6,5.4,12,12,12h876c6.6,0,12-5.4,12-12V12C900,5.4,894.6,0,888,0     L888,0z"
   id="path47" />
		</g>
		<g
   id="g49">
			<path
   d="M291.987,51.104V24.899h7.667c4.284,0,7.271,1.583,7.271,6.335c0,2.88-1.296,4.859-4.104,6.047     c3.384,0.864,4.896,2.988,4.896,6.443c0,5.399-3.527,7.379-8.603,7.379H291.987z M298.106,36.238c2.052,0,3.06-0.396,3.815-1.116     c0.792-0.756,1.152-1.944,1.152-3.528c0-1.368-0.36-2.412-1.008-3.095c-0.648-0.684-1.548-1.044-3.419-1.044h-2.88v8.783H298.106     z M298.286,48.548c2.375,0,3.348-0.324,4.104-0.936c1.008-0.792,1.404-2.124,1.404-3.996c0-1.583-0.396-2.771-1.116-3.563     c-0.828-0.9-2.016-1.296-4.211-1.296h-2.7v9.791H298.286z"
   id="path51" />
			<path
   d="M324.061,48.081c-1.296,2.231-3.383,3.312-5.939,3.312c-4.284,0-6.228-2.34-6.228-6.515V30.659h3.744v13.606     c0,2.52,0.648,4.607,3.24,4.607c3.167,0,4.283-2.879,4.283-5.579V30.659h3.744v20.445h-2.088L324.061,48.081z"
   id="path53" />
			<path
   d="M342.024,50.744c-1.439,0.396-2.952,0.648-4.427,0.648c-3.24,0-4.607-1.476-4.607-4.68V33.178h-2.484v-2.52h2.52     l1.476-4.896h2.232v4.896h4.967v2.52h-4.967v12.886c0,1.656,0.288,2.736,2.195,2.736c1.044,0,2.088-0.252,3.096-0.504V50.744z"
   id="path55" />
			<path
   d="M354.876,50.744c-1.44,0.396-2.952,0.648-4.427,0.648c-3.24,0-4.607-1.476-4.607-4.68V33.178h-2.484v-2.52h2.52     l1.476-4.896h2.232v4.896h4.967v2.52h-4.967v12.886c0,1.656,0.288,2.736,2.195,2.736c1.044,0,2.088-0.252,3.096-0.504V50.744z"
   id="path57" />
			<path
   d="M365.173,51.392c-6.551,0-8.243-5.255-8.243-10.835c0-5.399,2.268-10.187,8.243-10.187c6.011,0,8.243,4.679,8.243,10.259     C373.416,46.856,371.184,51.392,365.173,51.392z M365.173,32.89c-3.852,0-4.355,4.788-4.355,7.559     c0,2.844,0.396,8.423,4.355,8.423c3.996,0,4.355-4.895,4.355-8.423C369.528,37.822,368.772,32.89,365.173,32.89z"
   id="path59" />
			<path
   d="M380.869,33.682c1.296-2.231,3.384-3.312,5.939-3.312c4.284,0,6.227,2.34,6.227,6.515v14.218h-3.743V37.498     c0-2.52-0.648-4.607-3.24-4.607c-3.167,0-4.284,2.88-4.284,5.58v12.634h-3.743V30.659h2.087L380.869,33.682z"
   id="path61" />
			<path
   d="M408.947,33.646c-1.368-0.468-2.808-0.756-4.283-0.756c-1.944,0-3.419,0.756-3.419,2.88c0,1.656,1.512,2.483,3.563,3.456     c2.34,1.116,4.787,2.483,4.787,6.011c0,4.5-3.167,6.155-7.235,6.155c-1.764,0-3.527-0.288-5.255-0.684v-2.7     c1.62,0.432,3.348,0.864,5.003,0.864c2.16,0,3.779-0.756,3.779-3.131c0-1.944-1.476-2.771-3.563-3.78     c-2.268-1.116-4.787-2.339-4.787-5.831c0-3.888,3.204-5.759,6.731-5.759c1.584,0,3.167,0.18,4.679,0.648V33.646z"
   id="path63" />
		</g>
	</g>
	<g
   id="meegotouch-button-accent-inverted-background-disabled"
   style="opacity:0.4;">
		<g
   id="g66">
			<path
   style="fill:#8080FF;"
   d="M1385,636.5c-5.238,0-9.5-4.262-9.5-9.5v-31c0-5.238,4.262-9.5,9.5-9.5h31     c5.238,0,9.5,4.262,9.5,9.5v31c0,5.238-4.262,9.5-9.5,9.5H1385z"
   id="path68" />
			<path
   style="fill:#333333;"
   d="M1416,587c4.963,0,9,4.037,9,9v31c0,4.963-4.037,9-9,9h-31c-4.963,0-9-4.037-9-9v-31     c0-4.963,4.037-9,9-9H1416 M1416,586h-31c-5.5,0-10,4.5-10,10v31c0,5.5,4.5,10,10,10h31c5.5,0,10-4.5,10-10v-31     C1426,590.5,1421.5,586,1416,586L1416,586z"
   id="path70" />
		</g>
	</g>
	<g
   id="meegotouch-button-accent-inverted-background-pressed">
		<g
   id="g73">
			<path
   style="fill:#8080FF;"
   d="M1385,576.5c-5.238,0-9.5-4.262-9.5-9.5v-31c0-5.238,4.262-9.5,9.5-9.5h31     c5.238,0,9.5,4.262,9.5,9.5v31c0,5.238-4.262,9.5-9.5,9.5H1385z"
   id="path75" />
			<path
   style="fill:#333333;"
   d="M1416,527c4.963,0,9,4.037,9,9v31c0,4.963-4.037,9-9,9h-31c-4.963,0-9-4.037-9-9v-31     c0-4.963,4.037-9,9-9H1416 M1416,526h-31c-5.5,0-10,4.5-10,10v31c0,5.5,4.5,10,10,10h31c5.5,0,10-4.5,10-10v-31     C1426,530.5,1421.5,526,1416,526L1416,526z"
   id="path77" />
		</g>
		<g
   style="opacity:0.5;"
   id="g79">
			<path
   d="M1426,567c0,5.5-4.5,10-10,10h-31c-5.5,0-10-4.5-10-10v-31c0-5.5,4.5-10,10-10h31c5.5,0,10,4.5,10,10V567z"
   id="path81" />
		</g>
	</g>
	<g
   id="meegotouch-button-accent-inverted-background">
		<g
   id="g84">
			<path
   style="fill:#8080FF;"
   d="M1385,516.5c-5.238,0-9.5-4.262-9.5-9.5v-31c0-5.238,4.262-9.5,9.5-9.5h31     c5.238,0,9.5,4.262,9.5,9.5v31c0,5.238-4.262,9.5-9.5,9.5H1385z"
   id="path86" />
			<path
   style="fill:#333333;"
   d="M1416,467c4.963,0,9,4.037,9,9v31c0,4.963-4.037,9-9,9h-31c-4.963,0-9-4.037-9-9v-31     c0-4.963,4.037-9,9-9H1416 M1416,466h-31c-5.5,0-10,4.5-10,10v31c0,5.5,4.5,10,10,10h31c5.5,0,10-4.5,10-10v-31     C1426,470.5,1421.5,466,1416,466L1416,466z"
   id="path88" />
		</g>
	</g>
	<g
   id="meegotouch-button-negative-inverted-background-disabled"
   style="opacity:0.4;">
		<g
   id="g91">
			<path
   style="fill:#C80000;"
   d="M1325,636.5c-5.238,0-9.5-4.262-9.5-9.5v-31c0-5.238,4.262-9.5,9.5-9.5h31     c5.238,0,9.5,4.262,9.5,9.5v31c0,5.238-4.262,9.5-9.5,9.5H1325z"
   id="path93" />
			<path
   style="fill:#333333;"
   d="M1356,587c4.963,0,9,4.037,9,9v31c0,4.963-4.037,9-9,9h-31c-4.963,0-9-4.037-9-9v-31     c0-4.963,4.037-9,9-9H1356 M1356,586h-31c-5.5,0-10,4.5-10,10v31c0,5.5,4.5,10,10,10h31c5.5,0,10-4.5,10-10v-31     C1366,590.5,1361.5,586,1356,586L1356,586z"
   id="path95" />
		</g>
	</g>
	<g
   id="meegotouch-button-negative-inverted-background-pressed">
		<g
   id="g98">
			<path
   style="fill:#C80000;"
   d="M1325,576.5c-5.238,0-9.5-4.262-9.5-9.5v-31c0-5.238,4.262-9.5,9.5-9.5h31     c5.238,0,9.5,4.262,9.5,9.5v31c0,5.238-4.262,9.5-9.5,9.5H1325z"
   id="path100" />
			<path
   style="fill:#333333;"
   d="M1356,527c4.963,0,9,4.037,9,9v31c0,4.963-4.037,9-9,9h-31c-4.963,0-9-4.037-9-9v-31     c0-4.963,4.037-9,9-9H1356 M1356,526h-31c-5.5,0-10,4.5-10,10v31c0,5.5,4.5,10,10,10h31c5.5,0,10-4.5,10-10v-31     C1366,530.5,1361.5,526,1356,526L1356,526z"
   id="path102" />
		</g>
		<g
   style="opacity:0.5;"
   id="g104">
			<path
   d="M1366,567c0,5.5-4.5,10-10,10h-31c-5.5,0-10-4.5-10-10v-31c0-5.5,4.5-10,10-10h31c5.5,0,10,4.5,10,10V567z"
   id="path106" />
		</g>
	</g>
	<g
   id="meegotouch-button-negative-inverted-background">
		<g
   id="g109">
			<path
   style="fill:#C80000;"
   d="M1325,516.5c-5.238,0-9.5-4.262-9.5-9.5v-31c0-5.238,4.262-9.5,9.5-9.5h31     c5.238,0,9.5,4.262,9.5,9.5v31c0,5.238-4.262,9.5-9.5,9.5H1325z"
   id="path111" />
			<path
   style="fill:#333333;"
   d="M1356,467c4.963,0,9,4.037,9,9v31c0,4.963-4.037,9-9,9h-31c-4.963,0-9-4.037-9-9v-31     c0-4.963,4.037-9,9-9H1356 M1356,466h-31c-5.5,0-10,4.5-10,10v31c0,5.5,4.5,10,10,10h31c5.5,0,10-4.5,10-10v-31     C1366,470.5,1361.5,466,1356,466L1356,466z"
   id="path113" />
		</g>
	</g>
	<g
   id="meegotouch-button-positive-inverted-background-disabled"
   style="opacity:0.4;">
		<g
   id="g116">
			<path
   style="fill:#00C800;"
   d="M1264,636.5c-5.238,0-9.5-4.262-9.5-9.5v-31c0-5.238,4.262-9.5,9.5-9.5h31     c5.238,0,9.5,4.262,9.5,9.5v31c0,5.238-4.262,9.5-9.5,9.5H1264z"
   id="path118" />
			<path
   style="fill:#333333;"
   d="M1295,587c4.963,0,9,4.037,9,9v31c0,4.963-4.037,9-9,9h-31c-4.963,0-9-4.037-9-9v-31     c0-4.963,4.037-9,9-9H1295 M1295,586h-31c-5.5,0-10,4.5-10,10v31c0,5.5,4.5,10,10,10h31c5.5,0,10-4.5,10-10v-31     C1305,590.5,1300.5,586,1295,586L1295,586z"
   id="path120" />
		</g>
	</g>
	<g
   id="meegotouch-button-positive-inverted-background-pressed">
		<g
   id="g123">
			<path
   style="fill:#00C800;"
   d="M1264,576.5c-5.238,0-9.5-4.262-9.5-9.5v-31c0-5.238,4.262-9.5,9.5-9.5h31     c5.238,0,9.5,4.262,9.5,9.5v31c0,5.238-4.262,9.5-9.5,9.5H1264z"
   id="path125" />
			<path
   style="fill:#333333;"
   d="M1295,527c4.963,0,9,4.037,9,9v31c0,4.963-4.037,9-9,9h-31c-4.963,0-9-4.037-9-9v-31     c0-4.963,4.037-9,9-9H1295 M1295,526h-31c-5.5,0-10,4.5-10,10v31c0,5.5,4.5,10,10,10h31c5.5,0,10-4.5,10-10v-31     C1305,530.5,1300.5,526,1295,526L1295,526z"
   id="path127" />
		</g>
		<g
   style="opacity:0.5;"
   id="g129">
			<path
   d="M1305,567c0,5.5-4.5,10-10,10h-31c-5.5,0-10-4.5-10-10v-31c0-5.5,4.5-10,10-10h31c5.5,0,10,4.5,10,10V567z"
   id="path131" />
		</g>
	</g>
	<g
   id="meegotouch-button-positive-inverted-background">
		<g
   id="g134">
			<path
   style="fill:#00C800;"
   d="M1264,516.5c-5.238,0-9.5-4.262-9.5-9.5v-31c0-5.238,4.262-9.5,9.5-9.5h31     c5.238,0,9.5,4.262,9.5,9.5v31c0,5.238-4.262,9.5-9.5,9.5H1264z"
   id="path136" />
			<path
   style="fill:#333333;"
   d="M1295,467c4.963,0,9,4.037,9,9v31c0,4.963-4.037,9-9,9h-31c-4.963,0-9-4.037-9-9v-31     c0-4.963,4.037-9,9-9H1295 M1295,466h-31c-5.5,0-10,4.5-10,10v31c0,5.5,4.5,10,10,10h31c5.5,0,10-4.5,10-10v-31     C1305,470.5,1300.5,466,1295,466L1295,466z"
   id="path138" />
		</g>
	</g>
	<g
   id="meegotouch-button-inverted-background-disabled-vertical-bottom">
		<g
   id="g141">
			<path
   style="fill:#333333;"
   d="M1234,637c5.5,0,10-4.5,10-10v-41h-51v41c0,5.5,4.5,10,10,10H1234z"
   id="path143" />
		</g>
		<path
   style="fill:#1A1A1A;"
   d="M1243,627c0,4.963-4.037,9-9,9h-31c-4.963,0-9-4.037-9-9v-41h49V627z"
   id="path145" />
	</g>
	<g
   id="meegotouch-button-inverted-background-disabled-vertical-center">
		<g
   id="g148">
			<rect
   x="1193"
   y="526"
   style="fill:#333333;"
   width="51"
   height="51"
   id="rect150" />
		</g>
		<rect
   x="1194"
   y="526"
   style="fill:#1A1A1A;"
   width="49"
   height="51"
   id="rect152" />
		<rect
   x="1196"
   y="576"
   width="45"
   height="1"
   id="rect154" />
	</g>
	<g
   id="meegotouch-button-inverted-background-disabled-vertical-top">
		<g
   id="g157">
			<path
   style="fill:#333333;"
   d="M1203,466c-5.5,0-10,4.5-10,10v41h51v-41c0-5.5-4.5-10-10-10H1203z"
   id="path159" />
		</g>
		<path
   style="fill:#1A1A1A;"
   d="M1194,476c0-4.963,4.037-9,9-9h31c4.963,0,9,4.037,9,9v41h-49V476z"
   id="path161" />
		<rect
   x="1196"
   y="516"
   width="45"
   height="1"
   id="rect163" />
	</g>
	<g
   id="meegotouch-button-inverted-background-selected-vertical-bottom">
		<g
   id="g166">
			<path
   style="fill:#333333;"
   d="M1173,637c5.5,0,10-4.5,10-10v-41h-51v41c0,5.5,4.5,10,10,10H1173z"
   id="path168" />
		</g>
		<path
   style="fill:#00DB00;"
   d="M1182,627c0,4.963-4.037,9-9,9h-31c-4.963,0-9-4.037-9-9v-41h49V627z"
   id="path170" />
	</g>
	<g
   id="meegotouch-button-inverted-background-selected-vertical-center">
		<g
   id="g173">
			<rect
   x="1132"
   y="526"
   style="fill:#333333;"
   width="51"
   height="51"
   id="rect175" />
		</g>
		<rect
   x="1133"
   y="526"
   style="fill:#00DB00;"
   width="49"
   height="51"
   id="rect177" />
	</g>
	<g
   id="meegotouch-button-inverted-background-selected-vertical-top">
		<path
   style="fill:#333333;"
   d="M1142,466c-5.5,0-10,4.5-10,10v41h51v-41c0-5.5-4.5-10-10-10H1142z"
   id="path180" />
		<path
   style="fill:#00DB00;"
   d="M1133,476c0-4.963,4.037-9,9-9h31c4.963,0,9,4.037,9,9v41h-49V476z"
   id="path182" />
	</g>
	<g
   id="meegotouch-button-inverted-background-pressed-vertical-bottom">
		<path
   style="fill:#333333;"
   d="M1112,637c5.5,0,10-4.5,10-10v-41h-51v41c0,5.5,4.5,10,10,10H1112z"
   id="path185" />
		<path
   d="M1121,627c0,4.963-4.037,9-9,9h-31c-4.963,0-9-4.037-9-9v-41h49V627z"
   id="path187" />
	</g>
	<g
   id="meegotouch-button-inverted-background-pressed-vertical-center">
		<g
   id="g190">
			<rect
   x="1071"
   y="526"
   style="fill:#333333;"
   width="51"
   height="51"
   id="rect192" />
		</g>
		<rect
   x="1072"
   y="526"
   style="opacity:0.14;"
   width="49"
   height="51"
   id="rect194" />
		<rect
   x="1072"
   y="526"
   width="49"
   height="51"
   id="rect196" />
	</g>
	<g
   id="meegotouch-button-inverted-background-pressed-vertical-top">
		<g
   id="g199">
			<path
   style="fill:#333333;"
   d="M1081,466c-5.5,0-10,4.5-10,10v41h51v-41c0-5.5-4.5-10-10-10H1081z"
   id="path201" />
		</g>
		<path
   d="M1072,476c0-4.963,4.037-9,9-9h31c4.963,0,9,4.037,9,9v41h-49V476z"
   id="path203" />
	</g>
	<g
   id="meegotouch-button-inverted-background-vertical-bottom">
		<g
   id="g206">
			<path
   style="fill:#333333;"
   d="M1051,637c5.5,0,10-4.5,10-10v-41h-51v41c0,5.5,4.5,10,10,10H1051z"
   id="path208" />
		</g>
		<path
   style="fill:#1A1A1A;"
   d="M1060,627c0,4.963-4.037,9-9,9h-31c-4.963,0-9-4.037-9-9v-41h49V627z"
   id="path210" />
	</g>
	<g
   id="meegotouch-button-inverted-background-vertical-center">
		<g
   id="g213">
			<rect
   x="1010"
   y="526"
   style="fill:#333333;"
   width="51"
   height="51"
   id="rect215" />
		</g>
		<rect
   x="1011"
   y="526"
   style="fill:#1A1A1A;"
   width="49"
   height="51"
   id="rect217" />
		<rect
   x="1013"
   y="576"
   width="45"
   height="1"
   id="rect219" />
	</g>
	<g
   id="meegotouch-button-inverted-background-vertical-top">
		<g
   id="g222">
			<path
   style="fill:#333333;"
   d="M1020,466c-5.5,0-10,4.5-10,10v41h51v-41c0-5.5-4.5-10-10-10H1020z"
   id="path224" />
		</g>
		<path
   style="fill:#1A1A1A;"
   d="M1011,476c0-4.963,4.037-9,9-9h31c4.963,0,9,4.037,9,9v41h-49V476z"
   id="path226" />
		<rect
   x="1013"
   y="516"
   width="45"
   height="1"
   id="rect228" />
	</g>
	<g
   id="meegotouch-button-inverted-background-disabled-horizontal-right"
   style="opacity:0.3;">
		<g
   id="g231">
			<path
   style="fill:#333333;"
   d="M1732,415c0-5.5-4.5-10-10-10h-41v51h41c5.5,0,10-4.5,10-10V415z"
   id="path233" />
		</g>
		<path
   style="fill:#1A1A1A;"
   d="M1722,406c4.963,0,9,4.037,9,9v31c0,4.963-4.037,9-9,9h-41v-49H1722z"
   id="path235" />
	</g>
	<g
   id="meegotouch-button-inverted-background-disabled-horizontal-center"
   style="opacity:0.3;">
		<g
   id="g238">
			<rect
   x="1620"
   y="405"
   style="fill:#333333;"
   width="51"
   height="51"
   id="rect240" />
		</g>
		<rect
   x="1620"
   y="406"
   style="fill:#1A1A1A;"
   width="51"
   height="49"
   id="rect242" />
		<rect
   x="1670"
   y="408"
   style="fill:#333333;"
   width="1"
   height="45"
   id="rect244" />
	</g>
	<g
   id="meegotouch-button-inverted-background-disabled-horizontal-left"
   style="opacity:0.3;">
		<g
   id="g247">
			<path
   style="fill:#333333;"
   d="M1559,446c0,5.5,4.5,10,10,10h41v-51h-41c-5.5,0-10,4.5-10,10V446z"
   id="path249" />
		</g>
		<path
   style="fill:#1A1A1A;"
   d="M1569,455c-4.963,0-9-4.037-9-9v-31c0-4.963,4.037-9,9-9h41v49H1569z"
   id="path251" />
		<rect
   x="1609"
   y="408"
   style="fill:#333333;"
   width="1"
   height="45"
   id="rect253" />
	</g>
	<g
   id="meegotouch-button-inverted-background-selected-horizontal-right">
		<g
   id="g256">
			<path
   style="fill:#333333;"
   d="M1549,415c0-5.5-4.5-10-10-10h-41v51h41c5.5,0,10-4.5,10-10V415z"
   id="path258" />
		</g>
		<path
   style="fill:#00DB00;"
   d="M1539,406c4.963,0,9,4.037,9,9v31c0,4.963-4.037,9-9,9h-41v-49H1539z"
   id="path260" />
	</g>
	<g
   id="meegotouch-button-inverted-background-selected-horizontal-center">
		<g
   id="g263">
			<rect
   x="1437"
   y="405"
   style="fill:#333333;"
   width="51"
   height="51"
   id="rect265" />
		</g>
		<rect
   x="1437"
   y="406"
   style="fill:#00DB00;"
   width="51"
   height="49"
   id="rect267" />
	</g>
	<g
   id="meegotouch-button-inverted-background-selected-horizontal-left">
		<g
   id="g270">
			<path
   style="fill:#333333;"
   d="M1376,446c0,5.5,4.5,10,10,10h41v-51h-41c-5.5,0-10,4.5-10,10V446z"
   id="path272" />
		</g>
		<path
   style="fill:#00DB00;"
   d="M1386,455c-4.963,0-9-4.037-9-9v-31c0-4.963,4.037-9,9-9h41v49H1386z"
   id="path274" />
	</g>
	<g
   id="meegotouch-button-inverted-background-pressed-horizontal-right">
		<g
   id="g277">
			<path
   d="M1315.5,455.5v-50h40.5c5.238,0,9.5,4.262,9.5,9.5v31c0,5.238-4.262,9.5-9.5,9.5H1315.5z"
   id="path279" />
			<g
   id="g281">
				<path
   style="fill:#333333;"
   d="M1356,406c4.963,0,9,4.037,9,9v31c0,4.963-4.037,9-9,9h-40v-49H1356 M1356,405h-41v51h41      c5.5,0,10-4.5,10-10v-31C1366,409.5,1361.5,405,1356,405L1356,405z"
   id="path283" />
			</g>
		</g>
		<path
   d="M1356,406c4.963,0,9,4.037,9,9v31c0,4.963-4.037,9-9,9h-41v-49H1356z"
   id="path285" />
	</g>
	<g
   id="meegotouch-button-inverted-background-pressed-horizontal-center">
		<g
   id="g288">
			<rect
   x="1254.5"
   y="405.5"
   width="50"
   height="50"
   id="rect290" />
			<g
   id="g292">
				<path
   style="fill:#333333;"
   d="M1304,406v49h-49v-49H1304 M1305,405h-51v51h51V405L1305,405z"
   id="path294" />
			</g>
		</g>
		<rect
   x="1254"
   y="406"
   width="51"
   height="49"
   id="rect296" />
	</g>
	<g
   id="meegotouch-button-inverted-background-pressed-horizontal-left">
		<g
   id="g299">
			<path
   d="M1203,455.5c-5.238,0-9.5-4.262-9.5-9.5v-31c0-5.238,4.262-9.5,9.5-9.5h40.5v50H1203z"
   id="path301" />
			<g
   id="g303">
				<path
   style="fill:#333333;"
   d="M1243,406v49h-40c-4.963,0-9-4.037-9-9v-31c0-4.963,4.037-9,9-9H1243 M1244,405h-41      c-5.5,0-10,4.5-10,10v31c0,5.5,4.5,10,10,10h41V405L1244,405z"
   id="path305" />
			</g>
		</g>
		<path
   d="M1203,455c-4.963,0-9-4.037-9-9v-31c0-4.963,4.037-9,9-9h41v49H1203z"
   id="path307" />
	</g>
	<g
   id="meegotouch-button-inverted-background-horizontal-right">
		<g
   id="g310">
			<path
   style="fill:#333333;"
   d="M1183,415c0-5.5-4.5-10-10-10h-41v51h41c5.5,0,10-4.5,10-10V415z"
   id="path312" />
		</g>
		<path
   style="fill:#1A1A1A;"
   d="M1173,406c4.963,0,9,4.037,9,9v31c0,4.963-4.037,9-9,9h-41v-49H1173z"
   id="path314" />
	</g>
	<g
   id="meegotouch-button-inverted-background-horizontal-center">
		<g
   id="g317">
			<rect
   x="1071"
   y="405"
   style="fill:#333333;"
   width="51"
   height="51"
   id="rect319" />
		</g>
		<rect
   x="1071"
   y="406"
   style="fill:#1A1A1A;"
   width="51"
   height="49"
   id="rect321" />
		<rect
   x="1121"
   y="408"
   style="fill:#333333;"
   width="1"
   height="45"
   id="rect323" />
	</g>
	<g
   id="meegotouch-button-inverted-background-horizontal-left">
		<g
   id="g326">
			<path
   style="fill:#333333;"
   d="M1010,446c0,5.5,4.5,10,10,10h41v-51h-41c-5.5,0-10,4.5-10,10V446z"
   id="path328" />
		</g>
		<path
   style="fill:#1A1A1A;"
   d="M1020,455c-4.963,0-9-4.037-9-9v-31c0-4.963,4.037-9,9-9h41v49H1020z"
   id="path330" />
		<rect
   x="1060"
   y="408"
   style="fill:#333333;"
   width="1"
   height="45"
   id="rect332" />
	</g>
	
	<g
   id="meegotouch-button-inverted-background-disabled-selected"
   style="opacity:0.3;">
		<g
   id="g340">
			<path
   style="fill:#00DB00;"
   d="M1020,393.5c-5.238,0-9.5-4.262-9.5-9.5v-31c0-5.238,4.262-9.5,9.5-9.5h31     c5.238,0,9.5,4.262,9.5,9.5v31c0,5.238-4.262,9.5-9.5,9.5H1020z"
   id="path342" />
			<path
   style="fill:#333333;"
   d="M1051,344c4.963,0,9,4.037,9,9v31c0,4.963-4.037,9-9,9h-31c-4.963,0-9-4.037-9-9v-31     c0-4.963,4.037-9,9-9H1051 M1051,343h-31c-5.5,0-10,4.5-10,10v31c0,5.5,4.5,10,10,10h31c5.5,0,10-4.5,10-10v-31     C1061,347.5,1056.5,343,1051,343L1051,343z"
   id="path344" />
		</g>
	</g>
	<g
   id="meegotouch-button-inverted-background-disabled"
   style="opacity:0.3;">
		<g
   id="g347">
			<path
   style="fill:#1A1A1A;"
   d="M1061,323c0,5.5-4.5,10-10,10h-31c-5.5,0-10-4.5-10-10v-31c0-5.5,4.5-10,10-10h31     c5.5,0,10,4.5,10,10V323z"
   id="path349" />
			<path
   style="fill:none;stroke:#333333;"
   d="M1061,323c0,5.5-4.5,10-10,10h-31c-5.5,0-10-4.5-10-10v-31c0-5.5,4.5-10,10-10h31     c5.5,0,10,4.5,10,10V323z"
   id="path351" />
		</g>
	</g>
	<g
   id="meegotouch-button-inverted-background-selected">
		<g
   id="g354">
			<path
   style="fill:#00DB00;"
   d="M1020,272.5c-5.238,0-9.5-4.262-9.5-9.5v-31c0-5.238,4.262-9.5,9.5-9.5h31     c5.238,0,9.5,4.262,9.5,9.5v31c0,5.238-4.262,9.5-9.5,9.5H1020z"
   id="path356" />
			<path
   style="fill:#333333;"
   d="M1051,223c4.963,0,9,4.038,9,9v31c0,4.962-4.037,9-9,9h-31c-4.963,0-9-4.038-9-9v-31     c0-4.962,4.037-9,9-9H1051 M1051,222h-31c-5.5,0-10,4.5-10,10v31c0,5.5,4.5,10,10,10h31c5.5,0,10-4.5,10-10v-31     C1061,226.5,1056.5,222,1051,222L1051,222z"
   id="path358" />
		</g>
	</g>
	<g
   id="meegotouch-button-inverted-background-pressed">
		<g
   id="g361">
			<path
   d="M1061,202c0,5.5-4.5,10-10,10h-31c-5.5,0-10-4.5-10-10v-31c0-5.5,4.5-10,10-10h31c5.5,0,10,4.5,10,10V202z"
   id="path363" />
			<path
   style="fill:none;stroke:#333333;"
   d="M1061,202c0,5.5-4.5,10-10,10h-31c-5.5,0-10-4.5-10-10v-31c0-5.5,4.5-10,10-10h31     c5.5,0,10,4.5,10,10V202z"
   id="path365" />
		</g>
	</g>
	<g
   id="meegotouch-button-inverted-background">
		<g
   id="g368">
			<path
   style="fill:#1A1A1A;"
   d="M1061,141c0,5.5-4.5,10-10,10h-31c-5.5,0-10-4.5-10-10v-31c0-5.5,4.5-10,10-10h31     c5.5,0,10,4.5,10,10V141z"
   id="path370" />
			<path
   style="fill:none;stroke:#333333;"
   d="M1061,141c0,5.5-4.5,10-10,10h-31c-5.5,0-10-4.5-10-10v-31c0-5.5,4.5-10,10-10h31     c5.5,0,10,4.5,10,10V141z"
   id="path372" />
		</g>
	</g>
	<g
   id="meegotouch-button-accent-background-disabled"
   style="opacity:0.4;">
		<g
   id="g375">
			<path
   style="fill:#8080FF;"
   d="M475,636.5c-5.238,0-9.5-4.262-9.5-9.5v-31c0-5.238,4.262-9.5,9.5-9.5h31     c5.238,0,9.5,4.262,9.5,9.5v31c0,5.238-4.262,9.5-9.5,9.5H475z"
   id="path377" />
			<path
   style="fill:#666666;"
   d="M506,587c4.962,0,9,4.037,9,9v31c0,4.963-4.038,9-9,9h-31c-4.962,0-9-4.037-9-9v-31     c0-4.963,4.038-9,9-9H506 M506,586h-31c-5.5,0-10,4.5-10,10v31c0,5.5,4.5,10,10,10h31c5.5,0,10-4.5,10-10v-31     C516,590.5,511.5,586,506,586L506,586z"
   id="path379" />
		</g>
	</g>
	<g
   id="meegotouch-button-accent-background-pressed">
		<g
   id="g382">
			<path
   style="fill:#8080FF;"
   d="M475,576.5c-5.238,0-9.5-4.262-9.5-9.5v-31c0-5.238,4.262-9.5,9.5-9.5h31     c5.238,0,9.5,4.262,9.5,9.5v31c0,5.238-4.262,9.5-9.5,9.5H475z"
   id="path384" />
			<path
   style="fill:#666666;"
   d="M506,527c4.962,0,9,4.037,9,9v31c0,4.963-4.038,9-9,9h-31c-4.962,0-9-4.037-9-9v-31     c0-4.963,4.038-9,9-9H506 M506,526h-31c-5.5,0-10,4.5-10,10v31c0,5.5,4.5,10,10,10h31c5.5,0,10-4.5,10-10v-31     C516,530.5,511.5,526,506,526L506,526z"
   id="path386" />
		</g>
		<g
   style="opacity:0.5;"
   id="g388">
			<path
   d="M516,567c0,5.5-4.5,10-10,10h-31c-5.5,0-10-4.5-10-10v-31c0-5.5,4.5-10,10-10h31c5.5,0,10,4.5,10,10V567z"
   id="path390" />
		</g>
	</g>
	<g
   id="meegotouch-button-accent-background">
		<g
   id="g393">
			<path
   style="fill:#8080FF;"
   d="M475,516.5c-5.238,0-9.5-4.262-9.5-9.5v-31c0-5.238,4.262-9.5,9.5-9.5h31     c5.238,0,9.5,4.262,9.5,9.5v31c0,5.238-4.262,9.5-9.5,9.5H475z"
   id="path395" />
			<path
   style="fill:#666666;"
   d="M506,467c4.962,0,9,4.037,9,9v31c0,4.963-4.038,9-9,9h-31c-4.962,0-9-4.037-9-9v-31     c0-4.963,4.038-9,9-9H506 M506,466h-31c-5.5,0-10,4.5-10,10v31c0,5.5,4.5,10,10,10h31c5.5,0,10-4.5,10-10v-31     C516,470.5,511.5,466,506,466L506,466z"
   id="path397" />
		</g>
	</g>
	<g
   id="meegotouch-button-negative-background-disabled"
   style="opacity:0.4;">
		<g
   id="g400">
			<path
   style="fill:#C80000;"
   d="M415,636.5c-5.238,0-9.5-4.262-9.5-9.5v-31c0-5.238,4.262-9.5,9.5-9.5h31     c5.238,0,9.5,4.262,9.5,9.5v31c0,5.238-4.262,9.5-9.5,9.5H415z"
   id="path402" />
			<path
   style="fill:#666666;"
   d="M446,587c4.962,0,9,4.037,9,9v31c0,4.963-4.038,9-9,9h-31c-4.962,0-9-4.037-9-9v-31     c0-4.963,4.038-9,9-9H446 M446,586h-31c-5.5,0-10,4.5-10,10v31c0,5.5,4.5,10,10,10h31c5.5,0,10-4.5,10-10v-31     C456,590.5,451.5,586,446,586L446,586z"
   id="path404" />
		</g>
	</g>
	<g
   id="meegotouch-button-negative-background-pressed">
		<g
   id="g407">
			<path
   style="fill:#C80000;"
   d="M415,576.5c-5.238,0-9.5-4.262-9.5-9.5v-31c0-5.238,4.262-9.5,9.5-9.5h31     c5.238,0,9.5,4.262,9.5,9.5v31c0,5.238-4.262,9.5-9.5,9.5H415z"
   id="path409" />
			<path
   style="fill:#666666;"
   d="M446,527c4.962,0,9,4.037,9,9v31c0,4.963-4.038,9-9,9h-31c-4.962,0-9-4.037-9-9v-31     c0-4.963,4.038-9,9-9H446 M446,526h-31c-5.5,0-10,4.5-10,10v31c0,5.5,4.5,10,10,10h31c5.5,0,10-4.5,10-10v-31     C456,530.5,451.5,526,446,526L446,526z"
   id="path411" />
		</g>
		<g
   style="opacity:0.5;"
   id="g413">
			<path
   d="M456,567c0,5.5-4.5,10-10,10h-31c-5.5,0-10-4.5-10-10v-31c0-5.5,4.5-10,10-10h31c5.5,0,10,4.5,10,10V567z"
   id="path415" />
		</g>
	</g>
	<g
   id="meegotouch-button-negative-background">
		<g
   id="g418">
			<path
   style="fill:#C80000;"
   d="M415,516.5c-5.238,0-9.5-4.262-9.5-9.5v-31c0-5.238,4.262-9.5,9.5-9.5h31     c5.238,0,9.5,4.262,9.5,9.5v31c0,5.238-4.262,9.5-9.5,9.5H415z"
   id="path420" />
			<path
   style="fill:#666666;"
   d="M446,467c4.962,0,9,4.037,9,9v31c0,4.963-4.038,9-9,9h-31c-4.962,0-9-4.037-9-9v-31     c0-4.963,4.038-9,9-9H446 M446,466h-31c-5.5,0-10,4.5-10,10v31c0,5.5,4.5,10,10,10h31c5.5,0,10-4.5,10-10v-31     C456,470.5,451.5,466,446,466L446,466z"
   id="path422" />
		</g>
	</g>
	<g
   id="meegotouch-button-positive-background-disabled"
   style="opacity:0.4;">
		<g
   id="g425">
			<path
   style="fill:#00C800;"
   d="M354,636.5c-5.238,0-9.5-4.262-9.5-9.5v-31c0-5.238,4.262-9.5,9.5-9.5h31     c5.238,0,9.5,4.262,9.5,9.5v31c0,5.238-4.262,9.5-9.5,9.5H354z"
   id="path427" />
			<path
   style="fill:#666666;"
   d="M385,587c4.962,0,9,4.037,9,9v31c0,4.963-4.038,9-9,9h-31c-4.962,0-9-4.037-9-9v-31     c0-4.963,4.038-9,9-9H385 M385,586h-31c-5.5,0-10,4.5-10,10v31c0,5.5,4.5,10,10,10h31c5.5,0,10-4.5,10-10v-31     C395,590.5,390.5,586,385,586L385,586z"
   id="path429" />
		</g>
	</g>
	<g
   id="meegotouch-button-positive-background-pressed">
		<g
   id="g432">
			<path
   style="fill:#00C800;"
   d="M354,576.5c-5.238,0-9.5-4.262-9.5-9.5v-31c0-5.238,4.262-9.5,9.5-9.5h31     c5.238,0,9.5,4.262,9.5,9.5v31c0,5.238-4.262,9.5-9.5,9.5H354z"
   id="path434" />
			<path
   style="fill:#666666;"
   d="M385,527c4.962,0,9,4.037,9,9v31c0,4.963-4.038,9-9,9h-31c-4.962,0-9-4.037-9-9v-31     c0-4.963,4.038-9,9-9H385 M385,526h-31c-5.5,0-10,4.5-10,10v31c0,5.5,4.5,10,10,10h31c5.5,0,10-4.5,10-10v-31     C395,530.5,390.5,526,385,526L385,526z"
   id="path436" />
		</g>
		<g
   style="opacity:0.5;"
   id="g438">
			<path
   d="M395,567c0,5.5-4.5,10-10,10h-31c-5.5,0-10-4.5-10-10v-31c0-5.5,4.5-10,10-10h31c5.5,0,10,4.5,10,10V567z"
   id="path440" />
		</g>
	</g>
	<g
   id="meegotouch-button-positive-background">
		<g
   id="g443">
			<path
   style="fill:#00C800;"
   d="M354,516.5c-5.238,0-9.5-4.262-9.5-9.5v-31c0-5.238,4.262-9.5,9.5-9.5h31     c5.238,0,9.5,4.262,9.5,9.5v31c0,5.238-4.262,9.5-9.5,9.5H354z"
   id="path445" />
			<path
   style="fill:#666666;"
   d="M385,467c4.962,0,9,4.037,9,9v31c0,4.963-4.038,9-9,9h-31c-4.962,0-9-4.037-9-9v-31     c0-4.963,4.038-9,9-9H385 M385,466h-31c-5.5,0-10,4.5-10,10v31c0,5.5,4.5,10,10,10h31c5.5,0,10-4.5,10-10v-31     C395,470.5,390.5,466,385,466L385,466z"
   id="path447" />
		</g>
	</g>
	<g
   id="meegotouch-button-background-selected-vertical-bottom">
		<g
   id="g450">
			<path
   style="fill:#666666;"
   d="M263,637c5.5,0,10-4.5,10-10v-41h-51v41c0,5.5,4.5,10,10,10H263z"
   id="path452" />
		</g>
		<path
   style="fill:#00DB00;"
   d="M272,627c0,4.963-4.037,9-9,9h-31c-4.962,0-9-4.037-9-9v-41h49V627z"
   id="path454" />
	</g>
	<g
   id="meegotouch-button-background-selected-vertical-center">
		<g
   id="g457">
			<rect
   x="222"
   y="526"
   style="fill:#666666;"
   width="51"
   height="51"
   id="rect459" />
		</g>
		<rect
   x="223"
   y="526"
   style="fill:#00DB00;"
   width="49"
   height="51"
   id="rect461" />
	</g>
	<g
   id="meegotouch-button-background-selected-vertical-top">
		<path
   style="fill:#666666;"
   d="M232,466c-5.5,0-10,4.5-10,10v41h51v-41c0-5.5-4.5-10-10-10H232z"
   id="path464" />
		<path
   style="fill:#00DB00;"
   d="M223,476c0-4.963,4.038-9,9-9h31c4.962,0,9,4.037,9,9v41h-49V476z"
   id="path466" />
	</g>
	<g
   id="meegotouch-button-background-pressed-vertical-bottom">
		<path
   style="fill:#666666;"
   d="M202,637c5.5,0,10-4.5,10-10v-41h-51v41c0,5.5,4.5,10,10,10H202z"
   id="path469" />
		<path
   style="fill:#C8C8C8;"
   d="M211,627c0,4.963-4.037,9-9,9h-31c-4.962,0-9-4.037-9-9v-41h49V627z"
   id="path471" />
	</g>
	<g
   id="meegotouch-button-background-pressed-vertical-center">
		<g
   id="g474">
			<rect
   x="161"
   y="526"
   style="fill:#666666;"
   width="51"
   height="51"
   id="rect476" />
		</g>
		<rect
   x="162"
   y="526"
   style="opacity:0.14;fill:#FFFFFF;"
   width="49"
   height="51"
   id="rect478" />
		<rect
   x="162"
   y="526"
   style="fill:#C8C8C8;"
   width="49"
   height="51"
   id="rect480" />
	</g>
	<g
   id="meegotouch-button-background-pressed-vertical-top">
		<g
   id="g483">
			<path
   style="fill:#666666;"
   d="M171,466c-5.5,0-10,4.5-10,10v41h51v-41c0-5.5-4.5-10-10-10H171z"
   id="path485" />
		</g>
		<path
   style="fill:#C8C8C8;"
   d="M162,476c0-4.963,4.038-9,9-9h31c4.962,0,9,4.037,9,9v41h-49V476z"
   id="path487" />
	</g>
	<g
   id="meegotouch-button-background-vertical-bottom">
		<g
   id="g490">
			<path
   style="fill:#666666;"
   d="M141,637c5.5,0,10-4.5,10-10v-41h-51v41c0,5.5,4.5,10,10,10H141z"
   id="path492" />
		</g>
		<path
   style="fill:#F2F2F2;"
   d="M150,627c0,4.963-4.037,9-9,9h-31c-4.962,0-9-4.037-9-9v-41h49V627z"
   id="path494" />
	</g>
	<g
   id="meegotouch-button-background-vertical-center">
		<g
   id="g497">
			<rect
   x="100"
   y="526"
   style="fill:#666666;"
   width="51"
   height="51"
   id="rect499" />
		</g>
		<rect
   x="101"
   y="526"
   style="fill:#F2F2F2;"
   width="49"
   height="51"
   id="rect501" />
		<rect
   x="103"
   y="576"
   style="fill:#CCCCCC;"
   width="45"
   height="1"
   id="rect503" />
	</g>
	<g
   id="meegotouch-button-background-vertical-top">
		<g
   id="g506">
			<path
   style="fill:#666666;"
   d="M110,466c-5.5,0-10,4.5-10,10v41h51v-41c0-5.5-4.5-10-10-10H110z"
   id="path508" />
		</g>
		<path
   style="fill:#F2F2F2;"
   d="M101,476c0-4.963,4.038-9,9-9h31c4.962,0,9,4.037,9,9v41h-49V476z"
   id="path510" />
		<rect
   x="103"
   y="516"
   style="fill:#CCCCCC;"
   width="45"
   height="1"
   id="rect512" />
	</g>
	<g
   id="meegotouch-button-background-disabled-vertical-bottom"
   style="opacity:0.3;">
		<g
   id="g515">
			<path
   style="fill:#666666;"
   d="M324,637c5.5,0,10-4.5,10-10v-41h-51v41c0,5.5,4.5,10,10,10H324z"
   id="path517" />
		</g>
		<path
   style="fill:#F2F2F2;"
   d="M333,627c0,4.963-4.037,9-9,9h-31c-4.962,0-9-4.037-9-9v-41h49V627z"
   id="path519" />
	</g>
	<g
   id="meegotouch-button-background-disabled-vertical-center"
   style="opacity:0.3;">
		<g
   id="g522">
			<rect
   x="283"
   y="526"
   style="fill:#666666;"
   width="51"
   height="51"
   id="rect524" />
		</g>
		<rect
   x="284"
   y="526"
   style="fill:#F2F2F2;"
   width="49"
   height="51"
   id="rect526" />
		<rect
   x="286"
   y="576"
   style="fill:#CCCCCC;"
   width="45"
   height="1"
   id="rect528" />
	</g>
	<g
   id="meegotouch-button-background-disabled-vertical-top"
   style="opacity:0.3;">
		<g
   id="g531">
			<path
   style="fill:#666666;"
   d="M293,466c-5.5,0-10,4.5-10,10v41h51v-41c0-5.5-4.5-10-10-10H293z"
   id="path533" />
		</g>
		<path
   style="fill:#F2F2F2;"
   d="M284,476c0-4.963,4.038-9,9-9h31c4.962,0,9,4.037,9,9v41h-49V476z"
   id="path535" />
		<rect
   x="286"
   y="516"
   style="fill:#CCCCCC;"
   width="45"
   height="1"
   id="rect537" />
	</g>
	<g
   id="meegotouch-button-background-disabled-horizontal-right"
   style="opacity:0.3;">
		<g
   id="g540">
			<path
   style="fill:#666666;"
   d="M823,415c0-5.5-4.5-10-10-10h-41v51h41c5.5,0,10-4.5,10-10V415z"
   id="path542" />
		</g>
		<path
   style="fill:#F2F2F2;"
   d="M813,406c4.963,0,9,4.037,9,9v31c0,4.963-4.037,9-9,9h-41v-49H813z"
   id="path544" />
	</g>
	<g
   id="meegotouch-button-background-disabled-horizontal-center"
   style="opacity:0.3;">
		<g
   id="g547">
			<rect
   x="711"
   y="405"
   style="fill:#666666;"
   width="51"
   height="51"
   id="rect549" />
		</g>
		<rect
   x="711"
   y="406"
   style="fill:#F2F2F2;"
   width="51"
   height="49"
   id="rect551" />
		<rect
   x="761"
   y="408"
   style="fill:#CCCCCC;"
   width="1"
   height="45"
   id="rect553" />
	</g>
	<g
   id="meegotouch-button-background-disabled-horizontal-left"
   style="opacity:0.3;">
		<g
   id="g556">
			<path
   style="fill:#666666;"
   d="M650,446c0,5.5,4.5,10,10,10h41v-51h-41c-5.5,0-10,4.5-10,10V446z"
   id="path558" />
		</g>
		<path
   style="fill:#F2F2F2;"
   d="M660,455c-4.962,0-9-4.037-9-9v-31c0-4.963,4.038-9,9-9h41v49H660z"
   id="path560" />
		<rect
   x="700"
   y="408"
   style="fill:#CCCCCC;"
   width="1"
   height="45"
   id="rect562" />
	</g>
	<g
   id="meegotouch-button-background-selected-horizontal-right">
		<g
   id="g565">
			<path
   style="fill:#666666;"
   d="M639,415c0-5.5-4.5-10-10-10h-41v51h41c5.5,0,10-4.5,10-10V415z"
   id="path567" />
		</g>
		<path
   style="fill:#00DB00;"
   d="M629,406c4.962,0,9,4.037,9,9v31c0,4.963-4.038,9-9,9h-41v-49H629z"
   id="path569" />
	</g>
	<g
   id="meegotouch-button-background-selected-horizontal-center">
		<g
   id="g572">
			<rect
   x="527"
   y="405"
   style="fill:#666666;"
   width="51"
   height="51"
   id="rect574" />
		</g>
		<rect
   x="527"
   y="406"
   style="fill:#00DB00;"
   width="51"
   height="49"
   id="rect576" />
	</g>
	<g
   id="meegotouch-button-background-selected-horizontal-left">
		<g
   id="g579">
			<path
   style="fill:#666666;"
   d="M466,446c0,5.5,4.5,10,10,10h41v-51h-41c-5.5,0-10,4.5-10,10V446z"
   id="path581" />
		</g>
		<path
   style="fill:#00DB00;"
   d="M476,455c-4.963,0-9-4.037-9-9v-31c0-4.963,4.037-9,9-9h41v49H476z"
   id="path583" />
	</g>
	<g
   id="meegotouch-button-background-pressed-horizontal-right">
		<g
   id="g586">
			<path
   style="fill:#666666;"
   d="M456,415c0-5.5-4.5-10-10-10h-41v51h41c5.5,0,10-4.5,10-10V415z"
   id="path588" />
		</g>
		<path
   style="fill:#C8C8C8;"
   d="M446,406c4.962,0,9,4.037,9,9v31c0,4.963-4.038,9-9,9h-41v-49H446z"
   id="path590" />
	</g>
	<g
   id="meegotouch-button-background-pressed-horizontal-center">
		<g
   id="g593">
			<rect
   x="344"
   y="405"
   style="fill:#666666;"
   width="51"
   height="51"
   id="rect595" />
		</g>
		<rect
   x="344"
   y="406"
   style="fill:#C8C8C8;"
   width="51"
   height="49"
   id="rect597" />
	</g>
	<g
   id="meegotouch-button-background-pressed-horizontal-left">
		<g
   id="g600">
			<path
   style="fill:#666666;"
   d="M283,446c0,5.5,4.5,10,10,10h41v-51h-41c-5.5,0-10,4.5-10,10V446z"
   id="path602" />
		</g>
		<path
   style="fill:#C8C8C8;"
   d="M293,455c-4.963,0-9-4.037-9-9v-31c0-4.963,4.037-9,9-9h41v49H293z"
   id="path604" />
	</g>
	<g
   id="meegotouch-button-background-horizontal-right">
		<g
   id="g607">
			<path
   style="fill:#666666;"
   d="M273,415c0-5.5-4.5-10-10-10h-41v51h41c5.5,0,10-4.5,10-10V415z"
   id="path609" />
		</g>
		<path
   style="fill:#F2F2F2;"
   d="M263,406c4.962,0,9,4.037,9,9v31c0,4.963-4.038,9-9,9h-41v-49H263z"
   id="path611" />
	</g>
	<g
   id="meegotouch-button-background-horizontal-center">
		<g
   id="g614">
			<rect
   x="161"
   y="405"
   style="fill:#666666;"
   width="51"
   height="51"
   id="rect616" />
		</g>
		<rect
   x="161"
   y="406"
   style="fill:#F2F2F2;"
   width="51"
   height="49"
   id="rect618" />
		<rect
   x="211"
   y="408"
   style="fill:#CCCCCC;"
   width="1"
   height="45"
   id="rect620" />
	</g>
	<g
   id="meegotouch-button-background-horizontal-left">
		<g
   id="g623">
			<path
   style="fill:#666666;"
   d="M100,446c0,5.5,4.5,10,10,10h41v-51h-41c-5.5,0-10,4.5-10,10V446z"
   id="path625" />
		</g>
		<path
   style="fill:#F2F2F2;"
   d="M110,455c-4.962,0-9-4.037-9-9v-31c0-4.963,4.038-9,9-9h41v49H110z"
   id="path627" />
		<rect
   x="150"
   y="408"
   style="fill:#CCCCCC;"
   width="1"
   height="45"
   id="rect629" />
	</g>
	<g
   id="meegotouch-combobox-indicator"><rect
     y="105"
     x="155"
     height="32"
     width="32"
     id="rect3202"
     style="color:#000000;fill:none;fill-opacity:1;fill-rule:nonzero;stroke-width:1;stroke-linecap:butt;stroke-linejoin:miter;stroke-miterlimit:4;stroke-opacity:1;stroke-dasharray:none;stroke-dashoffset:0;marker:none;visibility:visible;display:inline;overflow:visible;enable-background:accumulate" /><g
     transform="translate(2.3878509,-4)"
     id="arrow">
		<path
   id="path632"
   d="M 176.044,127.564 C 176.356,127.252 176.25,127 175.811,127 h -14.398 c -0.438,0 -0.546,0.255 -0.231,0.564 l 6.868,6.869 c 0.311,0.312 0.817,0.312 1.132,0 l 6.862,-6.869 z"
   style="fill:#191819" />
		<path
   id="path634"
   d="m 176.044,122.436 c 0.312,0.312 0.206,0.563 -0.233,0.563 h -14.398 c -0.438,0 -0.546,-0.255 -0.231,-0.563 l 6.868,-6.869 c 0.311,-0.312 0.817,-0.312 1.132,0 l 6.862,6.869 z"
   style="fill:#191819" />
	</g></g>
	<g
   id="meegotouch-button-background-disabled-selected"
   style="opacity:0.3;">
		<g
   id="g637">
			<path
   style="fill:#00DB00;"
   d="M110,393.5c-5.238,0-9.5-4.262-9.5-9.5v-31c0-5.238,4.262-9.5,9.5-9.5h31     c5.238,0,9.5,4.262,9.5,9.5v31c0,5.238-4.262,9.5-9.5,9.5H110z"
   id="path639" />
			<path
   style="fill:#666666;"
   d="M141,344c4.962,0,9,4.037,9,9v31c0,4.963-4.038,9-9,9h-31c-4.962,0-9-4.037-9-9v-31     c0-4.963,4.038-9,9-9H141 M141,343h-31c-5.5,0-10,4.5-10,10v31c0,5.5,4.5,10,10,10h31c5.5,0,10-4.5,10-10v-31     C151,347.5,146.5,343,141,343L141,343z"
   id="path641" />
		</g>
	</g>
	<g
   id="meegotouch-button-background-disabled"
   style="opacity:0.3;">
		<g
   id="g644">
			<path
   style="fill:#F2F2F2;"
   d="M110,332.5c-5.238,0-9.5-4.262-9.5-9.5v-31c0-5.238,4.262-9.5,9.5-9.5h31     c5.238,0,9.5,4.262,9.5,9.5v31c0,5.238-4.262,9.5-9.5,9.5H110z"
   id="path646" />
			<path
   style="fill:#666666;"
   d="M141,283c4.962,0,9,4.038,9,9v31c0,4.962-4.038,9-9,9h-31c-4.962,0-9-4.038-9-9v-31     c0-4.962,4.038-9,9-9H141 M141,282h-31c-5.5,0-10,4.5-10,10v31c0,5.5,4.5,10,10,10h31c5.5,0,10-4.5,10-10v-31     C151,286.5,146.5,282,141,282L141,282z"
   id="path648" />
		</g>
	</g>
	<g
   id="meegotouch-button-background-selected">
		<g
   id="g651">
			<path
   style="fill:#00DB00;"
   d="M110,272.5c-5.238,0-9.5-4.262-9.5-9.5v-31c0-5.238,4.262-9.5,9.5-9.5h31     c5.238,0,9.5,4.262,9.5,9.5v31c0,5.238-4.262,9.5-9.5,9.5H110z"
   id="path653" />
			<path
   style="fill:#666666;"
   d="M141,223c4.962,0,9,4.038,9,9v31c0,4.962-4.038,9-9,9h-31c-4.962,0-9-4.038-9-9v-31     c0-4.962,4.038-9,9-9H141 M141,222h-31c-5.5,0-10,4.5-10,10v31c0,5.5,4.5,10,10,10h31c5.5,0,10-4.5,10-10v-31     C151,226.5,146.5,222,141,222L141,222z"
   id="path655" />
		</g>
	</g>
	<g
   id="meegotouch-button-background-pressed">
		<g
   id="g658">
			<path
   style="fill:#C8C8C8;"
   d="M110,211.5c-5.238,0-9.5-4.262-9.5-9.5v-31c0-5.238,4.262-9.5,9.5-9.5h31     c5.238,0,9.5,4.262,9.5,9.5v31c0,5.238-4.262,9.5-9.5,9.5H110z"
   id="path660" />
			<path
   style="fill:#666666;"
   d="M141,162c4.962,0,9,4.037,9,9v31c0,4.962-4.038,9-9,9h-31c-4.962,0-9-4.038-9-9v-31     c0-4.963,4.038-9,9-9H141 M141,161h-31c-5.5,0-10,4.5-10,10v31c0,5.5,4.5,10,10,10h31c5.5,0,10-4.5,10-10v-31     C151,165.5,146.5,161,141,161L141,161z"
   id="path662" />
		</g>
	</g>
	<g
   id="meegotouch-button-background">
		<g
   id="g665">
			<path
   style="fill:#F2F2F2;"
   d="M151,141c0,5.5-4.5,10-10,10h-31c-5.5,0-10-4.5-10-10v-31c0-5.5,4.5-10,10-10h31     c5.5,0,10,4.5,10,10V141z"
   id="path667" />
			<path
   style="fill:none;stroke:#666666;"
   d="M151,141c0,5.5-4.5,10-10,10h-31c-5.5,0-10-4.5-10-10v-31c0-5.5,4.5-10,10-10h31     c5.5,0,10,4.5,10,10V141z"
   id="path669" />
		</g>
	</g>
<g
   id="meegotouch-dialog-button-positive-pressed"
   transform="translate(180,-60)"
   inkscape:label="#g3513">
		<g
   id="g3515">
			<path
   id="path3517"
   d="m 1020,272.5 c -5.238,0 -9.5,-4.262 -9.5,-9.5 v -31 c 0,-5.238 4.262,-9.5 9.5,-9.5 h 31 c 5.238,0 9.5,4.262 9.5,9.5 v 31 c 0,5.238 -4.262,9.5 -9.5,9.5 h -31 z"
   style="fill:#00db00" />
			<path
   id="path3519"
   d="m 1051,223 c 4.963,0 9,4.038 9,9 v 31 c 0,4.962 -4.037,9 -9,9 h -31 c -4.963,0 -9,-4.038 -9,-9 v -31 c 0,-4.962 4.037,-9 9,-9 h 31 m 0,-1 h -31 c -5.5,0 -10,4.5 -10,10 v 31 c 0,5.5 4.5,10 10,10 h 31 c 5.5,0 10,-4.5 10,-10 v -31 c 0,-5.5 -4.5,-10 -10,-10 l 0,0 z"
   style="fill:#333333" />
		</g>
	</g><g
   id="meegotouch-dialog-button-positive"
   transform="translate(180,0)"
   inkscape:label="#g3529">
		<g
   id="g3531">
			<path
   id="path3533"
   d="m 1061,141 c 0,5.5 -4.5,10 -10,10 h -31 c -5.5,0 -10,-4.5 -10,-10 v -31 c 0,-5.5 4.5,-10 10,-10 h 31 c 5.5,0 10,4.5 10,10 v 31 z"
   style="fill:#1a1a1a" />
			<path
   id="path3535"
   d="m 1061,141 c 0,5.5 -4.5,10 -10,10 h -31 c -5.5,0 -10,-4.5 -10,-10 v -31 c 0,-5.5 4.5,-10 10,-10 h 31 c 5.5,0 10,4.5 10,10 v 31 z"
   style="fill:none;stroke:#333333" />
		</g>
	</g><g
   transform="translate(240,-60)"
   id="meegotouch-dialog-button-negative-pressed"
   inkscape:label="#g3537">
		<g
   id="g3539">
			<path
   style="fill:#00db00"
   d="m 1020,272.5 c -5.238,0 -9.5,-4.262 -9.5,-9.5 v -31 c 0,-5.238 4.262,-9.5 9.5,-9.5 h 31 c 5.238,0 9.5,4.262 9.5,9.5 v 31 c 0,5.238 -4.262,9.5 -9.5,9.5 h -31 z"
   id="path3541" />
			<path
   style="fill:#333333"
   d="m 1051,223 c 4.963,0 9,4.038 9,9 v 31 c 0,4.962 -4.037,9 -9,9 h -31 c -4.963,0 -9,-4.038 -9,-9 v -31 c 0,-4.962 4.037,-9 9,-9 h 31 m 0,-1 h -31 c -5.5,0 -10,4.5 -10,10 v 31 c 0,5.5 4.5,10 10,10 h 31 c 5.5,0 10,-4.5 10,-10 v -31 c 0,-5.5 -4.5,-10 -10,-10 l 0,0 z"
   id="path3543" />
		</g>
	</g><g
   transform="translate(240,0)"
   id="meegotouch-dialog-button-negative"
   inkscape:label="#g3553">
		<g
   id="g3555">
			<path
   style="fill:#1a1a1a"
   d="m 1061,141 c 0,5.5 -4.5,10 -10,10 h -31 c -5.5,0 -10,-4.5 -10,-10 v -31 c 0,-5.5 4.5,-10 10,-10 h 31 c 5.5,0 10,4.5 10,10 v 31 z"
   id="path3557" />
			<path
   style="fill:none;stroke:#333333"
   d="m 1061,141 c 0,5.5 -4.5,10 -10,10 h -31 c -5.5,0 -10,-4.5 -10,-10 v -31 c 0,-5.5 4.5,-10 10,-10 h 31 c 5.5,0 10,4.5 10,10 v 31 z"
   id="path3559" />
		</g>
	</g><g
   id="meegotouch-combobox-indicator-pressed"
   transform="translate(0,60)"
   style="opacity:0.5"
   inkscape:label="#g3982"><rect
     style="color:#000000;fill:none;stroke-width:1;stroke-linecap:butt;stroke-linejoin:miter;stroke-miterlimit:4;stroke-opacity:1;stroke-dasharray:none;stroke-dashoffset:0;marker:none;visibility:visible;display:inline;overflow:visible;enable-background:accumulate"
     id="rect3984"
     width="32"
     height="32"
     x="155"
     y="105" /><g
     id="g3986"
     transform="translate(2.3878509,-4)">
		<path
   style="fill:#191819"
   d="M 176.044,127.564 C 176.356,127.252 176.25,127 175.811,127 h -14.398 c -0.438,0 -0.546,0.255 -0.231,0.564 l 6.868,6.869 c 0.311,0.312 0.817,0.312 1.132,0 l 6.862,-6.869 z"
   id="path3988" />
		<path
   style="fill:#191819"
   d="m 176.044,122.436 c 0.312,0.312 0.206,0.563 -0.233,0.563 h -14.398 c -0.438,0 -0.546,-0.255 -0.231,-0.563 l 6.868,-6.869 c 0.311,-0.312 0.817,-0.312 1.132,0 l 6.862,6.869 z"
   id="path3990" />
	</g></g><g
   transform="translate(0,120)"
   id="meegotouch-combobox-indicator-disabled"
   style="opacity:0.7"
   inkscape:label="#g3992"><rect
     y="105"
     x="155"
     height="32"
     width="32"
     id="rect3994"
     style="color:#000000;fill:none;stroke-width:1;stroke-linecap:butt;stroke-linejoin:miter;stroke-miterlimit:4;stroke-opacity:1;stroke-dasharray:none;stroke-dashoffset:0;marker:none;visibility:visible;display:inline;overflow:visible;enable-background:accumulate" /><g
     transform="translate(2.3878509,-4)"
     id="g3996">
		<path
   id="path3998"
   d="M 176.044,127.564 C 176.356,127.252 176.25,127 175.811,127 h -14.398 c -0.438,0 -0.546,0.255 -0.231,0.564 l 6.868,6.869 c 0.311,0.312 0.817,0.312 1.132,0 l 6.862,-6.869 z"
   style="fill:#191819" />
		<path
   id="path4000"
   d="m 176.044,122.436 c 0.312,0.312 0.206,0.563 -0.233,0.563 h -14.398 c -0.438,0 -0.546,-0.255 -0.231,-0.563 l 6.868,-6.869 c 0.311,-0.312 0.817,-0.312 1.132,0 l 6.862,6.869 z"
   style="fill:#191819" />
	</g></g><g
   id="meegotouch-combobox-indicator-inverted"
   transform="translate(940,0)"
   inkscape:label="#g10450"><rect
     style="color:#000000;fill:none;stroke-width:1;stroke-linecap:butt;stroke-linejoin:miter;stroke-miterlimit:4;stroke-opacity:1;stroke-dasharray:none;stroke-dashoffset:0;marker:none;visibility:visible;display:inline;overflow:visible;enable-background:accumulate"
     id="rect10452"
     width="32"
     height="32"
     x="155"
     y="105" /><g
     id="g10454"
     transform="translate(2.3878509,-4)">
		<path
   style="fill:#ffffff;fill-opacity:1"
   d="M 176.044,127.564 C 176.356,127.252 176.25,127 175.811,127 h -14.398 c -0.438,0 -0.546,0.255 -0.231,0.564 l 6.868,6.869 c 0.311,0.312 0.817,0.312 1.132,0 l 6.862,-6.869 z"
   id="path10456" />
		<path
   style="fill:#ffffff;fill-opacity:1"
   d="m 176.044,122.436 c 0.312,0.312 0.206,0.563 -0.233,0.563 h -14.398 c -0.438,0 -0.546,-0.255 -0.231,-0.563 l 6.868,-6.869 c 0.311,-0.312 0.817,-0.312 1.132,0 l 6.862,6.869 z"
   id="path10458" />
	</g></g><g
   inkscape:label="#g3982"
   style="opacity:0.5"
   transform="translate(940,60)"
   id="meegotouch-combobox-indicator-inverted-pressed"><rect
     y="105"
     x="155"
     height="32"
     width="32"
     id="rect10462"
     style="color:#000000;fill:none;stroke-width:1;stroke-linecap:butt;stroke-linejoin:miter;stroke-miterlimit:4;stroke-opacity:1;stroke-dasharray:none;stroke-dashoffset:0;marker:none;visibility:visible;display:inline;overflow:visible;enable-background:accumulate" /><g
     transform="translate(2.3878509,-4)"
     id="g10464">
		<path
   id="path10466"
   d="M 176.044,127.564 C 176.356,127.252 176.25,127 175.811,127 h -14.398 c -0.438,0 -0.546,0.255 -0.231,0.564 l 6.868,6.869 c 0.311,0.312 0.817,0.312 1.132,0 l 6.862,-6.869 z"
   style="fill:#ffffff;fill-opacity:1" />
		<path
   id="path10468"
   d="m 176.044,122.436 c 0.312,0.312 0.206,0.563 -0.233,0.563 h -14.398 c -0.438,0 -0.546,-0.255 -0.231,-0.563 l 6.868,-6.869 c 0.311,-0.312 0.817,-0.312 1.132,0 l 6.862,6.869 z"
   style="fill:#ffffff;fill-opacity:1" />
	</g></g><g
   inkscape:label="#g3992"
   style="opacity:0.7"
   id="meegotouch-combobox-indicator-inverted-disabled"
   transform="translate(940,120)"><rect
     style="color:#000000;fill:none;stroke-width:1;stroke-linecap:butt;stroke-linejoin:miter;stroke-miterlimit:4;stroke-opacity:1;stroke-dasharray:none;stroke-dashoffset:0;marker:none;visibility:visible;display:inline;overflow:visible;enable-background:accumulate"
     id="rect10472"
     width="32"
     height="32"
     x="155"
     y="105" /><g
     id="g10474"
     transform="translate(2.3878509,-4)">
		<path
   style="fill:#ffffff;fill-opacity:1"
   d="M 176.044,127.564 C 176.356,127.252 176.25,127 175.811,127 h -14.398 c -0.438,0 -0.546,0.255 -0.231,0.564 l 6.868,6.869 c 0.311,0.312 0.817,0.312 1.132,0 l 6.862,-6.869 z"
   id="path10476" />
		<path
   style="fill:#ffffff;fill-opacity:1"
   d="m 176.044,122.436 c 0.312,0.312 0.206,0.563 -0.233,0.563 h -14.398 c -0.438,0 -0.546,-0.255 -0.231,-0.563 l 6.868,-6.869 c 0.311,-0.312 0.817,-0.312 1.132,0 l 6.862,6.869 z"
   id="path10478" />
	</g></g></g>
</svg>