<?xml version="1.0" encoding="iso-8859-1"?>
<!-- Generator: Adobe Illustrator 15.0.1, SVG Export Plug-In . SVG Version: 6.00 Build 0)  -->
<!DOCTYPE svg PUBLIC "-//W3C//DTD SVG 1.1//EN" "http://www.w3.org/Graphics/SVG/1.1/DTD/svg11.dtd">
<svg version="1.1" id="meegotouch-checkbox-radiobutton-layer"
	 xmlns="http://www.w3.org/2000/svg" xmlns:xlink="http://www.w3.org/1999/xlink" x="0px" y="0px" width="810px" height="290px"
	 viewBox="0 0 810 290" style="enable-background:new 0 0 810 290;" xml:space="preserve">
<g id="meegotouch-checkbox-radiobutton">
	<g id="_x23_CheckboxRadiobuttonThemeHelper">
		<g>
			<path d="M422.5,290c-6.341,0-11.5-5.159-11.5-11.5v-266C411,6.159,416.159,1,422.5,1h376c6.341,0,11.5,5.159,11.5,11.5v266
				c0,6.341-5.159,11.5-11.5,11.5H422.5z"/>
			<path style="fill:#A5A7AA;" d="M798.5,1.5c6.065,0,11,4.935,11,11v266c0,6.065-4.935,11-11,11h-376c-6.065,0-11-4.935-11-11v-266
				c0-6.065,4.935-11,11-11H798.5 M798.5,0.5h-376c-6.6,0-12,5.4-12,12v266c0,6.6,5.4,12,12,12h376c6.6,0,12-5.4,12-12v-266
				C810.5,5.9,805.1,0.5,798.5,0.5L798.5,0.5z"/>
		</g>
		<g>
			<path style="fill:#EFEFF0;" d="M400.5,278.5c0,6.6-5.4,12-12,12h-376c-6.6,0-12-5.4-12-12v-266c0-6.6,5.4-12,12-12h376
				c6.6,0,12,5.4,12,12V278.5z"/>
			<path style="fill:none;stroke:#919396;" d="M400.5,278.5c0,6.6-5.4,12-12,12h-376c-6.6,0-12-5.4-12-12v-266c0-6.6,5.4-12,12-12
				h376c6.6,0,12,5.4,12,12V278.5z"/>
		</g>
		<g>
			<path style="fill:#FFFFFF;" d="M443.391,36.092c-0.551,0.265-1.775,0.672-3.336,0.672c-3.504,0-5.783-2.376-5.783-5.929
				c0-3.576,2.447-6.192,6.24-6.192c1.248,0,2.352,0.312,2.928,0.624l-0.48,1.608c-0.504-0.264-1.295-0.552-2.447-0.552
				c-2.664,0-4.105,1.992-4.105,4.392c0,2.688,1.729,4.345,4.033,4.345c1.199,0,1.992-0.288,2.592-0.552L443.391,36.092z"/>
			<path style="fill:#FFFFFF;" d="M445.863,19.458h2.111v7.273h0.049c0.336-0.601,0.863-1.152,1.512-1.512
				c0.625-0.36,1.367-0.576,2.16-0.576c1.561,0,4.057,0.96,4.057,4.944V36.5h-2.113v-6.672c0-1.873-0.695-3.433-2.688-3.433
				c-1.367,0-2.424,0.96-2.832,2.088c-0.121,0.312-0.145,0.624-0.145,1.008V36.5h-2.111V19.458z"/>
			<path style="fill:#FFFFFF;" d="M460.359,31.076c0.047,2.856,1.848,4.032,3.984,4.032c1.512,0,2.447-0.264,3.215-0.6l0.385,1.512
				c-0.744,0.336-2.041,0.744-3.889,0.744c-3.576,0-5.713-2.376-5.713-5.881c0-3.504,2.064-6.24,5.449-6.24
				c3.816,0,4.801,3.312,4.801,5.448c0,0.432-0.023,0.744-0.072,0.984H460.359z M466.551,29.563c0.025-1.32-0.551-3.408-2.928-3.408
				c-2.16,0-3.072,1.944-3.24,3.408H466.551z"/>
			<path style="fill:#FFFFFF;" d="M479.486,36.092c-0.551,0.265-1.775,0.672-3.336,0.672c-3.504,0-5.783-2.376-5.783-5.929
				c0-3.576,2.447-6.192,6.24-6.192c1.248,0,2.352,0.312,2.928,0.624l-0.48,1.608c-0.504-0.264-1.295-0.552-2.447-0.552
				c-2.664,0-4.105,1.992-4.105,4.392c0,2.688,1.729,4.345,4.033,4.345c1.199,0,1.992-0.288,2.592-0.552L479.486,36.092z"/>
			<path style="fill:#FFFFFF;" d="M484.047,30.211h0.047c0.289-0.408,0.674-0.912,1.01-1.32l3.432-4.008h2.52l-4.465,4.776
				l5.113,6.841h-2.592l-3.984-5.568l-1.08,1.2V36.5h-2.088V19.458h2.088V30.211z"/>
			<path style="fill:#FFFFFF;" d="M493.623,19.458h2.088v7.297h0.047c0.744-1.296,2.088-2.112,3.961-2.112
				c2.904,0,4.92,2.4,4.92,5.904c0,4.152-2.641,6.217-5.232,6.217c-1.68,0-3.023-0.648-3.912-2.16h-0.047l-0.121,1.896h-1.801
				c0.049-0.792,0.098-1.968,0.098-3V19.458z M495.711,31.844c0,0.264,0.023,0.528,0.096,0.768c0.385,1.464,1.633,2.473,3.168,2.473
				c2.232,0,3.529-1.801,3.529-4.465c0-2.328-1.201-4.32-3.48-4.32c-1.416,0-2.762,1.008-3.193,2.592
				c-0.072,0.264-0.119,0.552-0.119,0.888V31.844z"/>
			<path style="fill:#FFFFFF;" d="M517.791,30.596c0,4.296-3,6.168-5.785,6.168c-3.119,0-5.568-2.304-5.568-5.977
				c0-3.864,2.568-6.145,5.762-6.145C515.535,24.643,517.791,27.067,517.791,30.596z M508.598,30.715
				c0,2.544,1.441,4.464,3.504,4.464c2.018,0,3.529-1.896,3.529-4.512c0-1.968-0.984-4.44-3.48-4.44
				C509.678,26.227,508.598,28.531,508.598,30.715z"/>
			<path style="fill:#FFFFFF;" d="M521.102,24.883l1.656,2.497c0.457,0.648,0.816,1.224,1.201,1.872h0.047
				c0.385-0.672,0.768-1.272,1.176-1.896l1.609-2.473h2.305l-3.961,5.617l4.057,6h-2.377l-1.729-2.616
				c-0.455-0.672-0.84-1.32-1.248-2.016h-0.047c-0.385,0.696-0.77,1.32-1.225,2.016l-1.68,2.616h-2.328l4.127-5.929l-3.936-5.688
				H521.102z"/>
			<path style="fill:#FFFFFF;" d="M544.479,33.716c0,1.008,0.047,1.992,0.168,2.784h-1.896l-0.168-1.464h-0.072
				c-0.648,0.912-1.896,1.729-3.553,1.729c-2.352,0-3.551-1.656-3.551-3.336c0-2.808,2.496-4.344,6.984-4.32v-0.24
				c0-0.936-0.264-2.688-2.641-2.664c-1.104,0-2.232,0.312-3.049,0.864l-0.48-1.417c0.961-0.6,2.377-1.008,3.842-1.008
				c3.551,0,4.416,2.424,4.416,4.729V33.716z M542.438,30.571c-2.303-0.048-4.92,0.36-4.92,2.616c0,1.393,0.912,2.017,1.969,2.017
				c1.535,0,2.52-0.96,2.855-1.944c0.072-0.24,0.096-0.48,0.096-0.672V30.571z"/>
			<path style="fill:#FFFFFF;" d="M547.885,28.027c0-1.224-0.023-2.184-0.096-3.145h1.873l0.119,1.92h0.049
				c0.576-1.08,1.92-2.16,3.84-2.16c1.607,0,4.104,0.96,4.104,4.944V36.5h-2.111v-6.697c0-1.872-0.695-3.432-2.688-3.432
				c-1.369,0-2.449,0.984-2.832,2.16c-0.098,0.264-0.145,0.624-0.145,0.984V36.5h-2.113V28.027z"/>
			<path style="fill:#FFFFFF;" d="M571.215,19.458V33.5c0,1.032,0.047,2.208,0.096,3h-1.873l-0.096-2.016h-0.072
				c-0.623,1.296-2.016,2.28-3.912,2.28c-2.809,0-4.992-2.376-4.992-5.905c-0.023-3.864,2.4-6.216,5.209-6.216
				c1.799,0,2.977,0.84,3.504,1.752h0.049v-6.937H571.215z M569.127,29.611c0-0.264-0.025-0.624-0.098-0.888
				c-0.311-1.32-1.463-2.424-3.047-2.424c-2.186,0-3.48,1.92-3.48,4.464c0,2.352,1.176,4.296,3.432,4.296
				c1.416,0,2.713-0.96,3.096-2.521c0.072-0.288,0.098-0.576,0.098-0.912V29.611z"/>
			<path style="fill:#FFFFFF;" d="M579.828,28.507c0-1.368-0.023-2.544-0.096-3.625h1.85l0.096,2.304h0.072
				c0.527-1.56,1.824-2.544,3.24-2.544c0.215,0,0.383,0.024,0.576,0.048v1.992c-0.217-0.048-0.434-0.048-0.721-0.048
				c-1.488,0-2.545,1.104-2.832,2.688c-0.049,0.288-0.072,0.648-0.072,0.984V36.5h-2.113V28.507z"/>
			<path style="fill:#FFFFFF;" d="M595.719,33.716c0,1.008,0.047,1.992,0.168,2.784h-1.896l-0.168-1.464h-0.072
				c-0.648,0.912-1.896,1.729-3.553,1.729c-2.352,0-3.553-1.656-3.553-3.336c0-2.808,2.496-4.344,6.984-4.32v-0.24
				c0-0.936-0.264-2.688-2.639-2.664c-1.105,0-2.232,0.312-3.049,0.864l-0.48-1.417c0.961-0.6,2.377-1.008,3.84-1.008
				c3.553,0,4.418,2.424,4.418,4.729V33.716z M593.678,30.571c-2.305-0.048-4.92,0.36-4.92,2.616c0,1.393,0.912,2.017,1.967,2.017
				c1.537,0,2.521-0.96,2.857-1.944c0.072-0.24,0.096-0.48,0.096-0.672V30.571z"/>
			<path style="fill:#FFFFFF;" d="M609.135,19.458V33.5c0,1.032,0.047,2.208,0.096,3h-1.873l-0.096-2.016h-0.072
				c-0.623,1.296-2.016,2.28-3.912,2.28c-2.809,0-4.992-2.376-4.992-5.905c-0.023-3.864,2.4-6.216,5.209-6.216
				c1.799,0,2.975,0.84,3.504,1.752h0.047v-6.937H609.135z M607.045,29.611c0-0.264-0.023-0.624-0.096-0.888
				c-0.312-1.32-1.463-2.424-3.047-2.424c-2.186,0-3.48,1.92-3.48,4.464c0,2.352,1.176,4.296,3.432,4.296
				c1.416,0,2.713-0.96,3.096-2.521c0.072-0.288,0.096-0.576,0.096-0.912V29.611z"/>
			<path style="fill:#FFFFFF;" d="M615.014,21.619c0,0.72-0.504,1.296-1.344,1.296c-0.77,0-1.273-0.576-1.273-1.296
				s0.529-1.32,1.32-1.32C614.484,20.299,615.014,20.875,615.014,21.619z M612.66,36.5V24.883h2.113V36.5H612.66z"/>
			<path style="fill:#FFFFFF;" d="M628.789,30.596c0,4.296-3,6.168-5.783,6.168c-3.121,0-5.568-2.304-5.568-5.977
				c0-3.864,2.568-6.145,5.76-6.145C626.533,24.643,628.789,27.067,628.789,30.596z M619.598,30.715
				c0,2.544,1.439,4.464,3.504,4.464c2.016,0,3.527-1.896,3.527-4.512c0-1.968-0.984-4.44-3.48-4.44
				C620.678,26.227,619.598,28.531,619.598,30.715z"/>
			<path style="fill:#FFFFFF;" d="M631.453,19.458h2.088v7.297h0.047c0.744-1.296,2.09-2.112,3.961-2.112
				c2.904,0,4.92,2.4,4.92,5.904c0,4.152-2.639,6.217-5.232,6.217c-1.68,0-3.023-0.648-3.912-2.16h-0.047l-0.121,1.896h-1.799
				c0.047-0.792,0.096-1.968,0.096-3V19.458z M633.541,31.844c0,0.264,0.023,0.528,0.096,0.768c0.385,1.464,1.633,2.473,3.168,2.473
				c2.232,0,3.529-1.801,3.529-4.465c0-2.328-1.201-4.32-3.48-4.32c-1.416,0-2.76,1.008-3.193,2.592
				c-0.072,0.264-0.119,0.552-0.119,0.888V31.844z"/>
			<path style="fill:#FFFFFF;" d="M654.83,33.308c0,1.224,0.023,2.28,0.096,3.192h-1.873l-0.119-1.896h-0.049
				c-0.527,0.936-1.775,2.16-3.84,2.16c-1.824,0-4.008-1.032-4.008-5.088v-6.793h2.111v6.409c0,2.208,0.695,3.72,2.592,3.72
				c1.416,0,2.4-0.984,2.785-1.944c0.119-0.288,0.191-0.672,0.191-1.08v-7.105h2.113V33.308z"/>
			<path style="fill:#FFFFFF;" d="M660.877,22.099v2.784h3.023v1.608h-3.023v6.265c0,1.44,0.408,2.256,1.584,2.256
				c0.576,0,0.912-0.048,1.225-0.144l0.096,1.608c-0.408,0.144-1.057,0.288-1.873,0.288c-0.984,0-1.775-0.336-2.279-0.888
				c-0.576-0.648-0.816-1.681-0.816-3.049v-6.336h-1.801v-1.608h1.801v-2.16L660.877,22.099z"/>
			<path style="fill:#FFFFFF;" d="M668.82,22.099v2.784h3.023v1.608h-3.023v6.265c0,1.44,0.408,2.256,1.584,2.256
				c0.576,0,0.912-0.048,1.225-0.144l0.096,1.608c-0.408,0.144-1.057,0.288-1.873,0.288c-0.982,0-1.775-0.336-2.279-0.888
				c-0.576-0.648-0.816-1.681-0.816-3.049v-6.336h-1.801v-1.608h1.801v-2.16L668.82,22.099z"/>
			<path style="fill:#FFFFFF;" d="M684.588,30.596c0,4.296-3,6.168-5.783,6.168c-3.121,0-5.568-2.304-5.568-5.977
				c0-3.864,2.568-6.145,5.76-6.145C682.332,24.643,684.588,27.067,684.588,30.596z M675.396,30.715
				c0,2.544,1.439,4.464,3.504,4.464c2.016,0,3.527-1.896,3.527-4.512c0-1.968-0.982-4.44-3.479-4.44
				C676.477,26.227,675.396,28.531,675.396,30.715z"/>
			<path style="fill:#FFFFFF;" d="M687.252,28.027c0-1.224-0.023-2.184-0.096-3.145h1.871l0.121,1.92h0.047
				c0.576-1.08,1.92-2.16,3.842-2.16c1.607,0,4.104,0.96,4.104,4.944V36.5h-2.111v-6.697c0-1.872-0.697-3.432-2.689-3.432
				c-1.367,0-2.447,0.984-2.832,2.16c-0.096,0.264-0.145,0.624-0.145,0.984V36.5h-2.111V28.027z"/>
			<path style="fill:#FFFFFF;" d="M708.012,21.619c0,0.72-0.504,1.296-1.344,1.296c-0.768,0-1.273-0.576-1.273-1.296
				s0.529-1.32,1.32-1.32C707.484,20.299,708.012,20.875,708.012,21.619z M705.66,36.5V24.883h2.111V36.5H705.66z"/>
			<path style="fill:#FFFFFF;" d="M711.275,28.027c0-1.224-0.023-2.184-0.096-3.145h1.871l0.121,1.92h0.047
				c0.576-1.08,1.92-2.16,3.842-2.16c1.607,0,4.104,0.96,4.104,4.944V36.5h-2.111v-6.697c0-1.872-0.697-3.432-2.689-3.432
				c-1.367,0-2.447,0.984-2.832,2.16c-0.096,0.264-0.145,0.624-0.145,0.984V36.5h-2.111V28.027z"/>
			<path style="fill:#FFFFFF;" d="M725.1,24.883l2.279,6.505c0.385,1.08,0.697,2.04,0.938,3h0.072c0.264-0.96,0.6-1.92,0.982-3
				l2.258-6.505h2.207L729.275,36.5h-2.016l-4.416-11.617H725.1z"/>
			<path style="fill:#FFFFFF;" d="M736.764,31.076c0.047,2.856,1.848,4.032,3.984,4.032c1.512,0,2.447-0.264,3.217-0.6l0.383,1.512
				c-0.744,0.336-2.039,0.744-3.889,0.744c-3.576,0-5.711-2.376-5.711-5.881c0-3.504,2.062-6.24,5.447-6.24
				c3.816,0,4.801,3.312,4.801,5.448c0,0.432-0.023,0.744-0.072,0.984H736.764z M742.955,29.563c0.025-1.32-0.551-3.408-2.928-3.408
				c-2.16,0-3.072,1.944-3.24,3.408H742.955z"/>
			<path style="fill:#FFFFFF;" d="M747.611,28.507c0-1.368-0.023-2.544-0.096-3.625h1.848l0.096,2.304h0.072
				c0.527-1.56,1.824-2.544,3.24-2.544c0.217,0,0.385,0.024,0.576,0.048v1.992c-0.217-0.048-0.432-0.048-0.721-0.048
				c-1.488,0-2.543,1.104-2.832,2.688c-0.047,0.288-0.072,0.648-0.072,0.984V36.5h-2.111V28.507z"/>
			<path style="fill:#FFFFFF;" d="M758.578,22.099v2.784h3.025v1.608h-3.025v6.265c0,1.44,0.408,2.256,1.584,2.256
				c0.576,0,0.912-0.048,1.225-0.144l0.096,1.608c-0.408,0.144-1.055,0.288-1.871,0.288c-0.984,0-1.777-0.336-2.281-0.888
				c-0.576-0.648-0.814-1.681-0.814-3.049v-6.336h-1.801v-1.608h1.801v-2.16L758.578,22.099z"/>
			<path style="fill:#FFFFFF;" d="M765.01,31.076c0.049,2.856,1.85,4.032,3.984,4.032c1.514,0,2.449-0.264,3.217-0.6l0.385,1.512
				c-0.744,0.336-2.041,0.744-3.889,0.744c-3.576,0-5.713-2.376-5.713-5.881c0-3.504,2.064-6.24,5.449-6.24
				c3.816,0,4.801,3.312,4.801,5.448c0,0.432-0.025,0.744-0.072,0.984H765.01z M771.203,29.563c0.023-1.32-0.553-3.408-2.928-3.408
				c-2.16,0-3.072,1.944-3.24,3.408H771.203z"/>
			<path style="fill:#FFFFFF;" d="M785.867,19.458V33.5c0,1.032,0.049,2.208,0.096,3h-1.871l-0.098-2.016h-0.07
				c-0.625,1.296-2.018,2.28-3.912,2.28c-2.809,0-4.994-2.376-4.994-5.905c-0.023-3.864,2.4-6.216,5.209-6.216
				c1.801,0,2.977,0.84,3.504,1.752h0.049v-6.937H785.867z M783.779,29.611c0-0.264-0.023-0.624-0.096-0.888
				c-0.312-1.32-1.465-2.424-3.049-2.424c-2.184,0-3.48,1.92-3.48,4.464c0,2.352,1.176,4.296,3.432,4.296
				c1.416,0,2.713-0.96,3.098-2.521c0.072-0.288,0.096-0.576,0.096-0.912V29.611z"/>
		</g>
		<g>
			<path d="M77.803,36.092c-0.552,0.265-1.776,0.672-3.336,0.672c-3.504,0-5.785-2.376-5.785-5.929c0-3.576,2.448-6.192,6.241-6.192
				c1.248,0,2.352,0.312,2.928,0.624l-0.48,1.608c-0.504-0.264-1.296-0.552-2.448-0.552c-2.665,0-4.104,1.992-4.104,4.392
				c0,2.688,1.728,4.345,4.032,4.345c1.2,0,1.992-0.288,2.592-0.552L77.803,36.092z"/>
			<path d="M80.274,19.458h2.112v7.273h0.048c0.336-0.601,0.864-1.152,1.512-1.512c0.625-0.36,1.368-0.576,2.161-0.576
				c1.56,0,4.056,0.96,4.056,4.944V36.5h-2.112v-6.672c0-1.873-0.696-3.433-2.688-3.433c-1.368,0-2.424,0.96-2.833,2.088
				c-0.12,0.312-0.144,0.624-0.144,1.008V36.5h-2.112V19.458z"/>
			<path d="M94.77,31.076c0.048,2.856,1.848,4.032,3.984,4.032c1.512,0,2.448-0.264,3.216-0.6l0.384,1.512
				c-0.744,0.336-2.041,0.744-3.889,0.744c-3.576,0-5.712-2.376-5.712-5.881c0-3.504,2.064-6.24,5.449-6.24
				c3.816,0,4.8,3.312,4.8,5.448c0,0.432-0.024,0.744-0.072,0.984H94.77z M100.963,29.563c0.024-1.32-0.552-3.408-2.929-3.408
				c-2.16,0-3.072,1.944-3.24,3.408H100.963z"/>
			<path d="M113.898,36.092c-0.552,0.265-1.776,0.672-3.336,0.672c-3.504,0-5.785-2.376-5.785-5.929c0-3.576,2.448-6.192,6.24-6.192
				c1.249,0,2.353,0.312,2.928,0.624l-0.48,1.608c-0.504-0.264-1.296-0.552-2.448-0.552c-2.664,0-4.104,1.992-4.104,4.392
				c0,2.688,1.728,4.345,4.032,4.345c1.2,0,1.992-0.288,2.592-0.552L113.898,36.092z"/>
			<path d="M118.458,30.211h0.048c0.288-0.408,0.672-0.912,1.008-1.32l3.432-4.008h2.521l-4.464,4.776l5.112,6.841h-2.592
				l-3.984-5.568l-1.08,1.2V36.5h-2.088V19.458h2.088V30.211z"/>
			<path d="M128.034,19.458h2.088v7.297h0.048c0.744-1.296,2.088-2.112,3.96-2.112c2.904,0,4.92,2.4,4.92,5.904
				c0,4.152-2.64,6.217-5.232,6.217c-1.68,0-3.024-0.648-3.912-2.16h-0.048l-0.12,1.896h-1.8c0.048-0.792,0.096-1.968,0.096-3
				V19.458z M130.122,31.844c0,0.264,0.024,0.528,0.096,0.768c0.384,1.464,1.632,2.473,3.168,2.473c2.232,0,3.528-1.801,3.528-4.465
				c0-2.328-1.2-4.32-3.48-4.32c-1.416,0-2.76,1.008-3.192,2.592c-0.072,0.264-0.12,0.552-0.12,0.888V31.844z"/>
			<path d="M152.202,30.596c0,4.296-3,6.168-5.785,6.168c-3.12,0-5.568-2.304-5.568-5.977c0-3.864,2.568-6.145,5.761-6.145
				C149.946,24.643,152.202,27.067,152.202,30.596z M143.009,30.715c0,2.544,1.44,4.464,3.504,4.464
				c2.016,0,3.528-1.896,3.528-4.512c0-1.968-0.984-4.44-3.48-4.44C144.089,26.227,143.009,28.531,143.009,30.715z"/>
			<path d="M155.513,24.883l1.656,2.497c0.456,0.648,0.816,1.224,1.2,1.872h0.048c0.384-0.672,0.768-1.272,1.176-1.896l1.608-2.473
				h2.305l-3.96,5.617l4.056,6h-2.376l-1.729-2.616c-0.456-0.672-0.84-1.32-1.248-2.016h-0.048c-0.384,0.696-0.768,1.32-1.224,2.016
				l-1.68,2.616h-2.328l4.128-5.929l-3.937-5.688H155.513z"/>
			<path d="M178.89,33.716c0,1.008,0.048,1.992,0.168,2.784h-1.896l-0.168-1.464h-0.072c-0.648,0.912-1.896,1.729-3.552,1.729
				c-2.352,0-3.552-1.656-3.552-3.336c0-2.808,2.496-4.344,6.985-4.32v-0.24c0-0.936-0.264-2.688-2.641-2.664
				c-1.104,0-2.232,0.312-3.048,0.864l-0.48-1.417c0.96-0.6,2.376-1.008,3.84-1.008c3.552,0,4.417,2.424,4.417,4.729V33.716z
				 M176.85,30.571c-2.304-0.048-4.92,0.36-4.92,2.616c0,1.393,0.912,2.017,1.968,2.017c1.536,0,2.52-0.96,2.856-1.944
				c0.072-0.24,0.096-0.48,0.096-0.672V30.571z"/>
			<path d="M182.297,28.027c0-1.224-0.024-2.184-0.096-3.145h1.873l0.12,1.92h0.048c0.576-1.08,1.92-2.16,3.84-2.16
				c1.608,0,4.104,0.96,4.104,4.944V36.5h-2.112v-6.697c0-1.872-0.696-3.432-2.688-3.432c-1.368,0-2.448,0.984-2.832,2.16
				c-0.096,0.264-0.144,0.624-0.144,0.984V36.5h-2.112V28.027z"/>
			<path d="M205.625,19.458V33.5c0,1.032,0.048,2.208,0.096,3h-1.873l-0.096-2.016h-0.072c-0.624,1.296-2.016,2.28-3.912,2.28
				c-2.808,0-4.992-2.376-4.992-5.905c-0.024-3.864,2.4-6.216,5.208-6.216c1.8,0,2.977,0.84,3.504,1.752h0.048v-6.937H205.625z
				 M203.538,29.611c0-0.264-0.024-0.624-0.096-0.888c-0.312-1.32-1.464-2.424-3.048-2.424c-2.184,0-3.48,1.92-3.48,4.464
				c0,2.352,1.176,4.296,3.432,4.296c1.416,0,2.712-0.96,3.096-2.521c0.072-0.288,0.096-0.576,0.096-0.912V29.611z"/>
			<path d="M214.24,28.507c0-1.368-0.024-2.544-0.096-3.625h1.848l0.096,2.304h0.072c0.528-1.56,1.824-2.544,3.24-2.544
				c0.216,0,0.384,0.024,0.576,0.048v1.992c-0.216-0.048-0.432-0.048-0.72-0.048c-1.488,0-2.544,1.104-2.833,2.688
				c-0.048,0.288-0.072,0.648-0.072,0.984V36.5h-2.112V28.507z"/>
			<path d="M230.129,33.716c0,1.008,0.048,1.992,0.168,2.784h-1.896l-0.168-1.464h-0.072c-0.648,0.912-1.896,1.729-3.552,1.729
				c-2.353,0-3.552-1.656-3.552-3.336c0-2.808,2.496-4.344,6.984-4.32v-0.24c0-0.936-0.264-2.688-2.64-2.664
				c-1.104,0-2.232,0.312-3.048,0.864l-0.48-1.417c0.96-0.6,2.376-1.008,3.84-1.008c3.552,0,4.417,2.424,4.417,4.729V33.716z
				 M228.089,30.571c-2.305-0.048-4.921,0.36-4.921,2.616c0,1.393,0.912,2.017,1.968,2.017c1.536,0,2.52-0.96,2.856-1.944
				c0.072-0.24,0.096-0.48,0.096-0.672V30.571z"/>
			<path d="M243.545,19.458V33.5c0,1.032,0.048,2.208,0.096,3h-1.872l-0.096-2.016h-0.072c-0.624,1.296-2.016,2.28-3.913,2.28
				c-2.808,0-4.992-2.376-4.992-5.905c-0.024-3.864,2.4-6.216,5.208-6.216c1.8,0,2.977,0.84,3.504,1.752h0.048v-6.937H243.545z
				 M241.457,29.611c0-0.264-0.024-0.624-0.096-0.888c-0.312-1.32-1.464-2.424-3.048-2.424c-2.185,0-3.48,1.92-3.48,4.464
				c0,2.352,1.176,4.296,3.432,4.296c1.417,0,2.712-0.96,3.096-2.521c0.072-0.288,0.096-0.576,0.096-0.912V29.611z"/>
			<path d="M249.424,21.619c0,0.72-0.504,1.296-1.344,1.296c-0.769,0-1.272-0.576-1.272-1.296s0.528-1.32,1.32-1.32
				C248.896,20.299,249.424,20.875,249.424,21.619z M247.072,36.5V24.883h2.112V36.5H247.072z"/>
			<path d="M263.201,30.596c0,4.296-3,6.168-5.785,6.168c-3.12,0-5.568-2.304-5.568-5.977c0-3.864,2.568-6.145,5.76-6.145
				C260.945,24.643,263.201,27.067,263.201,30.596z M254.008,30.715c0,2.544,1.44,4.464,3.504,4.464
				c2.016,0,3.528-1.896,3.528-4.512c0-1.968-0.984-4.44-3.48-4.44C255.088,26.227,254.008,28.531,254.008,30.715z"/>
			<path d="M265.864,19.458h2.088v7.297H268c0.744-1.296,2.088-2.112,3.96-2.112c2.904,0,4.92,2.4,4.92,5.904
				c0,4.152-2.64,6.217-5.232,6.217c-1.68,0-3.024-0.648-3.912-2.16h-0.048l-0.12,1.896h-1.8c0.048-0.792,0.096-1.968,0.096-3
				V19.458z M267.952,31.844c0,0.264,0.024,0.528,0.096,0.768c0.384,1.464,1.632,2.473,3.168,2.473c2.232,0,3.528-1.801,3.528-4.465
				c0-2.328-1.2-4.32-3.48-4.32c-1.417,0-2.76,1.008-3.192,2.592c-0.072,0.264-0.12,0.552-0.12,0.888V31.844z"/>
			<path d="M289.241,33.308c0,1.224,0.024,2.28,0.096,3.192h-1.872l-0.12-1.896h-0.048c-0.528,0.936-1.776,2.16-3.84,2.16
				c-1.824,0-4.008-1.032-4.008-5.088v-6.793h2.112v6.409c0,2.208,0.696,3.72,2.592,3.72c1.417,0,2.4-0.984,2.784-1.944
				c0.12-0.288,0.192-0.672,0.192-1.08v-7.105h2.112V33.308z"/>
			<path d="M295.288,22.099v2.784h3.024v1.608h-3.024v6.265c0,1.44,0.408,2.256,1.584,2.256c0.576,0,0.912-0.048,1.224-0.144
				l0.096,1.608c-0.408,0.144-1.056,0.288-1.872,0.288c-0.984,0-1.776-0.336-2.28-0.888c-0.576-0.648-0.816-1.681-0.816-3.049
				v-6.336h-1.8v-1.608h1.8v-2.16L295.288,22.099z"/>
			<path d="M303.231,22.099v2.784h3.024v1.608h-3.024v6.265c0,1.44,0.408,2.256,1.584,2.256c0.576,0,0.912-0.048,1.224-0.144
				l0.096,1.608c-0.408,0.144-1.056,0.288-1.872,0.288c-0.984,0-1.776-0.336-2.28-0.888c-0.576-0.648-0.816-1.681-0.816-3.049
				v-6.336h-1.8v-1.608h1.8v-2.16L303.231,22.099z"/>
			<path d="M319,30.596c0,4.296-3,6.168-5.785,6.168c-3.121,0-5.569-2.304-5.569-5.977c0-3.864,2.568-6.145,5.761-6.145
				C316.744,24.643,319,27.067,319,30.596z M309.807,30.715c0,2.544,1.44,4.464,3.505,4.464c2.016,0,3.528-1.896,3.528-4.512
				c0-1.968-0.984-4.44-3.48-4.44C310.888,26.227,309.807,28.531,309.807,30.715z"/>
			<path d="M321.663,28.027c0-1.224-0.024-2.184-0.096-3.145h1.873l0.12,1.92h0.048c0.576-1.08,1.92-2.16,3.84-2.16
				c1.608,0,4.104,0.96,4.104,4.944V36.5h-2.112v-6.697c0-1.872-0.696-3.432-2.688-3.432c-1.368,0-2.448,0.984-2.832,2.16
				c-0.096,0.264-0.144,0.624-0.144,0.984V36.5h-2.112V28.027z"/>
		</g>
	</g>
	<g id="meegotouch-button-radiobutton-inverted-background-selected-disabled" style="opacity:0.3;">
		<circle style="fill:#00E700;stroke:#666666;" cx="731.5" cy="181.5" r="21"/>
		<g>
			<circle style="fill:#FFFFFF;" cx="731.5" cy="181.5" r="10"/>
		</g>
	</g>
	<g id="meegotouch-button-radiobutton-inverted-background-disabled" style="opacity:0.3;">
		<circle style="fill:#CBCBCB;stroke:#666666;" cx="681.5" cy="181.5" r="21"/>
		<g style="opacity:0.5;">
			<g>
				<path style="fill:#FFFFFF;" d="M681.5,172.5c4.963,0,9,4.037,9,9s-4.037,9-9,9s-9-4.037-9-9S676.537,172.5,681.5,172.5
					 M681.5,171.5c-5.521,0-10,4.477-10,10s4.479,10,10,10c5.523,0,10-4.477,10-10S687.023,171.5,681.5,171.5L681.5,171.5z"/>
			</g>
		</g>
	</g>
	<g id="meegotouch-button-radiobutton-inverted-background-selected">
		<circle style="fill:#00E700;stroke:#666666;" cx="621.5" cy="181.5" r="21"/>
		<g>
			<circle style="fill:#FFFFFF;" cx="621.5" cy="181.5" r="10"/>
		</g>
	</g>
	<g id="meegotouch-button-radiobutton-inverted-background-pressed">
		<circle style="fill:#CBCBCB;stroke:#666666;" cx="571.5" cy="181.5" r="21"/>
		<g style="opacity:0.5;">
			<g>
				<path style="fill:#FFFFFF;" d="M571.5,172.5c4.963,0,9,4.037,9,9s-4.037,9-9,9s-9-4.037-9-9S566.537,172.5,571.5,172.5
					 M571.5,171.5c-5.521,0-10,4.477-10,10s4.479,10,10,10c5.523,0,10-4.477,10-10S577.023,171.5,571.5,171.5L571.5,171.5z"/>
			</g>
		</g>
		<circle style="opacity:0.5;" cx="571.5" cy="181.5" r="21"/>
	</g>
	<g id="meegotouch-button-radiobutton-inverted-background">
		<circle style="fill:#CBCBCB;stroke:#666666;" cx="521.5" cy="181.5" r="21"/>
		<g style="opacity:0.5;">
			<g>
				<path style="fill:#FFFFFF;" d="M521.5,172.5c4.963,0,9,4.037,9,9s-4.037,9-9,9s-9-4.037-9-9S516.537,172.5,521.5,172.5
					 M521.5,171.5c-5.521,0-10,4.477-10,10s4.479,10,10,10c5.523,0,10-4.477,10-10S527.023,171.5,521.5,171.5L521.5,171.5z"/>
			</g>
		</g>
	</g>
	<g id="meegotouch-button-checkbox-inverted-background-selected-disabled" style="opacity:0.3;">
		<g>
			<path style="fill:#00E700;" d="M720.5,142c-5.238,0-9.5-4.262-9.5-9.5v-22c0-5.238,4.262-9.5,9.5-9.5h22
				c5.238,0,9.5,4.262,9.5,9.5v22c0,5.238-4.262,9.5-9.5,9.5H720.5z"/>
			<path style="fill:#666666;" d="M742.5,101.5c4.963,0,9,4.038,9,9v22c0,4.962-4.037,9-9,9h-22c-4.963,0-9-4.038-9-9v-22
				c0-4.962,4.037-9,9-9H742.5 M742.5,100.5h-22c-5.5,0-10,4.5-10,10v22c0,5.5,4.5,10,10,10h22c5.5,0,10-4.5,10-10v-22
				C752.5,105,748,100.5,742.5,100.5L742.5,100.5z"/>
		</g>
		<path style="fill:#FFFFFF;" d="M717.621,121.527l4.139-3.336l5.891,4.617c2.451-2.81,8.439-8.905,15.725-13.371l1.812,2.812
			c-6.994,6.435-15.305,21.746-15.305,21.746L717.621,121.527z"/>
	</g>
	<g id="meegotouch-button-checkbox-inverted-background-disabled" style="opacity:0.3;">
		<g>
			<path style="fill:#CBCBCB;" d="M670.5,142c-5.238,0-9.5-4.262-9.5-9.5v-22c0-5.238,4.262-9.5,9.5-9.5h22
				c5.238,0,9.5,4.262,9.5,9.5v22c0,5.238-4.262,9.5-9.5,9.5H670.5z"/>
			<g>
				<path style="fill:#666666;" d="M692.5,101.5c4.963,0,9,4.038,9,9v22c0,4.962-4.037,9-9,9h-22c-4.963,0-9-4.038-9-9v-22
					c0-4.962,4.037-9,9-9H692.5 M692.5,100.5h-22c-5.5,0-10,4.5-10,10v22c0,5.5,4.5,10,10,10h22c5.5,0,10-4.5,10-10v-22
					C702.5,105,698,100.5,692.5,100.5L692.5,100.5z"/>
			</g>
		</g>
	</g>
	<g id="meegotouch-button-checkbox-inverted-background-selected">
		<g>
			<path style="fill:#00E700;" d="M610.5,142c-5.238,0-9.5-4.262-9.5-9.5v-22c0-5.238,4.262-9.5,9.5-9.5h22
				c5.238,0,9.5,4.262,9.5,9.5v22c0,5.238-4.262,9.5-9.5,9.5H610.5z"/>
			<path style="fill:#666666;" d="M632.5,101.5c4.963,0,9,4.038,9,9v22c0,4.962-4.037,9-9,9h-22c-4.963,0-9-4.038-9-9v-22
				c0-4.962,4.037-9,9-9H632.5 M632.5,100.5h-22c-5.5,0-10,4.5-10,10v22c0,5.5,4.5,10,10,10h22c5.5,0,10-4.5,10-10v-22
				C642.5,105,638,100.5,632.5,100.5L632.5,100.5z"/>
		</g>
		<path style="fill:#FFFFFF;" d="M607.621,121.527l4.139-3.336l5.891,4.617c2.451-2.81,8.439-8.905,15.725-13.371l1.812,2.812
			c-6.994,6.435-15.305,21.746-15.305,21.746L607.621,121.527z"/>
	</g>
	<g id="meegotouch-button-checkbox-inverted-background-pressed">
		<g>
			<path style="fill:#C8C8C8;" d="M560.5,142c-5.238,0-9.5-4.262-9.5-9.5v-22c0-5.238,4.262-9.5,9.5-9.5h22
				c5.238,0,9.5,4.262,9.5,9.5v22c0,5.238-4.262,9.5-9.5,9.5H560.5z"/>
			<path style="fill:#666666;" d="M582.5,101.5c4.963,0,9,4.038,9,9v22c0,4.962-4.037,9-9,9h-22c-4.963,0-9-4.038-9-9v-22
				c0-4.962,4.037-9,9-9H582.5 M582.5,100.5h-22c-5.5,0-10,4.5-10,10v22c0,5.5,4.5,10,10,10h22c5.5,0,10-4.5,10-10v-22
				C592.5,105,588,100.5,582.5,100.5L582.5,100.5z"/>
		</g>
		<path style="opacity:0.5;fill:none;stroke:#FFFFFF;" d="M557.621,121.527l4.139-3.336l5.891,4.617
			c2.451-2.81,8.439-8.905,15.725-13.371l1.812,2.812c-6.994,6.435-15.305,21.746-15.305,21.746L557.621,121.527z"/>
		<g style="opacity:0.5;">
			<path d="M592.5,132.5c0,5.5-4.5,10-10,10h-22c-5.5,0-10-4.5-10-10v-22c0-5.5,4.5-10,10-10h22c5.5,0,10,4.5,10,10V132.5z"/>
		</g>
	</g>
	<g id="meegotouch-button-checkbox-inverted-background">
		<g>
			<path style="fill:#CBCBCB;" d="M510.5,142c-5.238,0-9.5-4.262-9.5-9.5v-22c0-5.238,4.262-9.5,9.5-9.5h22
				c5.238,0,9.5,4.262,9.5,9.5v22c0,5.238-4.262,9.5-9.5,9.5H510.5z"/>
			<path style="fill:#666666;" d="M532.5,101.5c4.963,0,9,4.038,9,9v22c0,4.962-4.037,9-9,9h-22c-4.963,0-9-4.038-9-9v-22
				c0-4.962,4.037-9,9-9H532.5 M532.5,100.5h-22c-5.5,0-10,4.5-10,10v22c0,5.5,4.5,10,10,10h22c5.5,0,10-4.5,10-10v-22
				C542.5,105,538,100.5,532.5,100.5L532.5,100.5z"/>
		</g>
		<g style="opacity:0.5;">
			<path style="fill:#FFFFFF;" d="M533.069,110.809l0.829,1.287c-5.819,5.695-12.201,16.624-14.24,20.246l-10.55-10.728l2.66-2.145
				l5.265,4.126l0.747,0.585l0.624-0.715C519.517,122.19,525.302,115.765,533.069,110.809 M533.375,109.438
				c-7.285,4.466-13.273,10.561-15.725,13.371l-5.891-4.617l-4.139,3.336l12.262,12.469c0,0,8.311-15.312,15.305-21.746
				L533.375,109.438L533.375,109.438z"/>
		</g>
	</g>
	<g id="meegotouch-button-radiobutton-background-selected-disabled" style="opacity:0.3;">
		<circle style="fill:#00E700;stroke:#666666;" cx="331.5" cy="181.5" r="21"/>
		<g>
			<circle style="fill:#FFFFFF;" cx="331.5" cy="181.5" r="10"/>
		</g>
	</g>
	<g id="meegotouch-button-radiobutton-background-disabled" style="opacity:0.3;">
		<circle style="fill:#CBCBCB;stroke:#666666;" cx="281.5" cy="181.5" r="21"/>
		<g style="opacity:0.5;">
			<g>
				<path style="fill:#FFFFFF;" d="M281.5,172.5c4.962,0,9,4.037,9,9s-4.038,9-9,9s-9-4.037-9-9S276.538,172.5,281.5,172.5
					 M281.5,171.5c-5.523,0-10,4.477-10,10s4.477,10,10,10s10-4.477,10-10S287.023,171.5,281.5,171.5L281.5,171.5z"/>
			</g>
		</g>
	</g>
	<g id="meegotouch-button-radiobutton-background-selected">
		<circle style="fill:#00E700;stroke:#666666;" cx="221.5" cy="181.5" r="21"/>
		<g>
			<circle style="fill:#FFFFFF;" cx="221.5" cy="181.5" r="10"/>
		</g>
	</g>
	<g id="meegotouch-button-radiobutton-background-pressed">
		<circle style="fill:#CBCBCB;stroke:#666666;" cx="171.5" cy="181.5" r="21"/>
		<g style="opacity:0.5;">
			<g>
				<path style="fill:#FFFFFF;" d="M171.5,172.5c4.962,0,9,4.037,9,9s-4.038,9-9,9s-9-4.037-9-9S166.538,172.5,171.5,172.5
					 M171.5,171.5c-5.523,0-10,4.477-10,10s4.477,10,10,10s10-4.477,10-10S177.023,171.5,171.5,171.5L171.5,171.5z"/>
			</g>
		</g>
		<circle style="opacity:0.5;" cx="171.5" cy="181.5" r="21"/>
	</g>
	<g id="meegotouch-button-radiobutton-background">
		<circle style="fill:#CBCBCB;stroke:#666666;" cx="121.5" cy="181.5" r="21"/>
		<g style="opacity:0.5;">
			<g>
				<path style="fill:#FFFFFF;" d="M121.5,172.5c4.962,0,9,4.037,9,9s-4.038,9-9,9s-9-4.037-9-9S116.538,172.5,121.5,172.5
					 M121.5,171.5c-5.523,0-10,4.477-10,10s4.477,10,10,10s10-4.477,10-10S127.023,171.5,121.5,171.5L121.5,171.5z"/>
			</g>
		</g>
	</g>
	<g id="meegotouch-button-checkbox-background-selected-disabled" style="opacity:0.3;">
		<g>
			<path style="fill:#00E700;" d="M320.5,142c-5.238,0-9.5-4.262-9.5-9.5v-22c0-5.238,4.262-9.5,9.5-9.5h22
				c5.238,0,9.5,4.262,9.5,9.5v22c0,5.238-4.262,9.5-9.5,9.5H320.5z"/>
			<path style="fill:#666666;" d="M342.5,101.5c4.962,0,9,4.038,9,9v22c0,4.962-4.038,9-9,9h-22c-4.962,0-9-4.038-9-9v-22
				c0-4.962,4.038-9,9-9H342.5 M342.5,100.5h-22c-5.5,0-10,4.5-10,10v22c0,5.5,4.5,10,10,10h22c5.5,0,10-4.5,10-10v-22
				C352.5,105,348,100.5,342.5,100.5L342.5,100.5z"/>
		</g>
		<path style="fill:#FFFFFF;" d="M317.621,121.527l4.138-3.336l5.892,4.617c2.45-2.81,8.439-8.905,15.725-13.371l1.812,2.812
			c-6.995,6.435-15.306,21.746-15.306,21.746L317.621,121.527z"/>
	</g>
	<g id="meegotouch-button-checkbox-background-disabled" style="opacity:0.3;">
		<g>
			<path style="fill:#CBCBCB;" d="M270.5,142c-5.238,0-9.5-4.262-9.5-9.5v-22c0-5.238,4.262-9.5,9.5-9.5h22
				c5.238,0,9.5,4.262,9.5,9.5v22c0,5.238-4.262,9.5-9.5,9.5H270.5z"/>
			<g>
				<path style="fill:#666666;" d="M292.5,101.5c4.962,0,9,4.038,9,9v22c0,4.962-4.038,9-9,9h-22c-4.962,0-9-4.038-9-9v-22
					c0-4.962,4.038-9,9-9H292.5 M292.5,100.5h-22c-5.5,0-10,4.5-10,10v22c0,5.5,4.5,10,10,10h22c5.5,0,10-4.5,10-10v-22
					C302.5,105,298,100.5,292.5,100.5L292.5,100.5z"/>
			</g>
		</g>
	</g>
	<g id="meegotouch-button-checkbox-background-selected">
		<g>
			<path style="fill:#00E700;" d="M210.5,142c-5.238,0-9.5-4.262-9.5-9.5v-22c0-5.238,4.262-9.5,9.5-9.5h22
				c5.238,0,9.5,4.262,9.5,9.5v22c0,5.238-4.262,9.5-9.5,9.5H210.5z"/>
			<path style="fill:#666666;" d="M232.5,101.5c4.962,0,9,4.038,9,9v22c0,4.962-4.038,9-9,9h-22c-4.962,0-9-4.038-9-9v-22
				c0-4.962,4.038-9,9-9H232.5 M232.5,100.5h-22c-5.5,0-10,4.5-10,10v22c0,5.5,4.5,10,10,10h22c5.5,0,10-4.5,10-10v-22
				C242.5,105,238,100.5,232.5,100.5L232.5,100.5z"/>
		</g>
		<path style="fill:#FFFFFF;" d="M207.621,121.527l4.138-3.336l5.892,4.617c2.45-2.81,8.439-8.905,15.725-13.371l1.812,2.812
			c-6.995,6.435-15.306,21.746-15.306,21.746L207.621,121.527z"/>
	</g>
	<g id="meegotouch-button-checkbox-background-pressed">
		<g>
			<path style="fill:#C8C8C8;" d="M160.5,142c-5.238,0-9.5-4.262-9.5-9.5v-22c0-5.238,4.262-9.5,9.5-9.5h22
				c5.238,0,9.5,4.262,9.5,9.5v22c0,5.238-4.262,9.5-9.5,9.5H160.5z"/>
			<path style="fill:#666666;" d="M182.5,101.5c4.962,0,9,4.038,9,9v22c0,4.962-4.038,9-9,9h-22c-4.962,0-9-4.038-9-9v-22
				c0-4.962,4.038-9,9-9H182.5 M182.5,100.5h-22c-5.5,0-10,4.5-10,10v22c0,5.5,4.5,10,10,10h22c5.5,0,10-4.5,10-10v-22
				C192.5,105,188,100.5,182.5,100.5L182.5,100.5z"/>
		</g>
		<path style="opacity:0.5;fill:none;stroke:#FFFFFF;" d="M157.621,121.527l4.138-3.336l5.892,4.617
			c2.45-2.81,8.439-8.905,15.725-13.371l1.812,2.812c-6.995,6.435-15.306,21.746-15.306,21.746L157.621,121.527z"/>
		<g style="opacity:0.5;">
			<path d="M192.5,132.5c0,5.5-4.5,10-10,10h-22c-5.5,0-10-4.5-10-10v-22c0-5.5,4.5-10,10-10h22c5.5,0,10,4.5,10,10V132.5z"/>
		</g>
	</g>
	<g id="meegotouch-button-checkbox-background">
		<g>
			<path style="fill:#CBCBCB;" d="M110.5,142c-5.238,0-9.5-4.262-9.5-9.5v-22c0-5.238,4.262-9.5,9.5-9.5h22
				c5.238,0,9.5,4.262,9.5,9.5v22c0,5.238-4.262,9.5-9.5,9.5H110.5z"/>
			<path style="fill:#666666;" d="M132.5,101.5c4.962,0,9,4.038,9,9v22c0,4.962-4.038,9-9,9h-22c-4.962,0-9-4.038-9-9v-22
				c0-4.962,4.038-9,9-9H132.5 M132.5,100.5h-22c-5.5,0-10,4.5-10,10v22c0,5.5,4.5,10,10,10h22c5.5,0,10-4.5,10-10v-22
				C142.5,105,138,100.5,132.5,100.5L132.5,100.5z"/>
		</g>
		<g style="opacity:0.5;">
			<path style="fill:#FFFFFF;" d="M133.069,110.809l0.83,1.287c-5.82,5.695-12.202,16.624-14.242,20.246l-10.549-10.728l2.66-2.145
				l5.266,4.126l0.747,0.585l0.624-0.715C119.516,122.191,125.295,115.769,133.069,110.809 M133.375,109.438
				c-7.286,4.466-13.275,10.561-15.725,13.371l-5.892-4.617l-4.138,3.336l12.261,12.469c0,0,8.311-15.312,15.306-21.746
				L133.375,109.438L133.375,109.438z"/>
		</g>
	</g>
</g>
</svg>
